font.ufo
<glyph name="exclam" format="1">
  <advance width="299"/>
  <unicode hex="0021"/>
  <outline>
    <contour>
      <point x="199" y="229" type="line"/>
      <point x="215" y="722" type="line"/>
      <point x="84" y="722" type="line"/>
      <point x="100" y="229" type="line"/>
    </contour>
    <contour>
      <point x="224" y="52" type="curve"/>
      <point x="224" y="93"/>
      <point x="192" y="113"/>
      <point x="149" y="113" type="curve"/>
      <point x="105" y="113"/>
      <point x="76" y="91"/>
      <point x="76" y="52" type="curve"/>
      <point x="219" y="52"/>
      <point x="81" y="52"/>
      <point x="224" y="52" type="curve"/>
      <point x="224" y="9"/>
      <point x="192" y="-9"/>
      <point x="148" y="-9" type="curve"/>
      <point x="104" y="-9"/>
      <point x="76" y="12"/>
      <point x="76" y="52" type="curve"/>
      <point x="219" y="52"/>
      <point x="81" y="52"/>
    </contour>
  </outline>
</glyph>
<glyph name="quotedbl" format="1">
  <advance width="511"/>
  <unicode hex="0022"/>
  <outline>
    <contour>
      <point x="201" y="620" type="line"/>
      <point x="209" y="843" type="line"/>
      <point x="69" y="843" type="line"/>
      <point x="77" y="620" type="line"/>
    </contour>
    <contour>
      <point x="434" y="620" type="line"/>
      <point x="443" y="843" type="line"/>
      <point x="302" y="843" type="line"/>
      <point x="311" y="620" type="line"/>
    </contour>
  </outline>
</glyph>
<glyph name="numbersign" format="1">
  <advance width="840"/>
  <unicode hex="0023"/>
  <outline>
    <contour>
      <point x="46" y="222" type="line"/>
      <point x="669" y="222" type="line"/>
      <point x="706" y="316" type="line"/>
      <point x="84" y="316" type="line"/>
    </contour>
    <contour>
      <point x="130" y="441" type="line"/>
      <point x="757" y="441" type="line"/>
      <point x="793" y="535" type="line"/>
      <point x="167" y="535" type="line"/>
    </contour>
    <contour>
      <point x="520" y="39" type="line"/>
      <point x="792" y="722" type="line"/>
      <point x="665" y="722" type="line"/>
      <point x="393" y="39" type="line"/>
    </contour>
    <contour>
      <point x="183" y="46" type="line"/>
      <point x="451" y="722" type="line"/>
      <point x="326" y="722" type="line"/>
      <point x="62" y="46" type="line"/>
    </contour>
  </outline>
</glyph>
<glyph name="dollar" format="1">
  <advance width="716"/>
  <unicode hex="0024"/>
  <outline>
    <contour>
      <point x="161" y="93" type="curve"/>
      <point x="161" y="213"/>
      <point x="161" y="113"/>
      <point x="161" y="233" type="curve"/>
      <point x="65" y="233"/>
      <point x="161" y="233"/>
      <point x="65" y="233" type="curve"/>
      <point x="65" y="113"/>
      <point x="65" y="213"/>
      <point x="65" y="93" type="curve"/>
      <point x="161" y="93"/>
      <point x="65" y="93"/>
    </contour>
    <contour>
      <point x="526" y="635" type="curve"/>
      <point x="526" y="515"/>
      <point x="526" y="614"/>
      <point x="526" y="494" type="curve"/>
      <point x="623" y="494"/>
      <point x="526" y="494"/>
      <point x="623" y="494" type="curve"/>
      <point x="623" y="614"/>
      <point x="623" y="515"/>
      <point x="623" y="635" type="curve"/>
      <point x="526" y="635"/>
      <point x="623" y="635"/>
    </contour>
    <contour>
      <point x="399" y="-39" type="curve"/>
      <point x="399" y="-9"/>
      <point x="399" y="59"/>
      <point x="399" y="90" type="curve"/>
      <point x="273" y="90"/>
      <point x="399" y="90"/>
      <point x="273" y="90" type="curve"/>
      <point x="273" y="59"/>
      <point x="273" y="-9"/>
      <point x="273" y="-39" type="curve"/>
      <point x="399" y="-39"/>
      <point x="273" y="-39"/>
    </contour>
    <contour>
      <point x="413" y="639" type="curve"/>
      <point x="413" y="669"/>
      <point x="413" y="743"/>
      <point x="413" y="773" type="curve"/>
      <point x="288" y="773"/>
      <point x="413" y="773"/>
      <point x="288" y="773" type="curve"/>
      <point x="288" y="743"/>
      <point x="288" y="669"/>
      <point x="288" y="639" type="curve"/>
      <point x="413" y="639"/>
      <point x="288" y="639"/>
    </contour>
    <contour>
      <point x="65" y="93" type="curve"/>
      <point x="140" y="66"/>
      <point x="230" y="43"/>
      <point x="330" y="43" type="curve"/>
      <point x="510" y="43"/>
      <point x="668" y="76"/>
      <point x="668" y="217" type="curve"/>
      <point x="668" y="341"/>
      <point x="531" y="373"/>
      <point x="392" y="416" type="curve"/>
      <point x="296" y="445"/>
      <point x="199" y="459"/>
      <point x="199" y="524" type="curve"/>
      <point x="199" y="583"/>
      <point x="272" y="595"/>
      <point x="354" y="595" type="curve"/>
      <point x="433" y="595"/>
      <point x="490" y="583"/>
      <point x="560" y="556" type="curve"/>
      <point x="623" y="635"/>
      <point x="560" y="556"/>
      <point x="623" y="635" type="curve"/>
      <point x="533" y="669"/>
      <point x="461" y="687"/>
      <point x="361" y="687" type="curve"/>
      <point x="203" y="687"/>
      <point x="73" y="649"/>
      <point x="73" y="524" type="curve"/>
      <point x="73" y="406"/>
      <point x="185" y="372"/>
      <point x="317" y="332" type="curve"/>
      <point x="421" y="300"/>
      <point x="542" y="288"/>
      <point x="542" y="212" type="curve"/>
      <point x="542" y="140"/>
      <point x="446" y="136"/>
      <point x="342" y="136" type="curve"/>
      <point x="262" y="136"/>
      <point x="192" y="156"/>
      <point x="133" y="176" type="curve"/>
      <point x="65" y="92"/>
      <point x="133" y="176"/>
    </contour>
  </outline>
</glyph>
<glyph name="percent" format="1">
  <advance width="1319"/>
  <unicode hex="0025"/>
  <outline>
    <contour>
      <point x="458" y="-46" type="line"/>
      <point x="993" y="716" type="line"/>
      <point x="877" y="716" type="line"/>
      <point x="343" y="-46" type="line"/>
    </contour>
    <contour>
      <point x="161" y="499" type="curve"/>
      <point x="161" y="578"/>
      <point x="209" y="627"/>
      <point x="288" y="627" type="curve"/>
      <point x="367" y="628"/>
      <point x="416" y="578"/>
      <point x="416" y="497" type="curve"/>
      <point x="416" y="418"/>
      <point x="372" y="366"/>
      <point x="294" y="366" type="curve"/>
      <point x="212" y="366"/>
      <point x="161" y="416"/>
      <point x="161" y="499" type="curve"/>
      <point x="117" y="499"/>
      <point x="87" y="499"/>
      <point x="42" y="499" type="curve"/>
      <point x="42" y="355"/>
      <point x="141" y="274"/>
      <point x="289" y="274" type="curve"/>
      <point x="439" y="274"/>
      <point x="540" y="355"/>
      <point x="540" y="502" type="curve"/>
      <point x="540" y="643"/>
      <point x="440" y="719"/>
      <point x="293" y="719" type="curve"/>
      <point x="144" y="719"/>
      <point x="42" y="642"/>
      <point x="42" y="499" type="curve"/>
      <point x="87" y="499"/>
      <point x="117" y="499"/>
    </contour>
    <contour>
      <point x="898" y="172" type="curve"/>
      <point x="898" y="250"/>
      <point x="946" y="299"/>
      <point x="1025" y="299" type="curve"/>
      <point x="1105" y="300"/>
      <point x="1153" y="251"/>
      <point x="1153" y="170" type="curve"/>
      <point x="1153" y="91"/>
      <point x="1109" y="39"/>
      <point x="1032" y="39" type="curve"/>
      <point x="949" y="39"/>
      <point x="898" y="89"/>
      <point x="898" y="172" type="curve"/>
      <point x="854" y="172"/>
      <point x="824" y="172"/>
      <point x="779" y="172" type="curve"/>
      <point x="779" y="27"/>
      <point x="878" y="-54"/>
      <point x="1026" y="-54" type="curve"/>
      <point x="1176" y="-54"/>
      <point x="1277" y="28"/>
      <point x="1277" y="174" type="curve"/>
      <point x="1277" y="316"/>
      <point x="1177" y="392"/>
      <point x="1030" y="392" type="curve"/>
      <point x="881" y="392"/>
      <point x="779" y="314"/>
      <point x="779" y="172" type="curve"/>
      <point x="824" y="172"/>
      <point x="854" y="172"/>
    </contour>
  </outline>
</glyph>
<glyph name="ampersand" format="1">
  <advance width="864"/>
  <unicode hex="0026"/>
  <outline>
    <contour>
      <point x="838" y="65" type="line"/>
      <point x="712" y="160"/>
      <point x="566" y="272"/>
      <point x="437" y="372" type="curve"/>
      <point x="365" y="429"/>
      <point x="272" y="461"/>
      <point x="272" y="554" type="curve"/>
      <point x="272" y="605"/>
      <point x="313" y="634"/>
      <point x="368" y="634" type="curve"/>
      <point x="432" y="634"/>
      <point x="486" y="614"/>
      <point x="486" y="556" type="curve"/>
      <point x="485" y="469"/>
      <point x="401" y="448"/>
      <point x="315" y="413" type="curve"/>
      <point x="188" y="360"/>
      <point x="61" y="328"/>
      <point x="61" y="196" type="curve"/>
      <point x="61" y="51"/>
      <point x="199" y="-5"/>
      <point x="362" y="-5" type="curve"/>
      <point x="581" y="-5"/>
      <point x="733" y="110"/>
      <point x="821" y="313" type="curve"/>
      <point x="712" y="337"/>
      <point x="821" y="313"/>
      <point x="712" y="337" type="curve"/>
      <point x="644" y="182"/>
      <point x="534" y="88"/>
      <point x="367" y="88" type="curve"/>
      <point x="271" y="88"/>
      <point x="187" y="111"/>
      <point x="187" y="196" type="curve"/>
      <point x="187" y="287"/>
      <point x="278" y="302"/>
      <point x="367" y="339" type="curve"/>
      <point x="490" y="391"/>
      <point x="610" y="428"/>
      <point x="611" y="556" type="curve"/>
      <point x="611" y="676"/>
      <point x="504" y="727"/>
      <point x="374" y="727" type="curve"/>
      <point x="247" y="727"/>
      <point x="147" y="671"/>
      <point x="147" y="554" type="curve"/>
      <point x="147" y="437"/>
      <point x="256" y="387"/>
      <point x="351" y="316" type="curve"/>
      <point x="480" y="215"/>
      <point x="648" y="87"/>
      <point x="773" y="-11" type="curve"/>
    </contour>
  </outline>
</glyph>
<glyph name="quotesingle" format="1">
  <advance width="278"/>
  <unicode hex="0027"/>
  <outline>
    <contour>
      <point x="201" y="620" type="line"/>
      <point x="209" y="843" type="line"/>
      <point x="69" y="843" type="line"/>
      <point x="77" y="620" type="line"/>
    </contour>
  </outline>
</glyph>
<glyph name="parenleft" format="1">
  <advance width="459"/>
  <unicode hex="0028"/>
  <outline>
    <contour>
      <point x="453" y="-210" type="curve"/>
      <point x="269" y="-65"/>
      <point x="173" y="90"/>
      <point x="173" y="326" type="curve"/>
      <point x="173" y="562"/>
      <point x="269" y="716"/>
      <point x="452" y="865" type="curve"/>
      <point x="378" y="926"/>
      <point x="452" y="865"/>
      <point x="378" y="926" type="curve"/>
      <point x="168" y="760"/>
      <point x="49" y="594"/>
      <point x="49" y="326" type="curve"/>
      <point x="49" y="58"/>
      <point x="168" y="-109"/>
      <point x="379" y="-276" type="curve"/>
      <point x="453" y="-210"/>
      <point x="379" y="-276"/>
    </contour>
  </outline>
</glyph>
<glyph name="parenright" format="1">
  <advance width="468"/>
  <unicode hex="0029"/>
  <outline>
    <contour>
      <point x="74" y="-290" type="curve"/>
      <point x="288" y="-115"/>
      <point x="420" y="51"/>
      <point x="420" y="329" type="curve"/>
      <point x="420" y="599"/>
      <point x="295" y="765"/>
      <point x="79" y="928" type="curve"/>
      <point x="4" y="862"/>
      <point x="79" y="928"/>
      <point x="4" y="862" type="curve"/>
      <point x="192" y="715"/>
      <point x="295" y="563"/>
      <point x="295" y="324" type="curve"/>
      <point x="295" y="82"/>
      <point x="183" y="-71"/>
      <point x="-1" y="-229" type="curve"/>
      <point x="74" y="-290"/>
      <point x="-1" y="-229"/>
    </contour>
  </outline>
</glyph>
<glyph name="asterisk" format="1">
  <advance width="627"/>
  <unicode hex="002A"/>
  <outline>
    <contour>
      <point x="357" y="612" type="line"/>
      <point x="363" y="835" type="line"/>
      <point x="261" y="835" type="line"/>
      <point x="268" y="612" type="line"/>
    </contour>
    <contour>
      <point x="355" y="553" type="line"/>
      <point x="567" y="622" type="line"/>
      <point x="532" y="717" type="line"/>
      <point x="324" y="637" type="line"/>
    </contour>
    <contour>
      <point x="298" y="536" type="line"/>
      <point x="435" y="359" type="line"/>
      <point x="511" y="424" type="line"/>
      <point x="366" y="592" type="line"/>
    </contour>
    <contour>
      <point x="265" y="590" type="line"/>
      <point x="120" y="422" type="line"/>
      <point x="198" y="357" type="line"/>
      <point x="334" y="533" type="line"/>
    </contour>
    <contour>
      <point x="302" y="633" type="line"/>
      <point x="95" y="713" type="line"/>
      <point x="61" y="619" type="line"/>
      <point x="272" y="550" type="line"/>
    </contour>
  </outline>
</glyph>
<glyph name="comma" format="1">
  <advance width="318"/>
  <unicode hex="002C"/>
  <outline>
    <contour>
      <point x="66" y="-122" type="line"/>
      <point x="164" y="-116"/>
      <point x="236" y="-51"/>
      <point x="236" y="45" type="curve"/>
      <point x="236" y="112"/>
      <point x="202" y="165"/>
      <point x="147" y="165" type="curve"/>
      <point x="104" y="165"/>
      <point x="73" y="143"/>
      <point x="73" y="103" type="curve"/>
      <point x="73" y="62"/>
      <point x="104" y="41"/>
      <point x="149" y="39" type="curve"/>
      <point x="148" y="-2"/>
      <point x="131" y="-42"/>
      <point x="62" y="-56" type="curve"/>
    </contour>
  </outline>
</glyph>
<glyph name="hyphen" format="1">
  <advance width="525"/>
  <unicode hex="002D"/>
  <outline>
    <contour>
      <point x="80" y="230" type="curve"/>
      <point x="201" y="230"/>
      <point x="323" y="230"/>
      <point x="445" y="230" type="curve"/>
      <point x="445" y="333"/>
      <point x="445" y="230"/>
      <point x="445" y="333" type="curve"/>
      <point x="323" y="333"/>
      <point x="201" y="333"/>
      <point x="80" y="333" type="curve"/>
      <point x="80" y="230"/>
      <point x="80" y="333"/>
    </contour>
  </outline>
</glyph>
<glyph name="period" format="1">
  <advance width="295"/>
  <unicode hex="002E"/>
  <outline>
    <contour>
      <point x="223" y="52" type="curve"/>
      <point x="223" y="93"/>
      <point x="190" y="113"/>
      <point x="147" y="113" type="curve"/>
      <point x="103" y="113"/>
      <point x="74" y="91"/>
      <point x="74" y="52" type="curve"/>
      <point x="217" y="52"/>
      <point x="79" y="52"/>
      <point x="223" y="52" type="curve"/>
      <point x="223" y="9"/>
      <point x="190" y="-9"/>
      <point x="146" y="-9" type="curve"/>
      <point x="103" y="-9"/>
      <point x="74" y="12"/>
      <point x="74" y="52" type="curve"/>
      <point x="217" y="52"/>
      <point x="79" y="52"/>
    </contour>
  </outline>
</glyph>
<glyph name="slash" format="1">
  <advance width="724"/>
  <unicode hex="002F"/>
  <outline>
    <contour>
      <point x="158" y="-23" type="curve"/>
      <point x="335" y="249"/>
      <point x="514" y="521"/>
      <point x="692" y="794" type="curve"/>
      <point x="566" y="794"/>
      <point x="692" y="794"/>
      <point x="566" y="794" type="curve"/>
      <point x="388" y="521"/>
      <point x="210" y="249"/>
      <point x="31" y="-23" type="curve"/>
      <point x="158" y="-23"/>
      <point x="31" y="-23"/>
    </contour>
  </outline>
</glyph>
<glyph name="one" format="1">
  <advance width="555"/>
  <unicode hex="0031"/>
  <outline>
    <contour>
      <point x="330" y="0" type="curve"/>
      <point x="390" y="0"/>
      <point x="451" y="0"/>
      <point x="513" y="0" type="curve"/>
      <point x="513" y="93"/>
      <point x="513" y="0"/>
      <point x="513" y="93" type="curve"/>
      <point x="330" y="93"/>
      <point x="513" y="93"/>
      <point x="330" y="93" type="curve"/>
      <point x="330" y="0"/>
      <point x="330" y="93"/>
    </contour>
    <contour>
      <point x="330" y="93" type="curve"/>
      <point x="148" y="93"/>
      <point x="330" y="93"/>
      <point x="148" y="93" type="curve"/>
      <point x="148" y="0"/>
      <point x="148" y="93"/>
      <point x="148" y="0" type="curve"/>
      <point x="208" y="0"/>
      <point x="269" y="0"/>
      <point x="330" y="0" type="curve"/>
      <point x="330" y="93"/>
      <point x="330" y="0"/>
    </contour>
    <contour>
      <point x="82" y="480" type="curve"/>
      <point x="358" y="659"/>
      <point x="82" y="480"/>
      <point x="358" y="659" type="curve"/>
      <point x="264" y="722"/>
      <point x="358" y="659"/>
      <point x="264" y="722" type="curve"/>
      <point x="27" y="565"/>
      <point x="264" y="722"/>
      <point x="27" y="565" type="curve"/>
      <point x="82" y="480"/>
      <point x="27" y="565"/>
    </contour>
    <contour>
      <point x="390" y="0" type="curve"/>
      <point x="390" y="241"/>
      <point x="390" y="481"/>
      <point x="390" y="722" type="curve"/>
      <point x="264" y="722"/>
      <point x="390" y="722"/>
      <point x="264" y="722" type="curve"/>
      <point x="264" y="481"/>
      <point x="264" y="241"/>
      <point x="264" y="0" type="curve"/>
      <point x="390" y="0"/>
      <point x="264" y="0"/>
    </contour>
  </outline>
</glyph>
<glyph name="five" format="1">
  <advance width="680"/>
  <unicode hex="0035"/>
  <outline>
    <contour>
      <point x="96" y="722" type="curve"/>
      <point x="96" y="627"/>
      <point x="96" y="513"/>
      <point x="96" y="378" type="curve"/>
      <point x="216" y="350"/>
      <point x="96" y="378"/>
      <point x="216" y="350" type="curve"/>
      <point x="216" y="438"/>
      <point x="216" y="541"/>
      <point x="216" y="629" type="curve"/>
      <point x="96" y="722"/>
      <point x="216" y="629"/>
    </contour>
    <contour>
      <point x="216" y="350" type="curve"/>
      <point x="242" y="368"/>
      <point x="293" y="377"/>
      <point x="325" y="377" type="curve"/>
      <point x="430" y="377"/>
      <point x="499" y="334"/>
      <point x="499" y="238" type="curve"/>
      <point x="499" y="142"/>
      <point x="409" y="93"/>
      <point x="302" y="93" type="curve"/>
      <point x="234" y="93"/>
      <point x="179" y="102"/>
      <point x="109" y="127" type="curve"/>
      <point x="54" y="43"/>
      <point x="109" y="127"/>
      <point x="54" y="43" type="curve"/>
      <point x="135" y="10"/>
      <point x="208" y="-5"/>
      <point x="296" y="-5" type="curve"/>
      <point x="475" y="-5"/>
      <point x="625" y="76"/>
      <point x="625" y="238" type="curve"/>
      <point x="625" y="394"/>
      <point x="501" y="477"/>
      <point x="331" y="477" type="curve"/>
      <point x="253" y="477"/>
      <point x="156" y="451"/>
      <point x="96" y="381" type="curve"/>
      <point x="216" y="350"/>
      <point x="96" y="381"/>
    </contour>
    <contour>
      <point x="588" y="722" type="curve"/>
      <point x="411" y="722"/>
      <point x="254" y="722"/>
      <point x="96" y="722" type="curve"/>
      <point x="216" y="629"/>
      <point x="96" y="722"/>
      <point x="216" y="629" type="curve"/>
      <point x="335" y="629"/>
      <point x="452" y="629"/>
      <point x="588" y="629" type="curve"/>
      <point x="588" y="722"/>
      <point x="588" y="629"/>
    </contour>
  </outline>
</glyph>
<glyph name="six" format="1">
  <advance width="755"/>
  <unicode hex="0036"/>
  <outline>
    <contour>
      <point x="161" y="224" type="curve"/>
      <point x="212" y="313"/>
      <point x="291" y="344"/>
      <point x="396" y="344" type="curve"/>
      <point x="495" y="344"/>
      <point x="569" y="313"/>
      <point x="569" y="221" type="curve"/>
      <point x="569" y="131"/>
      <point x="493" y="100"/>
      <point x="397" y="100" type="curve"/>
      <point x="272" y="100"/>
      <point x="179" y="146"/>
      <point x="179" y="256" type="curve"/>
      <point x="179" y="505"/>
      <point x="409" y="577"/>
      <point x="671" y="636" type="curve"/>
      <point x="644" y="729"/>
      <point x="671" y="636"/>
      <point x="644" y="729" type="curve"/>
      <point x="347" y="671"/>
      <point x="59" y="561"/>
      <point x="59" y="252" type="curve"/>
      <point x="59" y="73"/>
      <point x="198" y="-10"/>
      <point x="391" y="-10" type="curve"/>
      <point x="566" y="-10"/>
      <point x="695" y="61"/>
      <point x="695" y="221" type="curve"/>
      <point x="695" y="378"/>
      <point x="571" y="443"/>
      <point x="406" y="443" type="curve"/>
      <point x="259" y="443"/>
      <point x="148" y="369"/>
      <point x="77" y="269" type="curve"/>
      <point x="161" y="224"/>
      <point x="77" y="269"/>
    </contour>
  </outline>
</glyph>
<glyph name="seven" format="1">
  <advance width="684"/>
  <unicode hex="0037"/>
  <outline>
    <contour>
      <point x="153" y="512" type="line"/>
      <point x="153" y="629" type="line"/>
      <point x="56" y="629" type="line"/>
      <point x="56" y="512" type="line"/>
    </contour>
    <contour>
      <point x="56" y="629" type="line"/>
      <point x="662" y="629" type="line"/>
      <point x="662" y="722" type="line"/>
      <point x="56" y="722" type="line"/>
    </contour>
    <contour>
      <point x="586" y="722" type="line"/>
      <point x="92" y="0" type="line"/>
      <point x="237" y="0" type="line"/>
      <point x="662" y="629" type="line"/>
    </contour>
  </outline>
</glyph>
<glyph name="nine" format="1">
  <advance width="757"/>
  <unicode hex="0039"/>
  <outline>
    <contour>
      <point x="595" y="496" type="curve"/>
      <point x="544" y="408"/>
      <point x="474" y="378"/>
      <point x="371" y="378" type="curve"/>
      <point x="266" y="378"/>
      <point x="186" y="410"/>
      <point x="186" y="506" type="curve"/>
      <point x="186" y="593"/>
      <point x="262" y="622"/>
      <point x="359" y="622" type="curve"/>
      <point x="483" y="622"/>
      <point x="576" y="579"/>
      <point x="576" y="466" type="curve"/>
      <point x="576" y="219"/>
      <point x="355" y="144"/>
      <point x="86" y="90" type="curve"/>
      <point x="114" y="-8"/>
      <point x="85" y="90"/>
      <point x="114" y="-8" type="curve"/>
      <point x="432" y="41"/>
      <point x="697" y="161"/>
      <point x="697" y="470" type="curve"/>
      <point x="697" y="649"/>
      <point x="557" y="732"/>
      <point x="364" y="732" type="curve"/>
      <point x="189" y="732"/>
      <point x="61" y="661"/>
      <point x="61" y="501" type="curve"/>
      <point x="61" y="344"/>
      <point x="189" y="279"/>
      <point x="360" y="279" type="curve"/>
      <point x="506" y="279"/>
      <point x="598" y="338"/>
      <point x="656" y="464" type="curve"/>
      <point x="595" y="496"/>
      <point x="656" y="464"/>
    </contour>
  </outline>
</glyph>
<glyph name="colon" format="1">
  <advance width="310"/>
  <unicode hex="003A"/>
  <outline>
    <contour>
      <point x="229" y="388" type="curve"/>
      <point x="229" y="430"/>
      <point x="197" y="450"/>
      <point x="154" y="450" type="curve"/>
      <point x="110" y="450"/>
      <point x="80" y="427"/>
      <point x="80" y="388" type="curve"/>
      <point x="224" y="388"/>
      <point x="86" y="388"/>
      <point x="229" y="388" type="curve"/>
      <point x="229" y="346"/>
      <point x="197" y="327"/>
      <point x="153" y="327" type="curve"/>
      <point x="110" y="327"/>
      <point x="80" y="348"/>
      <point x="80" y="388" type="curve"/>
      <point x="224" y="388"/>
      <point x="86" y="388"/>
    </contour>
    <contour>
      <point x="229" y="52" type="curve"/>
      <point x="229" y="94"/>
      <point x="196" y="114"/>
      <point x="153" y="114" type="curve"/>
      <point x="110" y="114"/>
      <point x="80" y="92"/>
      <point x="80" y="52" type="curve"/>
      <point x="223" y="52"/>
      <point x="85" y="52"/>
      <point x="229" y="52" type="curve"/>
      <point x="229" y="10"/>
      <point x="196" y="-9"/>
      <point x="153" y="-9" type="curve"/>
      <point x="109" y="-9"/>
      <point x="80" y="12"/>
      <point x="80" y="52" type="curve"/>
      <point x="223" y="52"/>
      <point x="85" y="52"/>
    </contour>
  </outline>
</glyph>
<glyph name="semicolon" format="1">
  <advance width="331"/>
  <unicode hex="003B"/>
  <outline>
    <contour>
      <point x="82" y="-151" type="line"/>
      <point x="182" y="-145"/>
      <point x="253" y="-81"/>
      <point x="253" y="16" type="curve"/>
      <point x="253" y="83"/>
      <point x="219" y="135"/>
      <point x="163" y="135" type="curve"/>
      <point x="121" y="135"/>
      <point x="90" y="114"/>
      <point x="90" y="73" type="curve"/>
      <point x="90" y="33"/>
      <point x="121" y="11"/>
      <point x="166" y="10" type="curve"/>
      <point x="164" y="-31"/>
      <point x="148" y="-72"/>
      <point x="78" y="-85" type="curve"/>
    </contour>
    <contour>
      <point x="234" y="388" type="curve"/>
      <point x="234" y="430"/>
      <point x="202" y="450"/>
      <point x="158" y="450" type="curve"/>
      <point x="114" y="450"/>
      <point x="85" y="428"/>
      <point x="85" y="388" type="curve"/>
      <point x="229" y="388"/>
      <point x="90" y="388"/>
      <point x="234" y="388" type="curve"/>
      <point x="234" y="346"/>
      <point x="202" y="328"/>
      <point x="157" y="328" type="curve"/>
      <point x="114" y="328"/>
      <point x="85" y="347"/>
      <point x="85" y="388" type="curve"/>
      <point x="229" y="388"/>
      <point x="90" y="388"/>
    </contour>
  </outline>
</glyph>
<glyph name="less" format="1">
  <advance width="888"/>
  <unicode hex="003C"/>
  <outline>
    <contour>
      <point x="807" y="621" type="curve"/>
      <point x="552" y="531"/>
      <point x="297" y="441"/>
      <point x="42" y="351" type="curve"/>
      <point x="42" y="249"/>
      <point x="42" y="351"/>
      <point x="42" y="249" type="curve"/>
      <point x="297" y="339"/>
      <point x="552" y="429"/>
      <point x="807" y="519" type="curve"/>
      <point x="807" y="621"/>
      <point x="807" y="519"/>
    </contour>
    <contour>
      <point x="819" y="87" type="curve"/>
      <point x="560" y="175"/>
      <point x="302" y="263"/>
      <point x="42" y="351" type="curve"/>
      <point x="42" y="249"/>
      <point x="42" y="351"/>
      <point x="42" y="249" type="curve"/>
      <point x="302" y="161"/>
      <point x="560" y="73"/>
      <point x="819" y="-15" type="curve"/>
      <point x="819" y="87"/>
      <point x="819" y="-15"/>
    </contour>
  </outline>
</glyph>
<glyph name="equal" format="1">
  <advance width="959"/>
  <unicode hex="003D"/>
  <outline>
    <contour>
      <point x="84" y="168" type="curve"/>
      <point x="348" y="168"/>
      <point x="611" y="168"/>
      <point x="874" y="168" type="curve"/>
      <point x="874" y="267"/>
      <point x="874" y="168"/>
      <point x="874" y="267" type="curve"/>
      <point x="611" y="267"/>
      <point x="348" y="267"/>
      <point x="84" y="267" type="curve"/>
      <point x="84" y="168"/>
      <point x="84" y="267"/>
    </contour>
    <contour>
      <point x="84" y="390" type="curve"/>
      <point x="348" y="390"/>
      <point x="611" y="390"/>
      <point x="874" y="390" type="curve"/>
      <point x="874" y="489"/>
      <point x="874" y="390"/>
      <point x="874" y="489" type="curve"/>
      <point x="611" y="489"/>
      <point x="348" y="489"/>
      <point x="84" y="489" type="curve"/>
      <point x="84" y="390"/>
      <point x="84" y="489"/>
    </contour>
  </outline>
</glyph>
<glyph name="question" format="1">
  <advance width="634"/>
  <unicode hex="003F"/>
  <outline>
    <contour>
      <point x="215" y="372" type="curve"/>
      <point x="215" y="335"/>
      <point x="215" y="258"/>
      <point x="215" y="221" type="curve"/>
      <point x="340" y="221"/>
      <point x="215" y="221"/>
      <point x="340" y="221" type="curve"/>
      <point x="340" y="258"/>
      <point x="340" y="335"/>
      <point x="340" y="372" type="curve"/>
      <point x="215" y="372"/>
      <point x="340" y="372"/>
    </contour>
    <contour>
      <point x="109" y="578" type="line"/>
      <point x="149" y="616"/>
      <point x="214" y="649"/>
      <point x="286" y="649" type="curve"/>
      <point x="383" y="649"/>
      <point x="460" y="609"/>
      <point x="460" y="519" type="curve"/>
      <point x="460" y="417"/>
      <point x="358" y="372"/>
      <point x="229" y="372" type="curve"/>
      <point x="229" y="337"/>
      <point x="229" y="313"/>
      <point x="229" y="278" type="curve"/>
      <point x="426" y="278"/>
      <point x="579" y="357"/>
      <point x="579" y="519" type="curve"/>
      <point x="579" y="671"/>
      <point x="455" y="746"/>
      <point x="293" y="746" type="curve"/>
      <point x="192" y="746"/>
      <point x="113" y="713"/>
      <point x="44" y="649" type="curve"/>
    </contour>
    <contour>
      <point x="353" y="19" type="curve"/>
      <point x="353" y="61"/>
      <point x="321" y="80"/>
      <point x="278" y="80" type="curve"/>
      <point x="235" y="80"/>
      <point x="206" y="58"/>
      <point x="206" y="19" type="curve"/>
      <point x="353" y="19"/>
      <point x="206" y="19"/>
      <point x="353" y="19" type="curve"/>
      <point x="353" y="-22"/>
      <point x="321" y="-40"/>
      <point x="278" y="-40" type="curve"/>
      <point x="235" y="-40"/>
      <point x="206" y="-20"/>
      <point x="206" y="19" type="curve"/>
      <point x="353" y="19"/>
      <point x="206" y="19"/>
    </contour>
  </outline>
</glyph>
<glyph name="at" format="1">
  <advance width="1058"/>
  <unicode hex="0040"/>
  <outline>
    <contour>
      <point x="729" y="-14" type="curve"/>
      <point x="662" y="-38"/>
      <point x="614" y="-47"/>
      <point x="547" y="-47" type="curve"/>
      <point x="333" y="-47"/>
      <point x="176" y="24"/>
      <point x="176" y="215" type="curve"/>
      <point x="176" y="402"/>
      <point x="332" y="467"/>
      <point x="539" y="467" type="curve"/>
      <point x="735" y="467"/>
      <point x="879" y="394"/>
      <point x="879" y="217" type="curve"/>
      <point x="879" y="161"/>
      <point x="868" y="117"/>
      <point x="822" y="117" type="curve"/>
      <point x="772" y="117"/>
      <point x="753" y="161"/>
      <point x="753" y="220" type="curve"/>
      <point x="753" y="346"/>
      <point x="661" y="410"/>
      <point x="528" y="410" type="curve"/>
      <point x="381" y="410"/>
      <point x="280" y="351"/>
      <point x="280" y="217" type="curve"/>
      <point x="280" y="84"/>
      <point x="373" y="16"/>
      <point x="513" y="16" type="curve"/>
      <point x="635" y="16"/>
      <point x="708" y="82"/>
      <point x="734" y="201" type="curve"/>
      <point x="655" y="221"/>
      <point x="734" y="201"/>
      <point x="655" y="221" type="curve"/>
      <point x="633" y="152"/>
      <point x="599" y="109"/>
      <point x="530" y="109" type="curve"/>
      <point x="452" y="109"/>
      <point x="400" y="147"/>
      <point x="400" y="221" type="curve"/>
      <point x="400" y="287"/>
      <point x="448" y="316"/>
      <point x="517" y="316" type="curve"/>
      <point x="590" y="316"/>
      <point x="638" y="284"/>
      <point x="638" y="215" type="curve"/>
      <point x="638" y="101"/>
      <point x="699" y="29"/>
      <point x="812" y="29" type="curve"/>
      <point x="930" y="29"/>
      <point x="998" y="102"/>
      <point x="998" y="221" type="curve"/>
      <point x="998" y="463"/>
      <point x="808" y="564"/>
      <point x="546" y="564" type="curve"/>
      <point x="263" y="564"/>
      <point x="57" y="467"/>
      <point x="57" y="210" type="curve"/>
      <point x="57" y="-42"/>
      <point x="260" y="-140"/>
      <point x="540" y="-140" type="curve"/>
      <point x="632" y="-140"/>
      <point x="704" y="-122"/>
      <point x="771" y="-93" type="curve"/>
      <point x="729" y="-14"/>
      <point x="771" y="-93"/>
    </contour>
  </outline>
</glyph>
<glyph name="D" format="1">
  <advance width="985"/>
  <unicode hex="0044"/>
  <outline>
    <contour>
      <point x="456" y="791" type="move" name="top"/>
    </contour>
    <contour>
      <point x="231" y="93" type="curve"/>
      <point x="68" y="93"/>
      <point x="231" y="93"/>
      <point x="69" y="93" type="curve"/>
      <point x="69" y="0"/>
      <point x="69" y="93"/>
      <point x="69" y="0" type="curve"/>
      <point x="123" y="0"/>
      <point x="177" y="0"/>
      <point x="231" y="0" type="curve"/>
      <point x="231" y="93"/>
      <point x="231" y="0"/>
    </contour>
    <contour>
      <point x="231" y="722" type="curve"/>
      <point x="177" y="722"/>
      <point x="123" y="722"/>
      <point x="69" y="722" type="curve"/>
      <point x="69" y="629"/>
      <point x="69" y="722"/>
      <point x="69" y="629" type="curve"/>
      <point x="231" y="629"/>
      <point x="68" y="629"/>
      <point x="231" y="629" type="curve"/>
      <point x="231" y="722"/>
      <point x="231" y="629"/>
    </contour>
    <contour>
      <point x="165" y="722" type="curve"/>
      <point x="165" y="481"/>
      <point x="165" y="241"/>
      <point x="165" y="0" type="curve"/>
      <point x="291" y="0"/>
      <point x="165" y="0"/>
      <point x="291" y="0" type="curve"/>
      <point x="291" y="241"/>
      <point x="291" y="481"/>
      <point x="291" y="722" type="curve"/>
      <point x="165" y="722"/>
      <point x="291" y="722"/>
    </contour>
    <contour>
      <point x="231" y="0" type="curve"/>
      <point x="312" y="0"/>
      <point x="394" y="0"/>
      <point x="477" y="0" type="curve"/>
      <point x="750" y="0"/>
      <point x="924" y="100"/>
      <point x="924" y="353" type="curve"/>
      <point x="924" y="616"/>
      <point x="747" y="722"/>
      <point x="467" y="722" type="curve"/>
      <point x="388" y="722"/>
      <point x="309" y="722"/>
      <point x="231" y="722" type="curve"/>
      <point x="231" y="629"/>
      <point x="231" y="722"/>
      <point x="231" y="629" type="curve"/>
      <point x="307" y="629"/>
      <point x="384" y="629"/>
      <point x="461" y="629" type="curve"/>
      <point x="670" y="629"/>
      <point x="800" y="546"/>
      <point x="800" y="349" type="curve"/>
      <point x="800" y="169"/>
      <point x="680" y="93"/>
      <point x="487" y="93" type="curve"/>
      <point x="401" y="93"/>
      <point x="316" y="93"/>
      <point x="231" y="93" type="curve"/>
      <point x="231" y="0"/>
      <point x="231" y="93"/>
    </contour>
  </outline>
</glyph>
<glyph name="F" format="1">
  <advance width="764"/>
  <unicode hex="0046"/>
  <outline>
    <contour>
      <point x="229" y="0" type="curve"/>
      <point x="283" y="0"/>
      <point x="229" y="0"/>
      <point x="391" y="0" type="curve"/>
      <point x="391" y="93"/>
      <point x="391" y="0"/>
      <point x="391" y="93" type="curve"/>
      <point x="229" y="93"/>
      <point x="391" y="93"/>
      <point x="229" y="93" type="curve"/>
      <point x="229" y="0"/>
      <point x="229" y="93"/>
    </contour>
    <contour>
      <point x="229" y="722" type="curve"/>
      <point x="176" y="722"/>
      <point x="122" y="722"/>
      <point x="68" y="722" type="curve"/>
      <point x="68" y="629"/>
      <point x="68" y="722"/>
      <point x="68" y="629" type="curve"/>
      <point x="230" y="629"/>
      <point x="67" y="629"/>
      <point x="229" y="629" type="curve"/>
      <point x="229" y="722"/>
      <point x="229" y="629"/>
    </contour>
    <contour>
      <point x="229" y="93" type="curve"/>
      <point x="67" y="93"/>
      <point x="230" y="93"/>
      <point x="68" y="93" type="curve"/>
      <point x="68" y="0"/>
      <point x="68" y="93"/>
      <point x="68" y="0" type="curve"/>
      <point x="122" y="0"/>
      <point x="176" y="0"/>
      <point x="229" y="0" type="curve"/>
      <point x="229" y="93"/>
      <point x="229" y="0"/>
    </contour>
    <contour>
      <point x="632" y="675" type="curve"/>
      <point x="632" y="555"/>
      <point x="632" y="676"/>
      <point x="632" y="556" type="curve"/>
      <point x="730" y="556"/>
      <point x="632" y="556"/>
      <point x="730" y="556" type="curve"/>
      <point x="730" y="676"/>
      <point x="730" y="555"/>
      <point x="730" y="675" type="curve"/>
      <point x="632" y="675"/>
      <point x="730" y="675"/>
    </contour>
    <contour>
      <point x="235" y="326" type="curve"/>
      <point x="369" y="326"/>
      <point x="504" y="326"/>
      <point x="638" y="326" type="curve"/>
      <point x="638" y="420"/>
      <point x="638" y="326"/>
      <point x="638" y="420" type="curve"/>
      <point x="504" y="420"/>
      <point x="369" y="420"/>
      <point x="235" y="420" type="curve"/>
      <point x="235" y="326"/>
      <point x="235" y="420"/>
    </contour>
    <contour>
      <point x="293" y="0" type="curve"/>
      <point x="293" y="722" type="line"/>
      <point x="167" y="722"/>
      <point x="293" y="722"/>
      <point x="167" y="722" type="curve"/>
      <point x="167" y="481"/>
      <point x="167" y="241"/>
      <point x="167" y="0" type="curve"/>
      <point x="293" y="0"/>
      <point x="167" y="0"/>
    </contour>
    <contour>
      <point x="215" y="629" type="curve"/>
      <point x="387" y="629"/>
      <point x="558" y="629"/>
      <point x="730" y="629" type="curve"/>
      <point x="730" y="722"/>
      <point x="730" y="629"/>
      <point x="730" y="722" type="curve"/>
      <point x="558" y="722"/>
      <point x="387" y="722"/>
      <point x="215" y="722" type="curve"/>
      <point x="215" y="629"/>
      <point x="215" y="722"/>
    </contour>
  </outline>
</glyph>
<glyph name="G" format="1">
  <advance width="986"/>
  <unicode hex="0047"/>
  <outline>
    <contour>
      <point x="522" y="791" type="move" name="top"/>
    </contour>
    <contour>
      <point x="575" y="10" type="move" name="bottom"/>
    </contour>
    <contour>
      <point x="795" y="645" type="curve"/>
      <point x="795" y="524"/>
      <point x="795" y="618"/>
      <point x="795" y="497" type="curve"/>
      <point x="892" y="497"/>
      <point x="795" y="497"/>
      <point x="892" y="497" type="curve"/>
      <point x="892" y="618"/>
      <point x="892" y="524"/>
      <point x="892" y="645" type="curve"/>
      <point x="795" y="645"/>
      <point x="892" y="645"/>
    </contour>
    <contour>
      <point x="879" y="361" type="curve"/>
      <point x="787" y="361"/>
      <point x="694" y="361"/>
      <point x="603" y="361" type="curve"/>
      <point x="603" y="267"/>
      <point x="603" y="361"/>
      <point x="603" y="267" type="curve"/>
      <point x="694" y="267"/>
      <point x="787" y="267"/>
      <point x="879" y="267" type="curve"/>
      <point x="879" y="361"/>
      <point x="879" y="267"/>
    </contour>
    <contour>
      <point x="913" y="79" type="curve"/>
      <point x="913" y="172"/>
      <point x="913" y="266"/>
      <point x="913" y="361" type="curve"/>
      <point x="799" y="361"/>
      <point x="913" y="361"/>
      <point x="799" y="361" type="curve"/>
      <point x="799" y="266"/>
      <point x="799" y="172"/>
      <point x="799" y="79" type="curve"/>
      <point x="913" y="79"/>
      <point x="799" y="79"/>
    </contour>
    <contour>
      <point x="892" y="645" type="curve"/>
      <point x="767" y="704"/>
      <point x="658" y="727"/>
      <point x="521" y="727" type="curve"/>
      <point x="250" y="727"/>
      <point x="60" y="615"/>
      <point x="60" y="360" type="curve"/>
      <point x="60" y="103"/>
      <point x="258" y="-5"/>
      <point x="535" y="-5" type="curve"/>
      <point x="682" y="-5"/>
      <point x="777" y="22"/>
      <point x="913" y="79" type="curve"/>
      <point x="850" y="148"/>
      <point x="913" y="79"/>
      <point x="850" y="148" type="curve"/>
      <point x="740" y="103"/>
      <point x="656" y="93"/>
      <point x="535" y="93" type="curve"/>
      <point x="330" y="93"/>
      <point x="187" y="177"/>
      <point x="187" y="370" type="curve"/>
      <point x="187" y="552"/>
      <point x="325" y="630"/>
      <point x="521" y="630" type="curve"/>
      <point x="635" y="630"/>
      <point x="725" y="613"/>
      <point x="829" y="566" type="curve"/>
      <point x="892" y="645"/>
      <point x="829" y="566"/>
    </contour>
  </outline>
</glyph>
<glyph name="H" format="1">
  <advance width="1048"/>
  <unicode hex="0048"/>
  <outline>
    <contour>
      <point x="841" y="629" type="curve"/>
      <point x="1024" y="629"/>
      <point x="820" y="629"/>
      <point x="1003" y="629" type="curve"/>
      <point x="1003" y="722"/>
      <point x="1003" y="629"/>
      <point x="1003" y="722" type="curve"/>
      <point x="942" y="722"/>
      <point x="902" y="722"/>
      <point x="841" y="722" type="curve"/>
      <point x="841" y="629"/>
      <point x="841" y="722"/>
    </contour>
    <contour>
      <point x="841" y="0" type="curve"/>
      <point x="902" y="0"/>
      <point x="942" y="0"/>
      <point x="1003" y="0" type="curve"/>
      <point x="1003" y="93"/>
      <point x="1003" y="0"/>
      <point x="1003" y="93" type="curve"/>
      <point x="820" y="93"/>
      <point x="1024" y="93"/>
      <point x="841" y="93" type="curve"/>
      <point x="841" y="0"/>
      <point x="841" y="93"/>
    </contour>
    <contour>
      <point x="841" y="93" type="curve"/>
      <point x="658" y="93"/>
      <point x="862" y="93"/>
      <point x="679" y="93" type="curve"/>
      <point x="679" y="0"/>
      <point x="679" y="93"/>
      <point x="679" y="0" type="curve"/>
      <point x="740" y="0"/>
      <point x="780" y="0"/>
      <point x="841" y="0" type="curve"/>
      <point x="841" y="93"/>
      <point x="841" y="0"/>
    </contour>
    <contour>
      <point x="841" y="722" type="curve"/>
      <point x="780" y="722"/>
      <point x="740" y="722"/>
      <point x="679" y="722" type="curve"/>
      <point x="679" y="629"/>
      <point x="679" y="722"/>
      <point x="679" y="629" type="curve"/>
      <point x="862" y="629"/>
      <point x="658" y="629"/>
      <point x="841" y="629" type="curve"/>
      <point x="841" y="722"/>
      <point x="841" y="629"/>
    </contour>
    <contour>
      <point x="207" y="629" type="curve"/>
      <point x="390" y="629"/>
      <point x="186" y="629"/>
      <point x="369" y="629" type="curve"/>
      <point x="369" y="722"/>
      <point x="369" y="629"/>
      <point x="369" y="722" type="curve"/>
      <point x="309" y="722"/>
      <point x="268" y="722"/>
      <point x="207" y="722" type="curve"/>
      <point x="207" y="629"/>
      <point x="207" y="722"/>
    </contour>
    <contour>
      <point x="207" y="722" type="curve"/>
      <point x="146" y="722"/>
      <point x="106" y="722"/>
      <point x="45" y="722" type="curve"/>
      <point x="45" y="629"/>
      <point x="45" y="722"/>
      <point x="45" y="629" type="curve"/>
      <point x="227" y="629"/>
      <point x="24" y="629"/>
      <point x="207" y="629" type="curve"/>
      <point x="207" y="722"/>
      <point x="207" y="629"/>
    </contour>
    <contour>
      <point x="207" y="0" type="curve"/>
      <point x="268" y="0"/>
      <point x="186" y="0"/>
      <point x="369" y="0" type="curve"/>
      <point x="369" y="93"/>
      <point x="369" y="0"/>
      <point x="369" y="93" type="curve"/>
      <point x="186" y="93"/>
      <point x="390" y="93"/>
      <point x="207" y="93" type="curve"/>
      <point x="207" y="0"/>
      <point x="207" y="93"/>
    </contour>
    <contour>
      <point x="207" y="93" type="curve"/>
      <point x="24" y="93"/>
      <point x="227" y="93"/>
      <point x="45" y="93" type="curve"/>
      <point x="45" y="0"/>
      <point x="45" y="93"/>
      <point x="45" y="0" type="curve"/>
      <point x="106" y="0"/>
      <point x="146" y="0"/>
      <point x="207" y="0" type="curve"/>
      <point x="207" y="93"/>
      <point x="207" y="0"/>
    </contour>
    <contour>
      <point x="271" y="0" type="curve"/>
      <point x="271" y="722" type="line"/>
      <point x="144" y="722"/>
      <point x="271" y="722"/>
      <point x="144" y="722" type="curve"/>
      <point x="144" y="481"/>
      <point x="144" y="241"/>
      <point x="144" y="0" type="curve"/>
      <point x="271" y="0"/>
      <point x="144" y="0"/>
    </contour>
    <contour>
      <point x="837" y="410" type="curve"/>
      <point x="627" y="410"/>
      <point x="417" y="410"/>
      <point x="207" y="410" type="curve"/>
      <point x="207" y="316"/>
      <point x="207" y="410"/>
      <point x="207" y="316" type="curve"/>
      <point x="417" y="316"/>
      <point x="627" y="316"/>
      <point x="837" y="316" type="curve"/>
      <point x="837" y="410"/>
      <point x="837" y="316"/>
    </contour>
    <contour>
      <point x="903" y="38" type="curve"/>
      <point x="903" y="253"/>
      <point x="903" y="469"/>
      <point x="903" y="684" type="curve"/>
      <point x="778" y="684"/>
      <point x="903" y="684"/>
      <point x="778" y="684" type="curve"/>
      <point x="778" y="38" type="line"/>
      <point x="903" y="38"/>
      <point x="778" y="38"/>
    </contour>
  </outline>
</glyph>
<glyph name="I" format="1">
  <advance width="415"/>
  <unicode hex="0049"/>
  <outline>
    <contour>
      <point x="207" y="791" type="move" name="top"/>
    </contour>
    <contour>
      <point x="269" y="1" type="move" name="bottom"/>
    </contour>
    <contour>
      <point x="208" y="722" type="curve"/>
      <point x="147" y="722"/>
      <point x="107" y="722"/>
      <point x="47" y="722" type="curve"/>
      <point x="47" y="629"/>
      <point x="47" y="722"/>
      <point x="47" y="629" type="curve"/>
      <point x="229" y="629"/>
      <point x="26" y="629"/>
      <point x="208" y="629" type="curve"/>
      <point x="208" y="722"/>
      <point x="208" y="629"/>
    </contour>
    <contour>
      <point x="208" y="629" type="curve"/>
      <point x="391" y="629"/>
      <point x="187" y="629"/>
      <point x="371" y="629" type="curve"/>
      <point x="371" y="722"/>
      <point x="371" y="629"/>
      <point x="371" y="722" type="curve"/>
      <point x="309" y="722"/>
      <point x="269" y="722"/>
      <point x="208" y="722" type="curve"/>
      <point x="208" y="629"/>
      <point x="208" y="722"/>
    </contour>
    <contour>
      <point x="208" y="0" type="curve"/>
      <point x="269" y="0"/>
      <point x="309" y="0"/>
      <point x="371" y="0" type="curve"/>
      <point x="371" y="93"/>
      <point x="371" y="0"/>
      <point x="371" y="93" type="curve"/>
      <point x="187" y="93"/>
      <point x="391" y="93"/>
      <point x="208" y="93" type="curve"/>
      <point x="208" y="0"/>
      <point x="208" y="93"/>
    </contour>
    <contour>
      <point x="208" y="93" type="curve"/>
      <point x="26" y="93"/>
      <point x="229" y="93"/>
      <point x="47" y="93" type="curve"/>
      <point x="47" y="0"/>
      <point x="47" y="93"/>
      <point x="47" y="0" type="curve"/>
      <point x="107" y="0"/>
      <point x="147" y="0"/>
      <point x="208" y="0" type="curve"/>
      <point x="208" y="93"/>
      <point x="208" y="0"/>
    </contour>
    <contour>
      <point x="270" y="0" type="curve"/>
      <point x="270" y="241"/>
      <point x="270" y="481"/>
      <point x="270" y="722" type="curve"/>
      <point x="143" y="722"/>
      <point x="270" y="722"/>
      <point x="143" y="722" type="curve"/>
      <point x="143" y="481"/>
      <point x="143" y="241"/>
      <point x="143" y="0" type="curve"/>
      <point x="270" y="0"/>
      <point x="143" y="0"/>
    </contour>
  </outline>
</glyph>
<glyph name="J" format="1">
  <advance width="576"/>
  <unicode hex="004A"/>
  <outline>
    <contour>
      <point x="392" y="722" type="curve"/>
      <point x="332" y="722"/>
      <point x="292" y="722"/>
      <point x="232" y="722" type="curve"/>
      <point x="232" y="629"/>
      <point x="232" y="722"/>
      <point x="232" y="629" type="curve"/>
      <point x="413" y="629"/>
      <point x="211" y="629"/>
      <point x="392" y="629" type="curve"/>
      <point x="392" y="722"/>
      <point x="392" y="629"/>
    </contour>
    <contour>
      <point x="392" y="629" type="curve"/>
      <point x="570" y="629"/>
      <point x="371" y="629"/>
      <point x="549" y="629" type="curve"/>
      <point x="549" y="722"/>
      <point x="549" y="629"/>
      <point x="549" y="722" type="curve"/>
      <point x="490" y="722"/>
      <point x="451" y="722"/>
      <point x="392" y="722" type="curve"/>
      <point x="392" y="629"/>
      <point x="392" y="722"/>
    </contour>
    <contour>
      <point x="4" y="45" type="curve"/>
      <point x="45" y="22"/>
      <point x="104" y="-4"/>
      <point x="174" y="-4" type="curve"/>
      <point x="344" y="-4"/>
      <point x="453" y="74"/>
      <point x="453" y="240" type="curve"/>
      <point x="453" y="400"/>
      <point x="453" y="562"/>
      <point x="453" y="722" type="curve"/>
      <point x="328" y="722"/>
      <point x="453" y="722"/>
      <point x="328" y="722" type="curve"/>
      <point x="328" y="562"/>
      <point x="328" y="400"/>
      <point x="328" y="240" type="curve"/>
      <point x="328" y="144"/>
      <point x="271" y="89"/>
      <point x="174" y="89" type="curve"/>
      <point x="130" y="89"/>
      <point x="99" y="102"/>
      <point x="61" y="119" type="curve"/>
      <point x="5" y="45"/>
      <point x="61" y="118"/>
    </contour>
  </outline>
</glyph>
<glyph name="K" format="1">
  <advance width="886"/>
  <unicode hex="004B"/>
  <outline>
    <contour>
      <point x="498" y="2" type="move" name="bottom"/>
    </contour>
    <contour>
      <point x="709" y="722" type="curve"/>
      <point x="647" y="722"/>
      <point x="517" y="722"/>
      <point x="453" y="722" type="curve"/>
      <point x="453" y="629"/>
      <point x="453" y="722"/>
      <point x="453" y="629" type="curve"/>
      <point x="641" y="629"/>
      <point x="522" y="629"/>
      <point x="709" y="629" type="curve"/>
      <point x="709" y="722"/>
      <point x="709" y="629"/>
    </contour>
    <contour>
      <point x="723" y="0" type="curve"/>
      <point x="784" y="0"/>
      <point x="801" y="0"/>
      <point x="863" y="0" type="curve"/>
      <point x="863" y="93"/>
      <point x="863" y="0"/>
      <point x="863" y="93" type="curve"/>
      <point x="678" y="93"/>
      <point x="908" y="93"/>
      <point x="723" y="93" type="curve"/>
      <point x="723" y="0"/>
      <point x="723" y="93"/>
    </contour>
    <contour>
      <point x="707" y="629" type="curve"/>
      <point x="882" y="629"/>
      <point x="645" y="629"/>
      <point x="820" y="629" type="curve"/>
      <point x="820" y="722"/>
      <point x="820" y="629"/>
      <point x="820" y="722" type="curve"/>
      <point x="761" y="722"/>
      <point x="765" y="722"/>
      <point x="707" y="722" type="curve"/>
      <point x="707" y="629"/>
      <point x="707" y="722"/>
    </contour>
    <contour>
      <point x="207" y="722" type="curve"/>
      <point x="145" y="722"/>
      <point x="106" y="722"/>
      <point x="45" y="722" type="curve"/>
      <point x="45" y="629"/>
      <point x="45" y="722"/>
      <point x="45" y="629" type="curve"/>
      <point x="227" y="629"/>
      <point x="24" y="629"/>
      <point x="207" y="629" type="curve"/>
      <point x="207" y="722"/>
      <point x="207" y="629"/>
    </contour>
    <contour>
      <point x="207" y="629" type="curve"/>
      <point x="373" y="629"/>
      <point x="191" y="629"/>
      <point x="358" y="629" type="curve"/>
      <point x="358" y="722"/>
      <point x="358" y="629"/>
      <point x="358" y="722" type="curve"/>
      <point x="302" y="722"/>
      <point x="263" y="722"/>
      <point x="207" y="722" type="curve"/>
      <point x="207" y="629"/>
      <point x="207" y="722"/>
    </contour>
    <contour>
      <point x="207" y="0" type="curve"/>
      <point x="269" y="0"/>
      <point x="182" y="0"/>
      <point x="366" y="0" type="curve"/>
      <point x="366" y="93"/>
      <point x="366" y="0"/>
      <point x="366" y="93" type="curve"/>
      <point x="182" y="93"/>
      <point x="391" y="93"/>
      <point x="207" y="93" type="curve"/>
      <point x="207" y="0"/>
      <point x="207" y="93"/>
    </contour>
    <contour>
      <point x="207" y="93" type="curve"/>
      <point x="24" y="93"/>
      <point x="227" y="93"/>
      <point x="45" y="93" type="curve"/>
      <point x="45" y="0"/>
      <point x="45" y="93"/>
      <point x="45" y="0" type="curve"/>
      <point x="106" y="0"/>
      <point x="145" y="0"/>
      <point x="207" y="0" type="curve"/>
      <point x="207" y="93"/>
      <point x="207" y="0"/>
    </contour>
    <contour>
      <point x="656" y="722" type="curve"/>
      <point x="227" y="380" type="line"/>
      <point x="387" y="380"/>
      <point x="224" y="380"/>
      <point x="385" y="380" type="curve"/>
      <point x="775" y="684" type="line"/>
      <point x="595" y="684"/>
      <point x="836" y="722"/>
    </contour>
    <contour>
      <point x="269" y="0" type="curve"/>
      <point x="269" y="722" type="line"/>
      <point x="144" y="722"/>
      <point x="269" y="722"/>
      <point x="144" y="722" type="curve"/>
      <point x="144" y="481"/>
      <point x="144" y="241"/>
      <point x="144" y="0" type="curve"/>
      <point x="269" y="0"/>
      <point x="144" y="0"/>
    </contour>
    <contour>
      <point x="811" y="40" type="curve"/>
      <point x="385" y="380" type="line"/>
      <point x="224" y="380"/>
      <point x="387" y="380"/>
      <point x="227" y="380" type="curve"/>
      <point x="683" y="0" type="line"/>
      <point x="870" y="0"/>
      <point x="624" y="40"/>
    </contour>
  </outline>
</glyph>
<glyph name="L" format="1">
  <advance width="761"/>
  <unicode hex="004C"/>
  <outline>
    <contour>
      <point x="208" y="791" type="move" name="top"/>
    </contour>
    <contour>
      <point x="434" y="5" type="move" name="bottom"/>
    </contour>
    <contour>
      <point x="736" y="47" type="curve"/>
      <point x="736" y="167"/>
      <point x="736" y="46"/>
      <point x="736" y="166" type="curve"/>
      <point x="639" y="166"/>
      <point x="736" y="166"/>
      <point x="639" y="166" type="curve"/>
      <point x="639" y="46"/>
      <point x="639" y="167"/>
      <point x="639" y="47" type="curve"/>
      <point x="736" y="47"/>
      <point x="639" y="47"/>
    </contour>
    <contour>
      <point x="207" y="93" type="curve"/>
      <point x="24" y="93"/>
      <point x="228" y="93"/>
      <point x="45" y="93" type="curve"/>
      <point x="45" y="0"/>
      <point x="45" y="93"/>
      <point x="45" y="0" type="curve"/>
      <point x="105" y="0"/>
      <point x="145" y="0"/>
      <point x="207" y="0" type="curve"/>
      <point x="207" y="93"/>
      <point x="207" y="0"/>
    </contour>
    <contour>
      <point x="207" y="722" type="curve"/>
      <point x="145" y="722"/>
      <point x="105" y="722"/>
      <point x="45" y="722" type="curve"/>
      <point x="45" y="629"/>
      <point x="45" y="722"/>
      <point x="45" y="629" type="curve"/>
      <point x="228" y="629"/>
      <point x="24" y="629"/>
      <point x="207" y="629" type="curve"/>
      <point x="207" y="722"/>
      <point x="207" y="629"/>
    </contour>
    <contour>
      <point x="207" y="629" type="curve"/>
      <point x="389" y="629"/>
      <point x="186" y="629"/>
      <point x="369" y="629" type="curve"/>
      <point x="369" y="722"/>
      <point x="369" y="629"/>
      <point x="369" y="722" type="curve"/>
      <point x="308" y="722"/>
      <point x="267" y="722"/>
      <point x="207" y="722" type="curve"/>
      <point x="207" y="629"/>
      <point x="207" y="722"/>
    </contour>
    <contour>
      <point x="271" y="0" type="curve"/>
      <point x="271" y="241"/>
      <point x="271" y="481"/>
      <point x="271" y="722" type="curve"/>
      <point x="145" y="722"/>
      <point x="271" y="722"/>
      <point x="145" y="722" type="curve"/>
      <point x="145" y="481"/>
      <point x="145" y="241"/>
      <point x="145" y="0" type="curve"/>
      <point x="271" y="0"/>
      <point x="145" y="0"/>
    </contour>
    <contour>
      <point x="207" y="0" type="curve"/>
      <point x="383" y="0"/>
      <point x="559" y="0"/>
      <point x="736" y="0" type="curve"/>
      <point x="736" y="93"/>
      <point x="736" y="0"/>
      <point x="736" y="93" type="curve"/>
      <point x="559" y="93"/>
      <point x="383" y="93"/>
      <point x="207" y="93" type="curve"/>
      <point x="207" y="0"/>
      <point x="207" y="93"/>
    </contour>
  </outline>
</glyph>
<glyph name="N" format="1">
  <advance width="1076"/>
  <unicode hex="004E"/>
  <outline>
    <contour>
      <point x="540" y="791" type="move" name="top"/>
    </contour>
    <contour>
      <point x="547" y="2" type="move" name="bottom"/>
    </contour>
    <contour>
      <point x="208" y="722" type="curve"/>
      <point x="147" y="722"/>
      <point x="107" y="722"/>
      <point x="46" y="722" type="curve"/>
      <point x="46" y="629"/>
      <point x="46" y="722"/>
      <point x="46" y="629" type="curve"/>
      <point x="229" y="629"/>
      <point x="25" y="629"/>
      <point x="208" y="629" type="curve"/>
      <point x="208" y="722"/>
      <point x="208" y="629"/>
    </contour>
    <contour>
      <point x="878" y="629" type="curve"/>
      <point x="1061" y="629"/>
      <point x="857" y="629"/>
      <point x="1040" y="629" type="curve"/>
      <point x="1040" y="722"/>
      <point x="1040" y="629"/>
      <point x="1040" y="722" type="curve"/>
      <point x="979" y="722"/>
      <point x="939" y="722"/>
      <point x="878" y="722" type="curve"/>
      <point x="878" y="629"/>
      <point x="878" y="722"/>
    </contour>
    <contour>
      <point x="892" y="722" type="curve"/>
      <point x="832" y="722"/>
      <point x="792" y="722"/>
      <point x="731" y="722" type="curve"/>
      <point x="731" y="629"/>
      <point x="731" y="722"/>
      <point x="731" y="629" type="curve"/>
      <point x="913" y="629"/>
      <point x="710" y="629"/>
      <point x="892" y="629" type="curve"/>
      <point x="892" y="722"/>
      <point x="892" y="629"/>
    </contour>
    <contour>
      <point x="207" y="93" type="curve"/>
      <point x="24" y="93"/>
      <point x="228" y="93"/>
      <point x="45" y="93" type="curve"/>
      <point x="45" y="0"/>
      <point x="45" y="93"/>
      <point x="45" y="0" type="curve"/>
      <point x="106" y="0"/>
      <point x="145" y="0"/>
      <point x="207" y="0" type="curve"/>
      <point x="207" y="93"/>
      <point x="207" y="0"/>
    </contour>
    <contour>
      <point x="207" y="0" type="curve"/>
      <point x="268" y="0"/>
      <point x="186" y="0"/>
      <point x="367" y="0" type="curve"/>
      <point x="367" y="93"/>
      <point x="367" y="0"/>
      <point x="367" y="93" type="curve"/>
      <point x="186" y="93"/>
      <point x="388" y="93"/>
      <point x="207" y="93" type="curve"/>
      <point x="207" y="0"/>
      <point x="207" y="93"/>
    </contour>
    <contour>
      <point x="950" y="0" type="curve"/>
      <point x="728" y="239"/>
      <point x="509" y="483"/>
      <point x="287" y="722" type="curve"/>
      <point x="134" y="722"/>
      <point x="286" y="722"/>
      <point x="133" y="722" type="curve"/>
      <point x="355" y="483"/>
      <point x="575" y="239"/>
      <point x="797" y="0" type="curve"/>
      <point x="950" y="0"/>
      <point x="798" y="0"/>
    </contour>
    <contour>
      <point x="828" y="722" type="curve"/>
      <point x="828" y="481"/>
      <point x="828" y="241"/>
      <point x="828" y="0" type="curve"/>
      <point x="954" y="0"/>
      <point x="828" y="0"/>
      <point x="954" y="0" type="curve"/>
      <point x="954" y="241"/>
      <point x="954" y="481"/>
      <point x="954" y="722" type="curve"/>
      <point x="828" y="722"/>
      <point x="954" y="722"/>
    </contour>
    <contour>
      <point x="269" y="0" type="curve"/>
      <point x="269" y="241"/>
      <point x="269" y="481"/>
      <point x="269" y="722" type="curve"/>
      <point x="144" y="722"/>
      <point x="269" y="722"/>
      <point x="144" y="722" type="curve"/>
      <point x="144" y="481"/>
      <point x="144" y="241"/>
      <point x="144" y="0" type="curve"/>
      <point x="269" y="0"/>
      <point x="144" y="0"/>
    </contour>
  </outline>
</glyph>
<glyph name="Q" format="1">
  <advance width="988"/>
  <unicode hex="0051"/>
  <outline>
    <contour>
      <point x="436" y="22" type="curve"/>
      <point x="588" y="-175"/>
      <point x="746" y="-217"/>
      <point x="981" y="-217" type="curve"/>
      <point x="981" y="-119"/>
      <point x="981" y="-217"/>
      <point x="981" y="-119" type="curve"/>
      <point x="794" y="-119"/>
      <point x="668" y="-90"/>
      <point x="545" y="69" type="curve"/>
      <point x="436" y="22"/>
      <point x="545" y="69"/>
    </contour>
    <contour>
      <point x="186" y="360" type="curve"/>
      <point x="186" y="530"/>
      <point x="307" y="626"/>
      <point x="479" y="626" type="curve"/>
      <point x="655" y="626"/>
      <point x="774" y="532"/>
      <point x="774" y="361" type="curve"/>
      <point x="774" y="191"/>
      <point x="657" y="92"/>
      <point x="485" y="92" type="curve"/>
      <point x="308" y="92"/>
      <point x="186" y="188"/>
      <point x="186" y="360" type="curve"/>
      <point x="60" y="360"/>
      <point x="186" y="360"/>
      <point x="60" y="360" type="curve"/>
      <point x="60" y="123"/>
      <point x="235" y="-5"/>
      <point x="479" y="-5" type="curve"/>
      <point x="726" y="-5"/>
      <point x="900" y="126"/>
      <point x="900" y="366" type="curve"/>
      <point x="900" y="602"/>
      <point x="729" y="731"/>
      <point x="485" y="731" type="curve"/>
      <point x="237" y="731"/>
      <point x="60" y="600"/>
      <point x="60" y="360" type="curve"/>
      <point x="186" y="360"/>
      <point x="60" y="360"/>
    </contour>
  </outline>
</glyph>
<glyph name="T" format="1">
  <advance width="841"/>
  <unicode hex="0054"/>
  <outline>
    <contour>
      <point x="417" y="791" type="move" name="top"/>
    </contour>
    <contour>
      <point x="455" y="3" type="move" name="bottom"/>
    </contour>
    <contour>
      <point x="32" y="674" type="curve"/>
      <point x="32" y="554"/>
      <point x="32" y="675"/>
      <point x="32" y="555" type="curve"/>
      <point x="128" y="555"/>
      <point x="32" y="555"/>
      <point x="128" y="555" type="curve"/>
      <point x="128" y="675"/>
      <point x="128" y="554"/>
      <point x="128" y="674" type="curve"/>
      <point x="32" y="674"/>
      <point x="128" y="674"/>
    </contour>
    <contour>
      <point x="712" y="674" type="curve"/>
      <point x="712" y="554"/>
      <point x="712" y="675"/>
      <point x="712" y="555" type="curve"/>
      <point x="809" y="555"/>
      <point x="712" y="555"/>
      <point x="809" y="555" type="curve"/>
      <point x="809" y="675"/>
      <point x="809" y="554"/>
      <point x="809" y="674" type="curve"/>
      <point x="712" y="674"/>
      <point x="809" y="674"/>
    </contour>
    <contour>
      <point x="419" y="0" type="curve"/>
      <point x="474" y="0"/>
      <point x="528" y="0"/>
      <point x="581" y="0" type="curve"/>
      <point x="581" y="93"/>
      <point x="581" y="0"/>
      <point x="581" y="93" type="curve"/>
      <point x="419" y="93"/>
      <point x="581" y="93"/>
      <point x="419" y="93" type="curve"/>
      <point x="419" y="0"/>
      <point x="419" y="93"/>
    </contour>
    <contour>
      <point x="419" y="93" type="curve"/>
      <point x="257" y="93"/>
      <point x="420" y="93"/>
      <point x="258" y="93" type="curve"/>
      <point x="258" y="0"/>
      <point x="258" y="93"/>
      <point x="258" y="0" type="curve"/>
      <point x="311" y="0"/>
      <point x="365" y="0"/>
      <point x="419" y="0" type="curve"/>
      <point x="419" y="93"/>
      <point x="419" y="0"/>
    </contour>
    <contour>
      <point x="484" y="0" type="curve"/>
      <point x="484" y="237"/>
      <point x="484" y="473"/>
      <point x="484" y="710" type="curve"/>
      <point x="358" y="710"/>
      <point x="484" y="710"/>
      <point x="358" y="710" type="curve"/>
      <point x="358" y="473"/>
      <point x="358" y="237"/>
      <point x="358" y="0" type="curve"/>
      <point x="484" y="0"/>
      <point x="358" y="0"/>
    </contour>
    <contour>
      <point x="32" y="623" type="curve"/>
      <point x="290" y="623"/>
      <point x="550" y="623"/>
      <point x="809" y="623" type="curve"/>
      <point x="809" y="726"/>
      <point x="809" y="619"/>
      <point x="809" y="722" type="curve"/>
      <point x="550" y="722"/>
      <point x="290" y="722"/>
      <point x="32" y="722" type="curve"/>
      <point x="32" y="619"/>
      <point x="32" y="726"/>
    </contour>
  </outline>
</glyph>
<glyph name="V" format="1">
  <advance width="968"/>
  <unicode hex="0056"/>
  <outline>
    <contour>
      <point x="797" y="722" type="curve"/>
      <point x="739" y="722"/>
      <point x="680" y="722"/>
      <point x="623" y="722" type="curve"/>
      <point x="623" y="629"/>
      <point x="623" y="722"/>
      <point x="623" y="629" type="curve"/>
      <point x="797" y="629"/>
      <point x="623" y="629"/>
      <point x="797" y="629" type="curve"/>
      <point x="797" y="722"/>
      <point x="797" y="629"/>
    </contour>
    <contour>
      <point x="145" y="722" type="curve"/>
      <point x="96" y="722"/>
      <point x="47" y="722"/>
      <point x="-2" y="722" type="curve"/>
      <point x="-2" y="629"/>
      <point x="-2" y="722"/>
      <point x="-2" y="629" type="curve"/>
      <point x="145" y="629"/>
      <point x="-2" y="629"/>
      <point x="145" y="629" type="curve"/>
      <point x="145" y="722"/>
      <point x="145" y="629"/>
    </contour>
    <contour>
      <point x="811" y="629" type="curve"/>
      <point x="959" y="629"/>
      <point x="811" y="629"/>
      <point x="959" y="629" type="curve"/>
      <point x="959" y="722"/>
      <point x="959" y="629"/>
      <point x="959" y="722" type="curve"/>
      <point x="910" y="722"/>
      <point x="861" y="722"/>
      <point x="811" y="722" type="curve"/>
      <point x="811" y="629"/>
      <point x="811" y="722"/>
    </contour>
    <contour>
      <point x="159" y="629" type="curve"/>
      <point x="334" y="629"/>
      <point x="159" y="629"/>
      <point x="333" y="629" type="curve"/>
      <point x="333" y="722"/>
      <point x="333" y="629"/>
      <point x="333" y="722" type="curve"/>
      <point x="276" y="722"/>
      <point x="218" y="722"/>
      <point x="159" y="722" type="curve"/>
      <point x="159" y="629"/>
      <point x="159" y="722"/>
    </contour>
    <contour>
      <point x="769" y="722" type="curve"/>
      <point x="653" y="481"/>
      <point x="537" y="241"/>
      <point x="422" y="0" type="curve"/>
      <point x="551" y="0"/>
      <point x="421" y="0"/>
      <point x="549" y="0" type="curve"/>
      <point x="665" y="241"/>
      <point x="781" y="481"/>
      <point x="898" y="722" type="curve"/>
      <point x="769" y="722"/>
      <point x="898" y="722"/>
    </contour>
    <contour>
      <point x="59" y="722" type="curve"/>
      <point x="177" y="481"/>
      <point x="295" y="241"/>
      <point x="413" y="0" type="curve"/>
      <point x="542" y="0"/>
      <point x="412" y="0"/>
      <point x="541" y="0" type="curve"/>
      <point x="424" y="241"/>
      <point x="306" y="481"/>
      <point x="189" y="722" type="curve"/>
      <point x="59" y="722"/>
      <point x="188" y="722"/>
    </contour>
  </outline>
</glyph>
<glyph name="X" format="1">
  <advance width="903"/>
  <unicode hex="0058"/>
  <outline>
    <contour>
      <point x="182" y="0" type="curve"/>
      <point x="243" y="0"/>
      <point x="182" y="0"/>
      <point x="364" y="0" type="curve"/>
      <point x="364" y="93"/>
      <point x="364" y="0"/>
      <point x="364" y="93" type="curve"/>
      <point x="182" y="93"/>
      <point x="364" y="93"/>
      <point x="182" y="93" type="curve"/>
      <point x="182" y="0"/>
      <point x="182" y="93"/>
    </contour>
    <contour>
      <point x="181" y="93" type="curve"/>
      <point x="14" y="93"/>
      <point x="181" y="93"/>
      <point x="14" y="93" type="curve"/>
      <point x="14" y="0"/>
      <point x="14" y="93"/>
      <point x="14" y="0" type="curve"/>
      <point x="70" y="0"/>
      <point x="126" y="0"/>
      <point x="181" y="0" type="curve"/>
      <point x="181" y="93"/>
      <point x="181" y="0"/>
    </contour>
    <contour>
      <point x="718" y="0" type="curve"/>
      <point x="774" y="0"/>
      <point x="830" y="0"/>
      <point x="885" y="0" type="curve"/>
      <point x="885" y="93"/>
      <point x="885" y="0"/>
      <point x="885" y="93" type="curve"/>
      <point x="718" y="93"/>
      <point x="885" y="93"/>
      <point x="718" y="93" type="curve"/>
      <point x="718" y="0"/>
      <point x="718" y="93"/>
    </contour>
    <contour>
      <point x="717" y="93" type="curve"/>
      <point x="535" y="93"/>
      <point x="717" y="93"/>
      <point x="535" y="93" type="curve"/>
      <point x="535" y="0"/>
      <point x="535" y="93"/>
      <point x="535" y="0" type="curve"/>
      <point x="596" y="0"/>
      <point x="656" y="0"/>
      <point x="717" y="0" type="curve"/>
      <point x="717" y="93"/>
      <point x="717" y="0"/>
    </contour>
    <contour>
      <point x="685" y="629" type="curve"/>
      <point x="852" y="629"/>
      <point x="684" y="629"/>
      <point x="851" y="629" type="curve"/>
      <point x="851" y="722"/>
      <point x="851" y="629"/>
      <point x="851" y="722" type="curve"/>
      <point x="796" y="722"/>
      <point x="740" y="722"/>
      <point x="685" y="722" type="curve"/>
      <point x="685" y="629"/>
      <point x="685" y="722"/>
    </contour>
    <contour>
      <point x="685" y="722" type="curve"/>
      <point x="625" y="722"/>
      <point x="564" y="722"/>
      <point x="503" y="722" type="curve"/>
      <point x="503" y="629"/>
      <point x="503" y="722"/>
      <point x="503" y="629" type="curve"/>
      <point x="685" y="629"/>
      <point x="503" y="629"/>
      <point x="685" y="629" type="curve"/>
      <point x="685" y="722"/>
      <point x="685" y="629"/>
    </contour>
    <contour>
      <point x="225" y="722" type="curve"/>
      <point x="170" y="722"/>
      <point x="114" y="722"/>
      <point x="58" y="722" type="curve"/>
      <point x="58" y="629"/>
      <point x="58" y="722"/>
      <point x="58" y="629" type="curve"/>
      <point x="225" y="629"/>
      <point x="58" y="629"/>
      <point x="225" y="629" type="curve"/>
      <point x="225" y="722"/>
      <point x="225" y="629"/>
    </contour>
    <contour>
      <point x="223" y="629" type="curve"/>
      <point x="407" y="629"/>
      <point x="223" y="629"/>
      <point x="406" y="629" type="curve"/>
      <point x="406" y="722"/>
      <point x="406" y="629"/>
      <point x="406" y="722" type="curve"/>
      <point x="346" y="722"/>
      <point x="284" y="722"/>
      <point x="223" y="722" type="curve"/>
      <point x="223" y="629"/>
      <point x="223" y="722"/>
    </contour>
    <contour>
      <point x="680" y="722" type="curve"/>
      <point x="481" y="492"/>
      <point x="278" y="265"/>
      <point x="79" y="35" type="curve"/>
      <point x="204" y="35"/>
      <point x="79" y="0"/>
      <point x="204" y="0" type="curve"/>
      <point x="402" y="230"/>
      <point x="597" y="463"/>
      <point x="797" y="693" type="curve"/>
      <point x="680" y="693"/>
      <point x="797" y="722"/>
    </contour>
    <contour>
      <point x="115" y="692" type="curve"/>
      <point x="311" y="462"/>
      <point x="505" y="230"/>
      <point x="702" y="0" type="curve"/>
      <point x="828" y="0"/>
      <point x="702" y="23"/>
      <point x="828" y="23" type="curve"/>
      <point x="628" y="257"/>
      <point x="427" y="489"/>
      <point x="228" y="722" type="curve"/>
      <point x="115" y="722"/>
      <point x="228" y="692"/>
    </contour>
  </outline>
</glyph>
<glyph name="Y" format="1">
  <advance width="796"/>
  <unicode hex="0059"/>
  <outline>
    <contour>
      <point x="395" y="791" type="move" name="top"/>
    </contour>
    <contour>
      <point x="391" y="93" type="curve"/>
      <point x="230" y="93"/>
      <point x="391" y="93"/>
      <point x="230" y="93" type="curve"/>
      <point x="230" y="0"/>
      <point x="230" y="93"/>
      <point x="230" y="0" type="curve"/>
      <point x="284" y="0"/>
      <point x="337" y="0"/>
      <point x="391" y="0" type="curve"/>
      <point x="391" y="93"/>
      <point x="391" y="0"/>
    </contour>
    <contour>
      <point x="391" y="0" type="curve"/>
      <point x="445" y="0"/>
      <point x="498" y="0"/>
      <point x="553" y="0" type="curve"/>
      <point x="553" y="93"/>
      <point x="553" y="0"/>
      <point x="553" y="93" type="curve"/>
      <point x="391" y="93"/>
      <point x="553" y="93"/>
      <point x="391" y="93" type="curve"/>
      <point x="391" y="0"/>
      <point x="391" y="93"/>
    </contour>
    <contour>
      <point x="638" y="722" type="curve"/>
      <point x="585" y="722"/>
      <point x="532" y="722"/>
      <point x="478" y="722" type="curve"/>
      <point x="478" y="629"/>
      <point x="478" y="722"/>
      <point x="478" y="629" type="curve"/>
      <point x="639" y="629"/>
      <point x="477" y="629"/>
      <point x="638" y="629" type="curve"/>
      <point x="638" y="722"/>
      <point x="638" y="629"/>
    </contour>
    <contour>
      <point x="156" y="722" type="curve"/>
      <point x="108" y="722"/>
      <point x="59" y="722"/>
      <point x="11" y="722" type="curve"/>
      <point x="11" y="629"/>
      <point x="11" y="722"/>
      <point x="11" y="629" type="curve"/>
      <point x="157" y="629"/>
      <point x="11" y="629"/>
      <point x="156" y="629" type="curve"/>
      <point x="156" y="722"/>
      <point x="156" y="629"/>
    </contour>
    <contour>
      <point x="158" y="629" type="curve"/>
      <point x="320" y="629"/>
      <point x="158" y="629"/>
      <point x="320" y="629" type="curve"/>
      <point x="320" y="722"/>
      <point x="320" y="629"/>
      <point x="320" y="722" type="curve"/>
      <point x="265" y="722"/>
      <point x="212" y="722"/>
      <point x="158" y="722" type="curve"/>
      <point x="158" y="629"/>
      <point x="158" y="722"/>
    </contour>
    <contour>
      <point x="640" y="629" type="curve"/>
      <point x="787" y="629"/>
      <point x="640" y="629"/>
      <point x="787" y="629" type="curve"/>
      <point x="787" y="722"/>
      <point x="787" y="629"/>
      <point x="787" y="722" type="curve"/>
      <point x="737" y="722"/>
      <point x="689" y="722"/>
      <point x="640" y="722" type="curve"/>
      <point x="640" y="629"/>
      <point x="640" y="722"/>
    </contour>
    <contour>
      <point x="55" y="693" type="curve"/>
      <point x="146" y="575"/>
      <point x="236" y="456"/>
      <point x="327" y="337" type="curve"/>
      <point x="455" y="337"/>
      <point x="325" y="338"/>
      <point x="453" y="338" type="curve"/>
      <point x="356" y="466"/>
      <point x="259" y="594"/>
      <point x="161" y="722" type="curve"/>
      <point x="55" y="722"/>
      <point x="161" y="693"/>
    </contour>
    <contour>
      <point x="638" y="722" type="curve"/>
      <point x="535" y="594"/>
      <point x="432" y="466"/>
      <point x="329" y="338" type="curve"/>
      <point x="456" y="338"/>
      <point x="328" y="337"/>
      <point x="456" y="337" type="curve"/>
      <point x="552" y="457"/>
      <point x="647" y="577"/>
      <point x="744" y="696" type="curve"/>
      <point x="638" y="696"/>
      <point x="744" y="722"/>
    </contour>
    <contour>
      <point x="460" y="0" type="curve"/>
      <point x="460" y="115"/>
      <point x="460" y="230"/>
      <point x="460" y="345" type="curve"/>
      <point x="322" y="345"/>
      <point x="460" y="345"/>
      <point x="322" y="345" type="curve"/>
      <point x="322" y="230"/>
      <point x="322" y="115"/>
      <point x="322" y="0" type="curve"/>
      <point x="460" y="0"/>
      <point x="322" y="0"/>
    </contour>
  </outline>
</glyph>
<glyph name="bracketleft" format="1">
  <advance width="380"/>
  <unicode hex="005B"/>
  <outline>
    <contour>
      <point x="329" y="769" type="curve"/>
      <point x="264" y="769"/>
      <point x="201" y="769"/>
      <point x="137" y="769" type="curve"/>
      <point x="121" y="769"/>
      <point x="98" y="769"/>
      <point x="83" y="769" type="curve"/>
      <point x="83" y="757"/>
      <point x="83" y="737"/>
      <point x="83" y="723" type="curve"/>
      <point x="83" y="459"/>
      <point x="83" y="194"/>
      <point x="83" y="-71" type="curve"/>
      <point x="83" y="-85"/>
      <point x="83" y="-102"/>
      <point x="83" y="-115" type="curve"/>
      <point x="97" y="-115"/>
      <point x="119" y="-115"/>
      <point x="136" y="-115" type="curve"/>
      <point x="200" y="-115"/>
      <point x="264" y="-115"/>
      <point x="329" y="-115" type="curve"/>
      <point x="329" y="-12"/>
      <point x="329" y="-115"/>
      <point x="329" y="-12" type="curve"/>
      <point x="264" y="-12"/>
      <point x="200" y="-12"/>
      <point x="136" y="-12" type="curve"/>
      <point x="209" y="-12"/>
      <point x="136" y="-12"/>
      <point x="209" y="-12" type="curve"/>
      <point x="209" y="-71"/>
      <point x="209" y="-12"/>
      <point x="209" y="-71" type="curve"/>
      <point x="209" y="194"/>
      <point x="209" y="459"/>
      <point x="209" y="723" type="curve"/>
      <point x="209" y="668"/>
      <point x="209" y="723"/>
      <point x="209" y="668" type="curve"/>
      <point x="137" y="668"/>
      <point x="209" y="668"/>
      <point x="137" y="668" type="curve"/>
      <point x="201" y="668"/>
      <point x="264" y="668"/>
      <point x="329" y="668" type="curve"/>
      <point x="329" y="769"/>
      <point x="329" y="668"/>
    </contour>
  </outline>
</glyph>
<glyph name="backslash" format="1">
  <advance width="689"/>
  <unicode hex="005C"/>
  <outline>
    <contour>
      <point x="656" y="-68" type="curve"/>
      <point x="492" y="236"/>
      <point x="328" y="540"/>
      <point x="165" y="844" type="curve"/>
      <point x="32" y="844"/>
      <point x="165" y="844"/>
      <point x="32" y="844" type="curve"/>
      <point x="196" y="540"/>
      <point x="361" y="236"/>
      <point x="525" y="-68" type="curve"/>
      <point x="656" y="-68"/>
      <point x="525" y="-68"/>
    </contour>
  </outline>
</glyph>
<glyph name="bracketright" format="1">
  <advance width="379"/>
  <unicode hex="005D"/>
  <outline>
    <contour>
      <point x="51" y="668" type="curve"/>
      <point x="115" y="668"/>
      <point x="178" y="668"/>
      <point x="243" y="668" type="curve"/>
      <point x="229" y="675"/>
      <point x="215" y="681"/>
      <point x="202" y="690" type="curve"/>
      <point x="190" y="699"/>
      <point x="183" y="714"/>
      <point x="171" y="723" type="curve"/>
      <point x="171" y="459"/>
      <point x="171" y="194"/>
      <point x="171" y="-71" type="curve"/>
      <point x="183" y="-61"/>
      <point x="193" y="-47"/>
      <point x="205" y="-38" type="curve"/>
      <point x="218" y="-28"/>
      <point x="231" y="-21"/>
      <point x="244" y="-12" type="curve"/>
      <point x="179" y="-12"/>
      <point x="115" y="-12"/>
      <point x="51" y="-12" type="curve"/>
      <point x="51" y="-115"/>
      <point x="51" y="-12"/>
      <point x="51" y="-115" type="curve"/>
      <point x="115" y="-115"/>
      <point x="179" y="-115"/>
      <point x="244" y="-115" type="curve"/>
      <point x="297" y="-115"/>
      <point x="244" y="-115"/>
      <point x="297" y="-115" type="curve"/>
      <point x="297" y="-71"/>
      <point x="297" y="-115"/>
      <point x="297" y="-71" type="curve"/>
      <point x="297" y="194"/>
      <point x="297" y="459"/>
      <point x="297" y="723" type="curve"/>
      <point x="297" y="769"/>
      <point x="297" y="723"/>
      <point x="297" y="769" type="curve"/>
      <point x="243" y="769"/>
      <point x="297" y="769"/>
      <point x="243" y="769" type="curve"/>
      <point x="178" y="769"/>
      <point x="115" y="769"/>
      <point x="51" y="769" type="curve"/>
      <point x="51" y="668"/>
      <point x="51" y="769"/>
    </contour>
  </outline>
</glyph>
<glyph name="asciicircum" format="1">
  <advance width="678"/>
  <unicode hex="005E"/>
  <outline>
    <contour>
      <point x="182" y="455" type="curve"/>
      <point x="255" y="558"/>
      <point x="328" y="661"/>
      <point x="401" y="765" type="curve"/>
      <point x="276" y="765"/>
      <point x="400" y="765"/>
      <point x="275" y="765" type="curve"/>
      <point x="202" y="661"/>
      <point x="129" y="558"/>
      <point x="57" y="455" type="curve"/>
      <point x="182" y="455"/>
      <point x="57" y="455"/>
    </contour>
    <contour>
      <point x="622" y="455" type="curve"/>
      <point x="550" y="557"/>
      <point x="474" y="662"/>
      <point x="401" y="765" type="curve"/>
      <point x="276" y="765"/>
      <point x="401" y="765"/>
      <point x="276" y="765" type="curve"/>
      <point x="347" y="662"/>
      <point x="423" y="557"/>
      <point x="496" y="455" type="curve"/>
      <point x="622" y="455"/>
      <point x="497" y="455"/>
    </contour>
  </outline>
</glyph>
<glyph name="underscore" format="1">
  <advance width="856"/>
  <unicode hex="005F"/>
  <outline>
    <contour>
      <point x="0" y="-188" type="curve"/>
      <point x="285" y="-188"/>
      <point x="570" y="-188"/>
      <point x="855" y="-188" type="curve"/>
      <point x="855" y="-95"/>
      <point x="855" y="-188"/>
      <point x="855" y="-95" type="curve"/>
      <point x="570" y="-95"/>
      <point x="285" y="-95"/>
      <point x="0" y="-95" type="curve"/>
      <point x="0" y="-188"/>
      <point x="0" y="-95"/>
    </contour>
  </outline>
</glyph>
<glyph name="grave" format="1">
  <advance width="443"/>
  <unicode hex="0060"/>
  <outline>
    <contour>
      <point x="305" y="551" type="move" name="_top"/>
    </contour>
    <contour>
      <point x="378" y="550" type="line"/>
      <point x="228" y="716" type="line"/>
      <point x="63" y="716" type="line"/>
      <point x="250" y="550" type="line"/>
    </contour>
  </outline>
</glyph>
<glyph name="b" format="1">
  <advance width="827"/>
  <unicode hex="0062"/>
  <outline>
    <contour>
      <point x="193" y="800" type="curve"/>
      <point x="133" y="800"/>
      <point x="91" y="800"/>
      <point x="31" y="800" type="curve"/>
      <point x="31" y="756"/>
      <point x="31" y="751"/>
      <point x="31" y="707" type="curve"/>
      <point x="125" y="707"/>
      <point x="100" y="707"/>
      <point x="193" y="707" type="curve"/>
      <point x="193" y="751"/>
      <point x="193" y="755"/>
    </contour>
    <contour>
      <point x="216" y="333" type="curve"/>
      <point x="275" y="396"/>
      <point x="347" y="441"/>
      <point x="452" y="441" type="curve"/>
      <point x="569" y="441"/>
      <point x="648" y="378"/>
      <point x="648" y="263" type="curve"/>
      <point x="650" y="151"/>
      <point x="568" y="91"/>
      <point x="452" y="92" type="curve"/>
      <point x="356" y="92"/>
      <point x="282" y="129"/>
      <point x="228" y="183" type="curve"/>
      <point x="194" y="160"/>
      <point x="187" y="156"/>
      <point x="153" y="132" type="curve"/>
      <point x="244" y="47"/>
      <point x="335" y="-5"/>
      <point x="475" y="-5" type="curve"/>
      <point x="654" y="-5"/>
      <point x="776" y="87"/>
      <point x="776" y="264" type="curve"/>
      <point x="776" y="444"/>
      <point x="653" y="539"/>
      <point x="472" y="539" type="curve"/>
      <point x="336" y="539"/>
      <point x="246" y="486"/>
      <point x="161" y="400" type="curve"/>
      <point x="189" y="371"/>
      <point x="188" y="361"/>
    </contour>
    <contour>
      <point x="254" y="0" type="curve"/>
      <point x="254" y="296"/>
      <point x="254" y="504"/>
      <point x="254" y="800" type="curve"/>
      <point x="195" y="800"/>
      <point x="187" y="800"/>
      <point x="128" y="800" type="curve"/>
      <point x="128" y="504"/>
      <point x="128" y="296"/>
      <point x="128" y="0" type="curve"/>
      <point x="187" y="0"/>
      <point x="195" y="0"/>
    </contour>
    <contour>
      <point x="193" y="92" type="curve"/>
      <point x="100" y="92"/>
      <point x="125" y="93"/>
      <point x="31" y="93" type="curve"/>
      <point x="31" y="49"/>
      <point x="31" y="45"/>
      <point x="31" y="0" type="curve"/>
      <point x="91" y="0"/>
      <point x="133" y="0"/>
      <point x="193" y="0" type="curve"/>
      <point x="193" y="45"/>
      <point x="193" y="48"/>
    </contour>
  </outline>
</glyph>
<glyph name="e" format="1">
  <advance width="704"/>
  <unicode hex="0065"/>
  <outline>
    <contour>
      <point x="362" y="625" type="move" name="top"/>
    </contour>
    <contour>
      <point x="460" y="16" type="move" name="bottom"/>
    </contour>
    <contour>
      <point x="117" y="234" type="curve"/>
      <point x="280" y="234"/>
      <point x="444" y="234"/>
      <point x="607" y="234" type="curve"/>
      <point x="657" y="234"/>
      <point x="607" y="234"/>
      <point x="657" y="234" type="curve"/>
      <point x="657" y="264"/>
      <point x="657" y="234"/>
      <point x="657" y="264" type="curve"/>
      <point x="657" y="271"/>
      <point x="657" y="277"/>
      <point x="657" y="283" type="curve"/>
      <point x="657" y="460"/>
      <point x="540" y="537"/>
      <point x="365" y="537" type="curve"/>
      <point x="178" y="537"/>
      <point x="52" y="459"/>
      <point x="52" y="279" type="curve"/>
      <point x="52" y="81"/>
      <point x="190" y="-5"/>
      <point x="393" y="-5" type="curve"/>
      <point x="491" y="-5"/>
      <point x="555" y="16"/>
      <point x="629" y="66" type="curve"/>
      <point x="571" y="141"/>
      <point x="629" y="66"/>
      <point x="571" y="141" type="curve"/>
      <point x="514" y="106"/>
      <point x="457" y="89"/>
      <point x="390" y="89" type="curve"/>
      <point x="258" y="89"/>
      <point x="173" y="150"/>
      <point x="173" y="279" type="curve"/>
      <point x="173" y="389"/>
      <point x="244" y="443"/>
      <point x="359" y="443" type="curve"/>
      <point x="464" y="443"/>
      <point x="537" y="404"/>
      <point x="537" y="303" type="curve"/>
      <point x="537" y="293"/>
      <point x="537" y="284"/>
      <point x="537" y="274" type="curve"/>
      <point x="549" y="283"/>
      <point x="559" y="296"/>
      <point x="571" y="303" type="curve"/>
      <point x="584" y="311"/>
      <point x="595" y="313"/>
      <point x="607" y="321" type="curve"/>
      <point x="444" y="321"/>
      <point x="280" y="321"/>
      <point x="117" y="321" type="curve"/>
      <point x="117" y="228"/>
      <point x="117" y="328"/>
    </contour>
  </outline>
</glyph>
<glyph name="h" format="1">
  <advance width="802"/>
  <unicode hex="0068"/>
  <outline>
    <contour>
      <point x="636" y="-1" type="curve"/>
      <point x="697" y="-1"/>
      <point x="736" y="0"/>
      <point x="797" y="0" type="curve"/>
      <point x="797" y="93"/>
      <point x="797" y="0"/>
      <point x="797" y="93" type="curve"/>
      <point x="615" y="92"/>
      <point x="818" y="93"/>
      <point x="636" y="92" type="curve"/>
      <point x="636" y="-1"/>
      <point x="636" y="92"/>
    </contour>
    <contour>
      <point x="170" y="-1" type="curve"/>
      <point x="226" y="-1"/>
      <point x="150" y="-1"/>
      <point x="318" y="0" type="curve"/>
      <point x="318" y="93"/>
      <point x="318" y="0"/>
      <point x="318" y="93" type="curve"/>
      <point x="150" y="92"/>
      <point x="339" y="93"/>
      <point x="170" y="92" type="curve"/>
      <point x="170" y="-1"/>
      <point x="170" y="92"/>
    </contour>
    <contour>
      <point x="170" y="799" type="curve"/>
      <point x="109" y="799"/>
      <point x="69" y="800"/>
      <point x="9" y="800" type="curve"/>
      <point x="9" y="707"/>
      <point x="9" y="800"/>
      <point x="9" y="707" type="curve"/>
      <point x="191" y="707"/>
      <point x="-12" y="707"/>
      <point x="170" y="707" type="curve"/>
      <point x="170" y="799"/>
      <point x="170" y="707"/>
    </contour>
    <contour>
      <point x="170" y="92" type="curve"/>
      <point x="-12" y="93"/>
      <point x="191" y="92"/>
      <point x="9" y="93" type="curve"/>
      <point x="9" y="0"/>
      <point x="9" y="93"/>
      <point x="9" y="0" type="curve"/>
      <point x="69" y="0"/>
      <point x="109" y="-1"/>
      <point x="170" y="-1" type="curve"/>
      <point x="170" y="92"/>
      <point x="170" y="-1"/>
    </contour>
    <contour>
      <point x="205" y="290" type="curve"/>
      <point x="244" y="388"/>
      <point x="332" y="444"/>
      <point x="425" y="444" type="curve"/>
      <point x="515" y="444"/>
      <point x="574" y="392"/>
      <point x="574" y="305" type="curve"/>
      <point x="574" y="201"/>
      <point x="574" y="105"/>
      <point x="574" y="0" type="curve"/>
      <point x="700" y="0"/>
      <point x="574" y="0"/>
      <point x="700" y="0" type="curve"/>
      <point x="700" y="108"/>
      <point x="700" y="215"/>
      <point x="700" y="324" type="curve"/>
      <point x="700" y="473"/>
      <point x="601" y="538"/>
      <point x="446" y="538" type="curve"/>
      <point x="316" y="538"/>
      <point x="201" y="465"/>
      <point x="144" y="334" type="curve"/>
      <point x="207" y="287"/>
      <point x="142" y="337"/>
    </contour>
    <contour>
      <point x="233" y="0" type="curve"/>
      <point x="233" y="267"/>
      <point x="233" y="533"/>
      <point x="233" y="800" type="curve"/>
      <point x="107" y="800"/>
      <point x="233" y="800"/>
      <point x="107" y="800" type="curve"/>
      <point x="107" y="533"/>
      <point x="107" y="267"/>
      <point x="107" y="0" type="curve"/>
      <point x="233" y="0"/>
      <point x="107" y="0"/>
    </contour>
  </outline>
</glyph>
<glyph name="i" format="1">
  <advance width="371"/>
  <unicode hex="0069"/>
  <outline>
    <contour>
      <point x="193" y="624" type="move" name="top"/>
    </contour>
    <contour>
      <point x="252" y="10" type="move" name="bottom"/>
    </contour>
    <contour>
      <point x="194" y="93" type="curve"/>
      <point x="12" y="93"/>
      <point x="215" y="93"/>
      <point x="33" y="93" type="curve"/>
      <point x="32" y="0"/>
      <point x="33" y="93"/>
      <point x="32" y="0" type="curve"/>
      <point x="94" y="0"/>
      <point x="134" y="0"/>
      <point x="194" y="0" type="curve"/>
      <point x="194" y="93"/>
      <point x="194" y="0"/>
    </contour>
    <contour>
      <point x="194" y="0" type="curve"/>
      <point x="252" y="0"/>
      <point x="294" y="0"/>
      <point x="351" y="0" type="curve"/>
      <point x="351" y="93"/>
      <point x="351" y="0"/>
      <point x="351" y="93" type="curve"/>
      <point x="181" y="93"/>
      <point x="365" y="93"/>
      <point x="194" y="93" type="curve"/>
      <point x="194" y="0"/>
      <point x="194" y="93"/>
    </contour>
    <contour>
      <point x="194" y="533" type="curve"/>
      <point x="134" y="533"/>
      <point x="94" y="533"/>
      <point x="33" y="533" type="curve"/>
      <point x="32" y="440"/>
      <point x="33" y="533"/>
      <point x="32" y="440" type="curve"/>
      <point x="215" y="440"/>
      <point x="12" y="440"/>
      <point x="194" y="440" type="curve"/>
      <point x="194" y="533"/>
      <point x="194" y="440"/>
    </contour>
    <contour>
      <point x="261" y="0" type="curve"/>
      <point x="261" y="178"/>
      <point x="261" y="355"/>
      <point x="261" y="533" type="curve"/>
      <point x="130" y="533"/>
      <point x="261" y="533"/>
      <point x="130" y="533" type="curve"/>
      <point x="130" y="355"/>
      <point x="130" y="178"/>
      <point x="130" y="0" type="curve"/>
      <point x="261" y="0"/>
      <point x="130" y="0"/>
    </contour>
    <contour>
      <point x="268" y="685" type="curve"/>
      <point x="268" y="727"/>
      <point x="236" y="747"/>
      <point x="193" y="747" type="curve"/>
      <point x="149" y="747"/>
      <point x="120" y="724"/>
      <point x="120" y="685" type="curve"/>
      <point x="263" y="685"/>
      <point x="125" y="685"/>
      <point x="268" y="685" type="curve"/>
      <point x="268" y="643"/>
      <point x="236" y="624"/>
      <point x="192" y="624" type="curve"/>
      <point x="148" y="624"/>
      <point x="120" y="645"/>
      <point x="120" y="685" type="curve"/>
      <point x="263" y="685"/>
      <point x="125" y="685"/>
    </contour>
  </outline>
</glyph>
<glyph name="l" format="1">
  <advance width="403"/>
  <unicode hex="006C"/>
  <outline>
    <contour>
      <point x="201" y="886" type="move" name="top"/>
    </contour>
    <contour>
      <point x="248" y="7" type="move" name="bottom"/>
    </contour>
    <contour>
      <point x="202" y="92" type="curve"/>
      <point x="20" y="93"/>
      <point x="202" y="92"/>
      <point x="20" y="93" type="curve"/>
      <point x="20" y="0"/>
      <point x="20" y="93"/>
      <point x="20" y="0" type="curve"/>
      <point x="81" y="0"/>
      <point x="141" y="-1"/>
      <point x="202" y="-1" type="curve"/>
      <point x="202" y="93"/>
      <point x="202" y="-1"/>
    </contour>
    <contour>
      <point x="205" y="799" type="curve"/>
      <point x="144" y="799"/>
      <point x="83" y="800"/>
      <point x="22" y="800" type="curve"/>
      <point x="22" y="707"/>
      <point x="22" y="800"/>
      <point x="22" y="707" type="curve"/>
      <point x="205" y="707"/>
      <point x="22" y="707"/>
      <point x="205" y="707" type="curve"/>
      <point x="205" y="799"/>
      <point x="205" y="707"/>
    </contour>
    <contour>
      <point x="202" y="-1" type="curve"/>
      <point x="264" y="-1"/>
      <point x="324" y="0"/>
      <point x="385" y="0" type="curve"/>
      <point x="385" y="93"/>
      <point x="385" y="0"/>
      <point x="385" y="93" type="curve"/>
      <point x="202" y="92"/>
      <point x="385" y="93"/>
      <point x="202" y="92" type="curve"/>
      <point x="202" y="-1"/>
      <point x="202" y="93"/>
    </contour>
    <contour>
      <point x="264" y="0" type="curve"/>
      <point x="264" y="267"/>
      <point x="264" y="533"/>
      <point x="264" y="800" type="curve"/>
      <point x="139" y="800"/>
      <point x="264" y="800"/>
      <point x="139" y="800" type="curve"/>
      <point x="139" y="533"/>
      <point x="139" y="267"/>
      <point x="139" y="0" type="curve"/>
      <point x="264" y="0"/>
      <point x="139" y="0"/>
    </contour>
  </outline>
</glyph>
<glyph name="n" format="1">
  <advance width="826"/>
  <unicode hex="006E"/>
  <outline>
    <contour>
      <point x="438" y="624" type="move" name="top"/>
    </contour>
    <contour>
      <point x="442" y="28" type="move" name="bottom"/>
    </contour>
    <contour>
      <point x="228" y="273" type="curve"/>
      <point x="265" y="375"/>
      <point x="339" y="441"/>
      <point x="444" y="441" type="curve"/>
      <point x="534" y="441"/>
      <point x="597" y="399"/>
      <point x="597" y="314" type="curve"/>
      <point x="597" y="203"/>
      <point x="597" y="111"/>
      <point x="597" y="0" type="curve"/>
      <point x="654" y="0"/>
      <point x="667" y="0"/>
      <point x="723" y="0" type="curve"/>
      <point x="723" y="115"/>
      <point x="723" y="209"/>
      <point x="723" y="324" type="curve"/>
      <point x="723" y="470"/>
      <point x="626" y="538"/>
      <point x="473" y="538" type="curve"/>
      <point x="326" y="538"/>
      <point x="219" y="457"/>
      <point x="165" y="315" type="curve"/>
      <point x="191" y="293"/>
      <point x="202" y="294"/>
    </contour>
    <contour>
      <point x="659" y="0" type="curve"/>
      <point x="719" y="0"/>
      <point x="760" y="0"/>
      <point x="821" y="0" type="curve"/>
      <point x="821" y="93"/>
      <point x="821" y="0"/>
      <point x="821" y="93" type="curve"/>
      <point x="638" y="93"/>
      <point x="842" y="93"/>
      <point x="659" y="93" type="curve"/>
      <point x="659" y="0"/>
      <point x="659" y="93"/>
    </contour>
    <contour>
      <point x="193" y="93" type="curve"/>
      <point x="11" y="93"/>
      <point x="214" y="93"/>
      <point x="31" y="93" type="curve"/>
      <point x="31" y="0"/>
      <point x="31" y="93"/>
      <point x="31" y="0" type="curve"/>
      <point x="93" y="0"/>
      <point x="133" y="0"/>
      <point x="193" y="0" type="curve"/>
      <point x="193" y="93"/>
      <point x="193" y="0"/>
    </contour>
    <contour>
      <point x="193" y="0" type="curve"/>
      <point x="250" y="0"/>
      <point x="172" y="0"/>
      <point x="342" y="0" type="curve"/>
      <point x="342" y="93"/>
      <point x="342" y="0"/>
      <point x="342" y="93" type="curve"/>
      <point x="172" y="93"/>
      <point x="363" y="93"/>
      <point x="193" y="93" type="curve"/>
      <point x="193" y="0"/>
      <point x="193" y="93"/>
    </contour>
    <contour>
      <point x="256" y="0" type="curve"/>
      <point x="256" y="178"/>
      <point x="256" y="355"/>
      <point x="256" y="533" type="curve"/>
      <point x="130" y="533"/>
      <point x="256" y="533"/>
      <point x="130" y="533" type="curve"/>
      <point x="130" y="355"/>
      <point x="130" y="178"/>
      <point x="130" y="0" type="curve"/>
      <point x="256" y="0"/>
      <point x="130" y="0"/>
    </contour>
    <contour>
      <point x="193" y="533" type="curve"/>
      <point x="133" y="533"/>
      <point x="93" y="533"/>
      <point x="31" y="533" type="curve"/>
      <point x="31" y="440"/>
      <point x="31" y="533"/>
      <point x="31" y="440" type="curve"/>
      <point x="214" y="440"/>
      <point x="11" y="440"/>
      <point x="193" y="440" type="curve"/>
      <point x="193" y="533"/>
      <point x="193" y="440"/>
    </contour>
  </outline>
</glyph>
<glyph name="p" format="1">
  <advance width="805"/>
  <unicode hex="0070"/>
  <outline>
    <contour>
      <point x="170" y="-207" type="curve"/>
      <point x="-14" y="-207"/>
      <point x="191" y="-207"/>
      <point x="7" y="-207" type="curve"/>
      <point x="7" y="-300"/>
      <point x="7" y="-207"/>
      <point x="7" y="-300" type="curve"/>
      <point x="69" y="-300"/>
      <point x="109" y="-300"/>
      <point x="170" y="-300" type="curve"/>
      <point x="170" y="-207"/>
      <point x="170" y="-300"/>
    </contour>
    <contour>
      <point x="170" y="-300" type="curve"/>
      <point x="228" y="-300"/>
      <point x="265" y="-300"/>
      <point x="322" y="-300" type="curve"/>
      <point x="322" y="-207"/>
      <point x="322" y="-300"/>
      <point x="322" y="-207" type="curve"/>
      <point x="150" y="-207"/>
      <point x="343" y="-207"/>
      <point x="170" y="-207" type="curve"/>
      <point x="170" y="-300"/>
      <point x="170" y="-207"/>
    </contour>
    <contour>
      <point x="172" y="533" type="curve"/>
      <point x="111" y="533"/>
      <point x="70" y="533"/>
      <point x="9" y="533" type="curve"/>
      <point x="8" y="440"/>
      <point x="9" y="533"/>
      <point x="8" y="440" type="curve"/>
      <point x="192" y="440"/>
      <point x="-13" y="440"/>
      <point x="172" y="440" type="curve"/>
      <point x="172" y="533"/>
      <point x="172" y="440"/>
    </contour>
    <contour>
      <point x="192" y="316" type="curve"/>
      <point x="255" y="398"/>
      <point x="332" y="448"/>
      <point x="442" y="448" type="curve"/>
      <point x="553" y="448"/>
      <point x="628" y="380"/>
      <point x="628" y="266" type="curve"/>
      <point x="631" y="152"/>
      <point x="552" y="87"/>
      <point x="437" y="88" type="curve"/>
      <point x="343" y="88"/>
      <point x="267" y="120"/>
      <point x="194" y="176" type="curve"/>
      <point x="163" y="155"/>
      <point x="166" y="136"/>
      <point x="135" y="114" type="curve"/>
      <point x="220" y="38"/>
      <point x="324" y="-5"/>
      <point x="451" y="-5" type="curve"/>
      <point x="632" y="-5"/>
      <point x="755" y="95"/>
      <point x="754" y="271" type="curve"/>
      <point x="754" y="440"/>
      <point x="636" y="540"/>
      <point x="462" y="540" type="curve"/>
      <point x="322" y="540"/>
      <point x="222" y="484"/>
      <point x="143" y="382" type="curve"/>
      <point x="169" y="351"/>
      <point x="166" y="348"/>
    </contour>
    <contour>
      <point x="233" y="-300" type="curve"/>
      <point x="233" y="-22"/>
      <point x="233" y="255"/>
      <point x="233" y="533" type="curve"/>
      <point x="108" y="533"/>
      <point x="233" y="533"/>
      <point x="108" y="533" type="curve"/>
      <point x="108" y="255"/>
      <point x="108" y="-22"/>
      <point x="108" y="-300" type="curve"/>
      <point x="233" y="-300"/>
      <point x="108" y="-300"/>
    </contour>
  </outline>
</glyph>
<glyph name="q" format="1">
  <advance width="828"/>
  <unicode hex="0071"/>
  <outline>
    <contour>
      <point x="641" y="440" type="curve"/>
      <point x="733" y="440"/>
      <point x="699" y="440"/>
      <point x="791" y="440" type="curve"/>
      <point x="791" y="482"/>
      <point x="791" y="490"/>
      <point x="791" y="533" type="curve"/>
      <point x="730" y="533"/>
      <point x="703" y="533"/>
      <point x="641" y="533" type="curve"/>
      <point x="641" y="490"/>
      <point x="641" y="482"/>
    </contour>
    <contour>
      <point x="641" y="-207" type="curve"/>
      <point x="542" y="-207"/>
      <point x="579" y="-207"/>
      <point x="479" y="-207" type="curve"/>
      <point x="479" y="-249"/>
      <point x="479" y="-257"/>
      <point x="479" y="-300" type="curve"/>
      <point x="545" y="-300"/>
      <point x="575" y="-300"/>
      <point x="641" y="-300" type="curve"/>
      <point x="641" y="-257"/>
      <point x="641" y="-249"/>
    </contour>
    <contour>
      <point x="641" y="-300" type="curve"/>
      <point x="702" y="-300"/>
      <point x="730" y="-300"/>
      <point x="791" y="-300" type="curve"/>
      <point x="791" y="-257"/>
      <point x="791" y="-249"/>
      <point x="791" y="-207" type="curve"/>
      <point x="698" y="-207"/>
      <point x="733" y="-207"/>
      <point x="641" y="-207" type="curve"/>
      <point x="641" y="-249"/>
      <point x="641" y="-257"/>
    </contour>
    <contour>
      <point x="669" y="393" type="curve"/>
      <point x="578" y="483"/>
      <point x="482" y="538"/>
      <point x="352" y="538" type="curve"/>
      <point x="172" y="538"/>
      <point x="51" y="438"/>
      <point x="51" y="262" type="curve"/>
      <point x="51" y="88"/>
      <point x="177" y="-5"/>
      <point x="358" y="-5" type="curve"/>
      <point x="492" y="-5"/>
      <point x="590" y="54"/>
      <point x="688" y="148" type="curve"/>
      <point x="657" y="174"/>
      <point x="647" y="178"/>
      <point x="616" y="204" type="curve"/>
      <point x="553" y="125"/>
      <point x="474" y="88"/>
      <point x="374" y="88" type="curve"/>
      <point x="258" y="88"/>
      <point x="177" y="152"/>
      <point x="177" y="267" type="curve"/>
      <point x="177" y="381"/>
      <point x="257" y="444"/>
      <point x="372" y="444" type="curve"/>
      <point x="474" y="444"/>
      <point x="556" y="397"/>
      <point x="621" y="327" type="curve"/>
      <point x="647" y="356"/>
      <point x="642" y="364"/>
    </contour>
    <contour>
      <point x="705" y="-300" type="curve"/>
      <point x="705" y="-2"/>
      <point x="705" y="235"/>
      <point x="705" y="533" type="curve"/>
      <point x="646" y="533"/>
      <point x="633" y="533"/>
      <point x="574" y="533" type="curve"/>
      <point x="574" y="235"/>
      <point x="574" y="-2"/>
      <point x="574" y="-300" type="curve"/>
      <point x="633" y="-300"/>
      <point x="646" y="-300"/>
    </contour>
  </outline>
</glyph>
<glyph name="r" format="1">
  <advance width="551"/>
  <unicode hex="0072"/>
  <outline>
    <contour>
      <point x="273" y="625" type="move" name="top"/>
    </contour>
    <contour>
      <point x="232" y="23" type="move" name="bottom"/>
    </contour>
    <contour>
      <point x="216" y="0" type="curve"/>
      <point x="273" y="0"/>
      <point x="313" y="0"/>
      <point x="369" y="0" type="curve"/>
      <point x="369" y="45"/>
      <point x="369" y="49"/>
      <point x="369" y="93" type="curve"/>
      <point x="281" y="93"/>
      <point x="304" y="93"/>
      <point x="216" y="93" type="curve"/>
      <point x="216" y="49"/>
      <point x="216" y="45"/>
    </contour>
    <contour>
      <point x="216" y="93" type="curve"/>
      <point x="123" y="93"/>
      <point x="147" y="93"/>
      <point x="54" y="93" type="curve"/>
      <point x="54" y="49"/>
      <point x="54" y="45"/>
      <point x="54" y="0" type="curve"/>
      <point x="114" y="0"/>
      <point x="157" y="0"/>
      <point x="216" y="0" type="curve"/>
      <point x="216" y="45"/>
      <point x="216" y="49"/>
    </contour>
    <contour>
      <point x="214" y="533" type="curve"/>
      <point x="155" y="533"/>
      <point x="112" y="533"/>
      <point x="53" y="533" type="curve"/>
      <point x="53" y="489"/>
      <point x="53" y="484"/>
      <point x="53" y="440" type="curve"/>
      <point x="146" y="440"/>
      <point x="121" y="440"/>
      <point x="214" y="440" type="curve"/>
      <point x="214" y="484"/>
      <point x="214" y="489"/>
    </contour>
    <contour>
      <point x="279" y="0" type="curve"/>
      <point x="279" y="196"/>
      <point x="279" y="337"/>
      <point x="279" y="533" type="curve"/>
      <point x="220" y="533"/>
      <point x="211" y="533"/>
      <point x="152" y="533" type="curve"/>
      <point x="152" y="337"/>
      <point x="152" y="196"/>
      <point x="152" y="0" type="curve"/>
      <point x="211" y="0"/>
      <point x="220" y="0"/>
    </contour>
    <contour>
      <point x="245" y="282" type="curve"/>
      <point x="311" y="398"/>
      <point x="400" y="428"/>
      <point x="528" y="428" type="curve"/>
      <point x="528" y="479"/>
      <point x="528" y="487"/>
      <point x="528" y="538" type="curve"/>
      <point x="381" y="538"/>
      <point x="281" y="477"/>
      <point x="206" y="351" type="curve"/>
      <point x="227" y="318"/>
      <point x="225" y="316"/>
    </contour>
  </outline>
</glyph>
<glyph name="s" format="1">
  <advance width="644"/>
  <unicode hex="0073"/>
  <outline>
    <contour>
      <point x="313" y="625" type="move" name="top"/>
    </contour>
    <contour>
      <point x="347" y="6" type="move" name="bottom"/>
    </contour>
    <contour>
      <point x="63" y="47" type="curve"/>
      <point x="156" y="15"/>
      <point x="228" y="-5"/>
      <point x="322" y="-5" type="curve"/>
      <point x="475" y="-5"/>
      <point x="593" y="29"/>
      <point x="593" y="158" type="curve"/>
      <point x="592" y="281"/>
      <point x="473" y="289"/>
      <point x="336" y="320" type="curve" smooth="yes"/>
      <point x="261" y="336"/>
      <point x="187" y="347"/>
      <point x="187" y="394" type="curve"/>
      <point x="187" y="430"/>
      <point x="240" y="444"/>
      <point x="305" y="444" type="curve"/>
      <point x="366" y="444"/>
      <point x="440" y="428"/>
      <point x="481" y="409" type="curve"/>
      <point x="538" y="492"/>
      <point x="482" y="409"/>
      <point x="539" y="492" type="curve"/>
      <point x="485" y="517"/>
      <point x="389" y="538"/>
      <point x="310" y="538" type="curve"/>
      <point x="175" y="538"/>
      <point x="73" y="505"/>
      <point x="73" y="393" type="curve"/>
      <point x="73" y="283"/>
      <point x="171" y="256"/>
      <point x="296" y="229" type="curve" smooth="yes"/>
      <point x="380" y="209"/>
      <point x="472" y="206"/>
      <point x="472" y="155" type="curve"/>
      <point x="472" y="109"/>
      <point x="412" y="89"/>
      <point x="339" y="89" type="curve"/>
      <point x="259" y="89"/>
      <point x="203" y="105"/>
      <point x="126" y="132" type="curve"/>
      <point x="63" y="47"/>
      <point x="127" y="131"/>
    </contour>
    <contour>
      <point x="441" y="492" type="curve"/>
      <point x="441" y="372"/>
      <point x="441" y="480"/>
      <point x="441" y="360" type="curve"/>
      <point x="539" y="360"/>
      <point x="441" y="360"/>
      <point x="539" y="360" type="curve"/>
      <point x="539" y="480"/>
      <point x="539" y="372"/>
      <point x="539" y="492" type="curve"/>
      <point x="441" y="492"/>
      <point x="538" y="492"/>
    </contour>
    <contour>
      <point x="158" y="47" type="curve"/>
      <point x="158" y="169"/>
      <point x="158" y="65"/>
      <point x="158" y="187" type="curve"/>
      <point x="60" y="187"/>
      <point x="158" y="187"/>
      <point x="60" y="187" type="curve"/>
      <point x="60" y="65"/>
      <point x="60" y="169"/>
      <point x="60" y="47" type="curve"/>
      <point x="158" y="47"/>
      <point x="60" y="47"/>
    </contour>
  </outline>
</glyph>
<glyph name="t" format="1">
  <advance width="508"/>
  <unicode hex="0074"/>
  <outline>
    <contour>
      <point x="365" y="6" type="move" name="bottom"/>
    </contour>
    <contour>
      <point x="16" y="440" type="curve"/>
      <point x="472" y="440" type="line"/>
      <point x="472" y="534"/>
      <point x="472" y="440"/>
      <point x="472" y="534" type="curve"/>
      <point x="16" y="534" type="line"/>
      <point x="16" y="440"/>
      <point x="16" y="534"/>
    </contour>
    <contour>
      <point x="457" y="110" type="curve"/>
      <point x="422" y="96"/>
      <point x="396" y="91"/>
      <point x="359" y="91" type="curve"/>
      <point x="303" y="91"/>
      <point x="272" y="115"/>
      <point x="272" y="170" type="curve"/>
      <point x="272" y="688" type="line"/>
      <point x="256" y="678"/>
      <point x="162" y="629"/>
      <point x="147" y="619" type="curve"/>
      <point x="147" y="165" type="line"/>
      <point x="147" y="46"/>
      <point x="225" y="-6"/>
      <point x="347" y="-6" type="curve"/>
      <point x="408" y="-6"/>
      <point x="449" y="10"/>
      <point x="490" y="27" type="curve"/>
      <point x="457" y="110"/>
      <point x="490" y="27"/>
    </contour>
  </outline>
</glyph>
<glyph name="v" format="1">
  <advance width="798"/>
  <unicode hex="0076"/>
  <outline>
    <contour>
      <point x="158" y="533" type="curve"/>
      <point x="112" y="533"/>
      <point x="65" y="533"/>
      <point x="19" y="533" type="curve"/>
      <point x="19" y="440"/>
      <point x="19" y="533"/>
      <point x="19" y="440" type="curve"/>
      <point x="158" y="440"/>
      <point x="19" y="440"/>
      <point x="158" y="440" type="curve"/>
      <point x="158" y="533"/>
      <point x="158" y="440"/>
    </contour>
    <contour>
      <point x="158" y="440" type="curve"/>
      <point x="319" y="440"/>
      <point x="158" y="440"/>
      <point x="319" y="440" type="curve"/>
      <point x="319" y="533"/>
      <point x="319" y="440"/>
      <point x="319" y="533" type="curve"/>
      <point x="265" y="533"/>
      <point x="211" y="533"/>
      <point x="158" y="533" type="curve"/>
      <point x="158" y="440"/>
      <point x="158" y="533"/>
    </contour>
    <contour>
      <point x="645" y="533" type="curve"/>
      <point x="591" y="533"/>
      <point x="538" y="533"/>
      <point x="484" y="533" type="curve"/>
      <point x="484" y="440"/>
      <point x="484" y="533"/>
      <point x="484" y="440" type="curve"/>
      <point x="645" y="440"/>
      <point x="483" y="440"/>
      <point x="645" y="440" type="curve"/>
      <point x="645" y="533"/>
      <point x="645" y="440"/>
    </contour>
    <contour>
      <point x="645" y="440" type="curve"/>
      <point x="791" y="440"/>
      <point x="644" y="440"/>
      <point x="791" y="440" type="curve"/>
      <point x="791" y="533"/>
      <point x="791" y="440"/>
      <point x="791" y="533" type="curve"/>
      <point x="742" y="533"/>
      <point x="694" y="533"/>
      <point x="645" y="533" type="curve"/>
      <point x="645" y="440"/>
      <point x="645" y="533"/>
    </contour>
    <contour>
      <point x="67" y="533" type="curve"/>
      <point x="154" y="355"/>
      <point x="241" y="178"/>
      <point x="328" y="0" type="curve"/>
      <point x="453" y="0"/>
      <point x="328" y="0"/>
      <point x="453" y="0" type="curve"/>
      <point x="368" y="178"/>
      <point x="282" y="355"/>
      <point x="195" y="533" type="curve"/>
      <point x="67" y="533"/>
      <point x="195" y="533"/>
    </contour>
    <contour>
      <point x="609" y="533" type="curve"/>
      <point x="336" y="0" type="line"/>
      <point x="462" y="0"/>
      <point x="336" y="0"/>
      <point x="462" y="0" type="curve"/>
      <point x="553" y="178"/>
      <point x="644" y="355"/>
      <point x="736" y="533" type="curve"/>
      <point x="609" y="533"/>
      <point x="736" y="533"/>
    </contour>
  </outline>
</glyph>
<glyph name="w" format="1">
  <advance width="1215"/>
  <unicode hex="0077"/>
  <outline>
    <contour>
      <point x="1049" y="440" type="curve"/>
      <point x="1203" y="440"/>
      <point x="1049" y="440"/>
      <point x="1202" y="440" type="curve"/>
      <point x="1202" y="533"/>
      <point x="1202" y="440"/>
      <point x="1202" y="533" type="curve"/>
      <point x="1150" y="533"/>
      <point x="1099" y="533"/>
      <point x="1049" y="533" type="curve"/>
      <point x="1049" y="440"/>
      <point x="1049" y="533"/>
    </contour>
    <contour>
      <point x="1049" y="533" type="curve"/>
      <point x="997" y="533"/>
      <point x="947" y="533"/>
      <point x="896" y="533" type="curve"/>
      <point x="896" y="440"/>
      <point x="896" y="533"/>
      <point x="896" y="440" type="curve"/>
      <point x="1050" y="440"/>
      <point x="895" y="440"/>
      <point x="1049" y="440" type="curve"/>
      <point x="1049" y="533"/>
      <point x="1049" y="440"/>
    </contour>
    <contour>
      <point x="169" y="533" type="curve"/>
      <point x="118" y="533"/>
      <point x="66" y="533"/>
      <point x="15" y="533" type="curve"/>
      <point x="15" y="440"/>
      <point x="15" y="533"/>
      <point x="15" y="440" type="curve"/>
      <point x="169" y="440"/>
      <point x="15" y="440"/>
      <point x="169" y="440" type="curve"/>
      <point x="169" y="533"/>
      <point x="169" y="440"/>
    </contour>
    <contour>
      <point x="169" y="440" type="curve"/>
      <point x="322" y="440"/>
      <point x="168" y="440"/>
      <point x="322" y="440" type="curve"/>
      <point x="322" y="533"/>
      <point x="322" y="440"/>
      <point x="322" y="533" type="curve"/>
      <point x="270" y="533"/>
      <point x="221" y="533"/>
      <point x="169" y="533" type="curve"/>
      <point x="169" y="440"/>
      <point x="169" y="533"/>
    </contour>
    <contour>
      <point x="422" y="0" type="curve"/>
      <point x="507" y="178"/>
      <point x="591" y="355"/>
      <point x="677" y="533" type="curve"/>
      <point x="550" y="533"/>
      <point x="677" y="533"/>
      <point x="550" y="533" type="curve"/>
      <point x="466" y="355"/>
      <point x="383" y="178"/>
      <point x="299" y="0" type="curve"/>
      <point x="422" y="0"/>
      <point x="299" y="0"/>
    </contour>
    <contour>
      <point x="1023" y="533" type="curve"/>
      <point x="944" y="355"/>
      <point x="867" y="178"/>
      <point x="788" y="0" type="curve"/>
      <point x="911" y="0"/>
      <point x="788" y="0"/>
      <point x="911" y="0" type="curve"/>
      <point x="991" y="178"/>
      <point x="1070" y="355"/>
      <point x="1150" y="533" type="curve"/>
      <point x="1023" y="533"/>
      <point x="1150" y="533"/>
    </contour>
    <contour>
      <point x="557" y="533" type="curve"/>
      <point x="634" y="355"/>
      <point x="710" y="178"/>
      <point x="786" y="0" type="curve"/>
      <point x="910" y="0"/>
      <point x="786" y="0"/>
      <point x="910" y="0" type="curve"/>
      <point x="835" y="178"/>
      <point x="758" y="355"/>
      <point x="682" y="533" type="curve"/>
      <point x="557" y="533"/>
      <point x="682" y="533"/>
    </contour>
    <contour>
      <point x="69" y="533" type="curve"/>
      <point x="145" y="355"/>
      <point x="221" y="178"/>
      <point x="297" y="0" type="curve"/>
      <point x="421" y="0"/>
      <point x="297" y="0"/>
      <point x="421" y="0" type="curve"/>
      <point x="345" y="178"/>
      <point x="270" y="355"/>
      <point x="195" y="533" type="curve"/>
      <point x="69" y="533"/>
      <point x="195" y="533"/>
    </contour>
  </outline>
</glyph>
<glyph name="x" format="1">
  <advance width="782"/>
  <unicode hex="0078"/>
  <outline>
    <contour>
      <point x="150" y="93" type="curve"/>
      <point x="-14" y="93"/>
      <point x="177" y="93"/>
      <point x="13" y="93" type="curve"/>
      <point x="13" y="0"/>
      <point x="13" y="93"/>
      <point x="13" y="0" type="curve"/>
      <point x="67" y="0"/>
      <point x="95" y="0"/>
      <point x="150" y="0" type="curve"/>
      <point x="150" y="93"/>
      <point x="150" y="0"/>
    </contour>
    <contour>
      <point x="644" y="93" type="curve"/>
      <point x="433" y="93"/>
      <point x="657" y="93"/>
      <point x="446" y="93" type="curve"/>
      <point x="446" y="0"/>
      <point x="446" y="93"/>
      <point x="446" y="0" type="curve"/>
      <point x="516" y="0"/>
      <point x="573" y="0"/>
      <point x="644" y="0" type="curve"/>
      <point x="644" y="93"/>
      <point x="644" y="0"/>
    </contour>
    <contour>
      <point x="642" y="0" type="curve"/>
      <point x="695" y="0"/>
      <point x="721" y="0"/>
      <point x="773" y="0" type="curve"/>
      <point x="773" y="93"/>
      <point x="773" y="0"/>
      <point x="773" y="93" type="curve"/>
      <point x="616" y="93"/>
      <point x="798" y="93"/>
      <point x="642" y="93" type="curve"/>
      <point x="642" y="0"/>
      <point x="642" y="93"/>
    </contour>
    <contour>
      <point x="148" y="0" type="curve"/>
      <point x="218" y="0"/>
      <point x="134" y="0"/>
      <point x="346" y="0" type="curve"/>
      <point x="346" y="93"/>
      <point x="346" y="0"/>
      <point x="346" y="93" type="curve"/>
      <point x="134" y="93"/>
      <point x="359" y="93"/>
      <point x="148" y="93" type="curve"/>
      <point x="148" y="0"/>
      <point x="148" y="93"/>
    </contour>
    <contour>
      <point x="609" y="440" type="curve"/>
      <point x="773" y="440"/>
      <point x="583" y="440"/>
      <point x="747" y="440" type="curve"/>
      <point x="747" y="533"/>
      <point x="747" y="440"/>
      <point x="747" y="533" type="curve"/>
      <point x="692" y="533"/>
      <point x="662" y="533"/>
      <point x="609" y="533" type="curve"/>
      <point x="609" y="440"/>
      <point x="609" y="533"/>
    </contour>
    <contour>
      <point x="184" y="533" type="curve"/>
      <point x="129" y="533"/>
      <point x="100" y="533"/>
      <point x="45" y="533" type="curve"/>
      <point x="45" y="440"/>
      <point x="45" y="533"/>
      <point x="45" y="440" type="curve"/>
      <point x="211" y="440"/>
      <point x="19" y="440"/>
      <point x="184" y="440" type="curve"/>
      <point x="184" y="533"/>
      <point x="184" y="440"/>
    </contour>
    <contour>
      <point x="161" y="440" type="curve"/>
      <point x="364" y="440"/>
      <point x="141" y="440"/>
      <point x="343" y="440" type="curve"/>
      <point x="343" y="533"/>
      <point x="343" y="440"/>
      <point x="343" y="533" type="curve"/>
      <point x="276" y="533"/>
      <point x="228" y="533"/>
      <point x="161" y="533" type="curve"/>
      <point x="161" y="440"/>
      <point x="161" y="533"/>
    </contour>
    <contour>
      <point x="611" y="533" type="curve"/>
      <point x="550" y="533"/>
      <point x="509" y="533"/>
      <point x="449" y="533" type="curve"/>
      <point x="449" y="440"/>
      <point x="449" y="533"/>
      <point x="449" y="440" type="curve"/>
      <point x="631" y="440"/>
      <point x="428" y="440"/>
      <point x="611" y="440" type="curve"/>
      <point x="611" y="533"/>
      <point x="611" y="440"/>
    </contour>
    <contour>
      <point x="706" y="40" type="curve"/>
      <point x="662" y="84"/>
      <point x="227" y="490"/>
      <point x="183" y="533" type="curve"/>
      <point x="53" y="533"/>
      <point x="223" y="492"/>
      <point x="92" y="492" type="curve"/>
      <point x="136" y="449"/>
      <point x="560" y="43"/>
      <point x="603" y="0" type="curve"/>
      <point x="746" y="0"/>
      <point x="563" y="40"/>
    </contour>
    <contour>
      <point x="610" y="533" type="curve"/>
      <point x="566" y="490"/>
      <point x="121" y="83"/>
      <point x="77" y="39" type="curve"/>
      <point x="223" y="39"/>
      <point x="39" y="0"/>
      <point x="186" y="0" type="curve"/>
      <point x="230" y="43"/>
      <point x="651" y="442"/>
      <point x="695" y="485" type="curve"/>
      <point x="563" y="485"/>
      <point x="742" y="533"/>
    </contour>
  </outline>
</glyph>
<glyph name="z" format="1">
  <advance width="660"/>
  <unicode hex="007A"/>
  <outline>
    <contour>
      <point x="329" y="624" type="move" name="top"/>
    </contour>
    <contour>
      <point x="70" y="440" type="curve"/>
      <point x="233" y="440"/>
      <point x="389" y="440"/>
      <point x="552" y="440" type="curve"/>
      <point x="542" y="450"/>
      <point x="524" y="445"/>
      <point x="515" y="457" type="curve"/>
      <point x="508" y="466"/>
      <point x="505" y="478"/>
      <point x="498" y="487" type="curve"/>
      <point x="490" y="480"/>
      <point x="481" y="485"/>
      <point x="473" y="477" type="curve"/>
      <point x="48" y="93" type="line"/>
      <point x="48" y="46"/>
      <point x="48" y="93"/>
      <point x="48" y="46" type="curve"/>
      <point x="48" y="0"/>
      <point x="48" y="46"/>
      <point x="48" y="0" type="curve"/>
      <point x="93" y="0"/>
      <point x="48" y="0"/>
      <point x="93" y="0" type="curve"/>
      <point x="628" y="0"/>
      <point x="443" y="0"/>
      <point x="622" y="0" type="curve"/>
      <point x="622" y="93"/>
      <point x="622" y="0"/>
      <point x="622" y="93" type="curve"/>
      <point x="443" y="93"/>
      <point x="271" y="93"/>
      <point x="93" y="93" type="curve"/>
      <point x="102" y="87"/>
      <point x="114" y="86"/>
      <point x="124" y="80" type="curve"/>
      <point x="132" y="69"/>
      <point x="138" y="56"/>
      <point x="145" y="46" type="curve"/>
      <point x="152" y="52"/>
      <point x="156" y="49"/>
      <point x="163" y="56" type="curve"/>
      <point x="587" y="440" type="line"/>
      <point x="587" y="487"/>
      <point x="587" y="440"/>
      <point x="587" y="487" type="curve"/>
      <point x="587" y="533"/>
      <point x="587" y="487"/>
      <point x="587" y="533" type="curve"/>
      <point x="552" y="533"/>
      <point x="587" y="533"/>
      <point x="552" y="533" type="curve"/>
      <point x="389" y="533"/>
      <point x="233" y="533"/>
      <point x="70" y="533" type="curve"/>
      <point x="70" y="440"/>
      <point x="70" y="533"/>
    </contour>
    <contour>
      <point x="70" y="486" type="curve"/>
      <point x="70" y="366"/>
      <point x="70" y="487"/>
      <point x="70" y="367" type="curve"/>
      <point x="168" y="367"/>
      <point x="70" y="367"/>
      <point x="168" y="367" type="curve"/>
      <point x="168" y="487"/>
      <point x="168" y="366"/>
      <point x="168" y="486" type="curve"/>
      <point x="70" y="486"/>
      <point x="168" y="486"/>
    </contour>
    <contour>
      <point x="622" y="47" type="curve"/>
      <point x="622" y="167"/>
      <point x="622" y="46"/>
      <point x="622" y="166" type="curve"/>
      <point x="524" y="166"/>
      <point x="622" y="166"/>
      <point x="524" y="166" type="curve"/>
      <point x="524" y="46"/>
      <point x="524" y="167"/>
      <point x="524" y="47" type="curve"/>
      <point x="622" y="47"/>
      <point x="524" y="47"/>
    </contour>
  </outline>
</glyph>
<glyph name="braceright" format="1">
  <advance width="385"/>
  <unicode hex="007D"/>
  <outline>
    <contour>
      <point x="55" y="-111" type="curve"/>
      <point x="175" y="-111"/>
      <point x="257" y="-52"/>
      <point x="257" y="63" type="curve"/>
      <point x="257" y="117"/>
      <point x="257" y="171"/>
      <point x="257" y="225" type="curve"/>
      <point x="257" y="272"/>
      <point x="294" y="291"/>
      <point x="344" y="291" type="curve"/>
      <point x="344" y="390"/>
      <point x="344" y="291"/>
      <point x="344" y="390" type="curve"/>
      <point x="226" y="390"/>
      <point x="142" y="328"/>
      <point x="142" y="216" type="curve"/>
      <point x="142" y="163"/>
      <point x="142" y="111"/>
      <point x="142" y="59" type="curve"/>
      <point x="142" y="8"/>
      <point x="107" y="-18"/>
      <point x="55" y="-18" type="curve"/>
      <point x="55" y="-111"/>
      <point x="55" y="-18"/>
    </contour>
    <contour>
      <point x="55" y="699" type="curve"/>
      <point x="108" y="699"/>
      <point x="142" y="672"/>
      <point x="142" y="621" type="curve"/>
      <point x="142" y="569"/>
      <point x="142" y="518"/>
      <point x="142" y="467" type="curve"/>
      <point x="142" y="353"/>
      <point x="225" y="291"/>
      <point x="344" y="291" type="curve"/>
      <point x="344" y="390"/>
      <point x="344" y="291"/>
      <point x="344" y="390" type="curve"/>
      <point x="294" y="390"/>
      <point x="257" y="407"/>
      <point x="257" y="453" type="curve"/>
      <point x="257" y="509"/>
      <point x="257" y="565"/>
      <point x="257" y="621" type="curve"/>
      <point x="257" y="734"/>
      <point x="174" y="791"/>
      <point x="55" y="791" type="curve"/>
      <point x="55" y="699"/>
      <point x="55" y="791"/>
    </contour>
  </outline>
</glyph>
<glyph name="asciitilde" format="1">
  <advance width="836"/>
  <unicode hex="007E"/>
  <outline>
    <contour>
      <point x="667" y="372" type="curve"/>
      <point x="647" y="326"/>
      <point x="626" y="290"/>
      <point x="575" y="290" type="curve"/>
      <point x="524" y="290"/>
      <point x="492" y="300"/>
      <point x="448" y="326" type="curve"/>
      <point x="386" y="364"/>
      <point x="345" y="384"/>
      <point x="272" y="384" type="curve"/>
      <point x="167" y="384"/>
      <point x="109" y="340"/>
      <point x="73" y="244" type="curve"/>
      <point x="109" y="227"/>
      <point x="124" y="220"/>
      <point x="161" y="204" type="curve"/>
      <point x="181" y="256"/>
      <point x="208" y="290"/>
      <point x="266" y="290" type="curve"/>
      <point x="309" y="290"/>
      <point x="336" y="281"/>
      <point x="373" y="258" type="curve"/>
      <point x="440" y="218"/>
      <point x="485" y="198"/>
      <point x="564" y="197" type="curve"/>
      <point x="666" y="197"/>
      <point x="722" y="240"/>
      <point x="765" y="330" type="curve"/>
      <point x="724" y="348"/>
      <point x="709" y="355"/>
    </contour>
  </outline>
</glyph>
<glyph name="exclamdown" format="1">
  <advance width="289"/>
  <unicode hex="00A1"/>
  <outline>
    <contour>
      <point x="95" y="306" type="line"/>
      <point x="79" y="-187" type="line"/>
      <point x="210" y="-187" type="line"/>
      <point x="194" y="306" type="line"/>
    </contour>
    <contour>
      <point x="70" y="483" type="curve"/>
      <point x="70" y="442"/>
      <point x="102" y="422"/>
      <point x="145" y="421" type="curve"/>
      <point x="189" y="421"/>
      <point x="218" y="443"/>
      <point x="218" y="483" type="curve"/>
      <point x="75" y="483"/>
      <point x="213" y="483"/>
      <point x="70" y="483" type="curve"/>
      <point x="70" y="526"/>
      <point x="102" y="544"/>
      <point x="146" y="544" type="curve"/>
      <point x="190" y="544"/>
      <point x="218" y="524"/>
      <point x="218" y="483" type="curve"/>
      <point x="75" y="483"/>
      <point x="213" y="483"/>
    </contour>
  </outline>
</glyph>
<glyph name="cent" format="1">
  <advance width="822"/>
  <unicode hex="00A2"/>
  <outline>
    <contour>
      <point x="497" y="-53" type="curve"/>
      <point x="497" y="-13"/>
      <point x="497" y="27"/>
      <point x="497" y="67" type="curve"/>
      <point x="371" y="67"/>
      <point x="497" y="67"/>
      <point x="371" y="67" type="curve"/>
      <point x="371" y="27"/>
      <point x="371" y="-13"/>
      <point x="371" y="-53" type="curve"/>
      <point x="497" y="-53"/>
      <point x="371" y="-53"/>
    </contour>
    <contour>
      <point x="398" y="778" type="curve"/>
      <point x="398" y="742"/>
      <point x="398" y="706"/>
      <point x="398" y="670" type="curve"/>
      <point x="523" y="670"/>
      <point x="398" y="670"/>
      <point x="523" y="670" type="curve"/>
      <point x="523" y="706"/>
      <point x="523" y="742"/>
      <point x="523" y="778" type="curve"/>
      <point x="398" y="778"/>
      <point x="523" y="778"/>
    </contour>
    <contour>
      <point x="759" y="616" type="curve"/>
      <point x="661" y="667"/>
      <point x="582" y="685"/>
      <point x="470" y="685" type="curve"/>
      <point x="233" y="685"/>
      <point x="56" y="583"/>
      <point x="56" y="364" type="curve"/>
      <point x="56" y="157"/>
      <point x="208" y="46"/>
      <point x="427" y="46" type="curve"/>
      <point x="557" y="46"/>
      <point x="649" y="72"/>
      <point x="761" y="137" type="curve"/>
      <point x="694" y="220"/>
      <point x="761" y="137"/>
      <point x="694" y="220" type="curve"/>
      <point x="601" y="166"/>
      <point x="533" y="144"/>
      <point x="439" y="144" type="curve"/>
      <point x="287" y="144"/>
      <point x="182" y="223"/>
      <point x="182" y="369" type="curve"/>
      <point x="182" y="517"/>
      <point x="299" y="588"/>
      <point x="458" y="588" type="curve"/>
      <point x="548" y="588"/>
      <point x="612" y="573"/>
      <point x="704" y="531" type="curve"/>
      <point x="759" y="616"/>
      <point x="704" y="531"/>
    </contour>
    <contour>
      <point x="663" y="616" type="curve"/>
      <point x="663" y="491"/>
      <point x="663" y="593"/>
      <point x="663" y="468" type="curve"/>
      <point x="759" y="468"/>
      <point x="663" y="468"/>
      <point x="759" y="468" type="curve"/>
      <point x="759" y="593"/>
      <point x="759" y="491"/>
      <point x="759" y="616" type="curve"/>
      <point x="663" y="616"/>
      <point x="759" y="616"/>
    </contour>
  </outline>
</glyph>
<glyph name="sterling" format="1">
  <advance width="641"/>
  <unicode hex="00A3"/>
  <outline>
    <contour>
      <point x="561" y="93" type="curve"/>
      <point x="392" y="93"/>
      <point x="223" y="93"/>
      <point x="55" y="93" type="curve"/>
      <point x="55" y="0"/>
      <point x="55" y="93"/>
      <point x="55" y="0" type="curve"/>
      <point x="223" y="0"/>
      <point x="392" y="0"/>
      <point x="561" y="0" type="curve"/>
      <point x="561" y="93"/>
      <point x="561" y="0"/>
    </contour>
    <contour>
      <point x="501" y="422" type="curve"/>
      <point x="367" y="422"/>
      <point x="232" y="422"/>
      <point x="98" y="422" type="curve"/>
      <point x="98" y="328"/>
      <point x="98" y="422"/>
      <point x="98" y="328" type="curve"/>
      <point x="232" y="328"/>
      <point x="367" y="328"/>
      <point x="501" y="328" type="curve"/>
      <point x="501" y="422"/>
      <point x="501" y="328"/>
    </contour>
    <contour>
      <point x="594" y="664" type="curve"/>
      <point x="532" y="707"/>
      <point x="481" y="720"/>
      <point x="407" y="720" type="curve"/>
      <point x="219" y="720"/>
      <point x="114" y="562"/>
      <point x="170" y="366" type="curve"/>
      <point x="211" y="220"/>
      <point x="170" y="93"/>
      <point x="55" y="93" type="curve"/>
      <point x="55" y="0"/>
      <point x="55" y="93"/>
      <point x="55" y="0" type="curve"/>
      <point x="256" y="0"/>
      <point x="352" y="175"/>
      <point x="294" y="384" type="curve"/>
      <point x="258" y="518"/>
      <point x="301" y="632"/>
      <point x="401" y="632" type="curve"/>
      <point x="453" y="632"/>
      <point x="488" y="620"/>
      <point x="535" y="595" type="curve"/>
      <point x="594" y="664"/>
      <point x="535" y="595"/>
    </contour>
  </outline>
</glyph>
<glyph name="currency" format="1">
  <advance width="779"/>
  <unicode hex="00A4"/>
  <outline>
    <contour>
      <point x="268" y="315" type="curve"/>
      <point x="268" y="379"/>
      <point x="319" y="411"/>
      <point x="388" y="411" type="curve"/>
      <point x="460" y="411"/>
      <point x="512" y="380"/>
      <point x="512" y="314" type="curve"/>
      <point x="512" y="249"/>
      <point x="465" y="214"/>
      <point x="398" y="214" type="curve"/>
      <point x="322" y="214"/>
      <point x="268" y="246"/>
      <point x="268" y="315" type="curve"/>
      <point x="142" y="315"/>
      <point x="268" y="315"/>
      <point x="142" y="315" type="curve"/>
      <point x="142" y="182"/>
      <point x="249" y="121"/>
      <point x="393" y="121" type="curve"/>
      <point x="534" y="121"/>
      <point x="637" y="187"/>
      <point x="637" y="318" type="curve"/>
      <point x="637" y="444"/>
      <point x="535" y="505"/>
      <point x="400" y="505" type="curve"/>
      <point x="253" y="505"/>
      <point x="142" y="448"/>
      <point x="142" y="315" type="curve"/>
      <point x="268" y="315"/>
      <point x="142" y="315"/>
    </contour>
    <contour>
      <point x="553" y="321" type="line"/>
      <point x="716" y="473" type="line"/>
      <point x="617" y="572" type="line"/>
      <point x="465" y="409" type="line"/>
    </contour>
    <contour>
      <point x="467" y="222" type="line"/>
      <point x="618" y="58" type="line"/>
      <point x="718" y="158" type="line"/>
      <point x="554" y="309" type="line"/>
    </contour>
    <contour>
      <point x="225" y="311" type="line"/>
      <point x="61" y="159" type="line"/>
      <point x="160" y="60" type="line"/>
      <point x="312" y="224" type="line"/>
    </contour>
    <contour>
      <point x="313" y="410" type="line"/>
      <point x="161" y="574" type="line"/>
      <point x="62" y="475" type="line"/>
      <point x="225" y="323" type="line"/>
    </contour>
  </outline>
</glyph>
<glyph name="section" format="1">
  <advance width="655"/>
  <unicode hex="00A7"/>
  <outline>
    <contour>
      <point x="532" y="704" type="curve"/>
      <point x="461" y="733"/>
      <point x="408" y="749"/>
      <point x="332" y="749" type="curve"/>
      <point x="203" y="749"/>
      <point x="104" y="709"/>
      <point x="104" y="600" type="curve"/>
      <point x="104" y="503"/>
      <point x="182" y="463"/>
      <point x="283" y="437" type="curve"/>
      <point x="368" y="416"/>
      <point x="471" y="418"/>
      <point x="471" y="355" type="curve"/>
      <point x="471" y="295"/>
      <point x="409" y="281"/>
      <point x="336" y="271" type="curve"/>
      <point x="410" y="197"/>
      <point x="336" y="271"/>
      <point x="410" y="197" type="curve"/>
      <point x="518" y="216"/>
      <point x="597" y="260"/>
      <point x="597" y="361" type="curve"/>
      <point x="596" y="484"/>
      <point x="475" y="497"/>
      <point x="345" y="525" type="curve"/>
      <point x="287" y="540"/>
      <point x="228" y="549"/>
      <point x="228" y="600" type="curve"/>
      <point x="228" y="644"/>
      <point x="269" y="656"/>
      <point x="322" y="656" type="curve"/>
      <point x="381" y="656"/>
      <point x="421" y="648"/>
      <point x="485" y="624" type="curve"/>
      <point x="532" y="704"/>
      <point x="485" y="624"/>
    </contour>
    <contour>
      <point x="242" y="525" type="curve"/>
      <point x="141" y="502"/>
      <point x="61" y="464"/>
      <point x="61" y="366" type="curve"/>
      <point x="61" y="252"/>
      <point x="166" y="227"/>
      <point x="287" y="199" type="curve"/>
      <point x="357" y="181"/>
      <point x="435" y="174"/>
      <point x="435" y="122" type="curve"/>
      <point x="435" y="77"/>
      <point x="388" y="66"/>
      <point x="332" y="66" type="curve"/>
      <point x="266" y="66"/>
      <point x="221" y="78"/>
      <point x="151" y="108" type="curve"/>
      <point x="94" y="33"/>
      <point x="151" y="108"/>
      <point x="94" y="33" type="curve"/>
      <point x="173" y="-10"/>
      <point x="237" y="-27"/>
      <point x="326" y="-27" type="curve"/>
      <point x="455" y="-27"/>
      <point x="561" y="11"/>
      <point x="561" y="126" type="curve"/>
      <point x="559" y="228"/>
      <point x="473" y="264"/>
      <point x="368" y="287" type="curve"/>
      <point x="282" y="308"/>
      <point x="186" y="308"/>
      <point x="186" y="375" type="curve"/>
      <point x="186" y="429"/>
      <point x="241" y="441"/>
      <point x="305" y="456" type="curve"/>
      <point x="242" y="525"/>
      <point x="305" y="456"/>
    </contour>
    <contour>
      <point x="191" y="33" type="curve"/>
      <point x="191" y="153"/>
      <point x="191" y="39"/>
      <point x="191" y="159" type="curve"/>
      <point x="94" y="159"/>
      <point x="191" y="159"/>
      <point x="94" y="159" type="curve"/>
      <point x="94" y="39"/>
      <point x="94" y="153"/>
      <point x="94" y="33" type="curve"/>
      <point x="191" y="33"/>
      <point x="94" y="33"/>
    </contour>
    <contour>
      <point x="532" y="578" type="curve"/>
      <point x="532" y="698"/>
      <point x="532" y="584"/>
      <point x="532" y="704" type="curve"/>
      <point x="436" y="704"/>
      <point x="532" y="704"/>
      <point x="436" y="704" type="curve"/>
      <point x="436" y="584"/>
      <point x="436" y="698"/>
      <point x="436" y="578" type="curve"/>
      <point x="532" y="578"/>
      <point x="436" y="578"/>
    </contour>
  </outline>
</glyph>
<glyph name="dieresis" format="1">
  <advance width="447"/>
  <unicode hex="00A8"/>
  <outline>
    <contour>
      <point x="217" y="542" type="move" name="_top"/>
    </contour>
    <contour>
      <point x="183" y="600" type="curve"/>
      <point x="183" y="642"/>
      <point x="151" y="662"/>
      <point x="107" y="662" type="curve"/>
      <point x="65" y="662"/>
      <point x="34" y="640"/>
      <point x="34" y="600" type="curve"/>
      <point x="178" y="600"/>
      <point x="39" y="600"/>
      <point x="183" y="600" type="curve"/>
      <point x="183" y="558"/>
      <point x="151" y="540"/>
      <point x="107" y="540" type="curve"/>
      <point x="64" y="540"/>
      <point x="34" y="560"/>
      <point x="34" y="600" type="curve"/>
      <point x="178" y="600"/>
      <point x="39" y="600"/>
    </contour>
    <contour>
      <point x="400" y="600" type="curve"/>
      <point x="400" y="642"/>
      <point x="368" y="662"/>
      <point x="324" y="662" type="curve"/>
      <point x="281" y="662"/>
      <point x="251" y="640"/>
      <point x="251" y="600" type="curve"/>
      <point x="395" y="600"/>
      <point x="256" y="600"/>
      <point x="400" y="600" type="curve"/>
      <point x="400" y="558"/>
      <point x="368" y="540"/>
      <point x="323" y="540" type="curve"/>
      <point x="281" y="540"/>
      <point x="251" y="560"/>
      <point x="251" y="600" type="curve"/>
      <point x="395" y="600"/>
      <point x="256" y="600"/>
    </contour>
  </outline>
</glyph>
<glyph name="copyright" format="1">
  <advance width="986"/>
  <unicode hex="00A9"/>
  <outline>
    <contour>
      <point x="164" y="324" type="curve"/>
      <point x="164" y="491"/>
      <point x="315" y="570"/>
      <point x="497" y="570" type="curve"/>
      <point x="675" y="570"/>
      <point x="822" y="487"/>
      <point x="822" y="321" type="curve"/>
      <point x="822" y="161"/>
      <point x="680" y="79"/>
      <point x="506" y="79" type="curve"/>
      <point x="322" y="79"/>
      <point x="164" y="155"/>
      <point x="164" y="324" type="curve"/>
      <point x="63" y="324"/>
      <point x="164" y="324"/>
      <point x="63" y="324" type="curve"/>
      <point x="63" y="106"/>
      <point x="262" y="4"/>
      <point x="502" y="4" type="curve"/>
      <point x="734" y="4"/>
      <point x="923" y="111"/>
      <point x="923" y="325" type="curve"/>
      <point x="923" y="539"/>
      <point x="731" y="645"/>
      <point x="497" y="645" type="curve"/>
      <point x="261" y="645"/>
      <point x="63" y="542"/>
      <point x="63" y="324" type="curve"/>
      <point x="164" y="324"/>
      <point x="63" y="324"/>
    </contour>
    <contour>
      <point x="582" y="422" type="curve"/>
      <point x="582" y="406"/>
      <point x="582" y="394"/>
      <point x="582" y="378" type="curve"/>
      <point x="674" y="378"/>
      <point x="583" y="378"/>
      <point x="675" y="378" type="curve"/>
      <point x="675" y="408"/>
      <point x="675" y="439"/>
      <point x="675" y="469" type="curve"/>
      <point x="583" y="427"/>
      <point x="674" y="463"/>
    </contour>
    <contour>
      <point x="676" y="469" type="curve"/>
      <point x="624" y="497"/>
      <point x="570" y="510"/>
      <point x="503" y="510" type="curve"/>
      <point x="364" y="510"/>
      <point x="261" y="450"/>
      <point x="261" y="322" type="curve"/>
      <point x="261" y="200"/>
      <point x="355" y="140"/>
      <point x="484" y="140" type="curve"/>
      <point x="561" y="140"/>
      <point x="616" y="149"/>
      <point x="681" y="189" type="curve"/>
      <point x="632" y="248"/>
      <point x="681" y="189"/>
      <point x="632" y="248" type="curve"/>
      <point x="574" y="222"/>
      <point x="539" y="215"/>
      <point x="489" y="215" type="curve"/>
      <point x="414" y="215"/>
      <point x="362" y="254"/>
      <point x="362" y="326" type="curve"/>
      <point x="362" y="400"/>
      <point x="418" y="434"/>
      <point x="499" y="434" type="curve"/>
      <point x="534" y="434"/>
      <point x="559" y="429"/>
      <point x="582" y="422" type="curve"/>
      <point x="674" y="463"/>
      <point x="584" y="427"/>
    </contour>
  </outline>
</glyph>
<glyph name="guillemotleft" format="1">
  <advance width="703"/>
  <unicode hex="00AB"/>
  <outline>
    <contour>
      <point x="326" y="462" type="curve"/>
      <point x="272" y="436"/>
      <point x="112" y="363"/>
      <point x="59" y="337" type="curve"/>
      <point x="59" y="234"/>
      <point x="59" y="336"/>
      <point x="59" y="232" type="curve"/>
      <point x="112" y="259"/>
      <point x="272" y="332"/>
      <point x="326" y="359" type="curve"/>
      <point x="326" y="461"/>
      <point x="326" y="360"/>
    </contour>
    <contour>
      <point x="326" y="213" type="curve"/>
      <point x="272" y="239"/>
      <point x="112" y="311"/>
      <point x="59" y="337" type="curve"/>
      <point x="59" y="234"/>
      <point x="59" y="336"/>
      <point x="59" y="232" type="curve"/>
      <point x="112" y="207"/>
      <point x="272" y="136"/>
      <point x="326" y="109" type="curve"/>
      <point x="326" y="212"/>
      <point x="326" y="110"/>
    </contour>
    <contour>
      <point x="619" y="462" type="curve"/>
      <point x="565" y="436"/>
      <point x="406" y="363"/>
      <point x="352" y="337" type="curve"/>
      <point x="352" y="234"/>
      <point x="352" y="336"/>
      <point x="352" y="232" type="curve"/>
      <point x="406" y="259"/>
      <point x="565" y="332"/>
      <point x="619" y="359" type="curve"/>
      <point x="619" y="461"/>
      <point x="619" y="360"/>
    </contour>
    <contour>
      <point x="619" y="213" type="curve"/>
      <point x="566" y="239"/>
      <point x="406" y="311"/>
      <point x="352" y="337" type="curve"/>
      <point x="352" y="234"/>
      <point x="352" y="336"/>
      <point x="352" y="232" type="curve"/>
      <point x="406" y="207"/>
      <point x="566" y="136"/>
      <point x="619" y="109" type="curve"/>
      <point x="619" y="212"/>
      <point x="619" y="110"/>
    </contour>
  </outline>
</glyph>
<glyph name="logicalnot" format="1">
  <advance width="788"/>
  <unicode hex="00AC"/>
  <outline>
    <contour>
      <point x="90" y="261" type="curve"/>
      <point x="707" y="261" type="line"/>
      <point x="707" y="363"/>
      <point x="707" y="261"/>
      <point x="707" y="363" type="curve"/>
      <point x="90" y="363" type="line"/>
      <point x="90" y="261"/>
      <point x="90" y="363"/>
    </contour>
    <contour>
      <point x="707" y="142" type="curve"/>
      <point x="707" y="363" type="line"/>
      <point x="581" y="363"/>
      <point x="713" y="363"/>
      <point x="588" y="363" type="curve"/>
      <point x="588" y="142" type="line"/>
      <point x="713" y="142"/>
      <point x="581" y="142"/>
    </contour>
  </outline>
</glyph>
<glyph name="macron" format="1">
  <advance width="380"/>
  <unicode hex="00AF"/>
  <outline>
    <contour>
      <point x="179" y="571" type="move" name="_top"/>
    </contour>
    <contour>
      <point x="318" y="664" type="curve"/>
      <point x="223" y="664"/>
      <point x="130" y="664"/>
      <point x="35" y="664" type="curve"/>
      <point x="35" y="571"/>
      <point x="35" y="664"/>
      <point x="35" y="571" type="curve"/>
      <point x="130" y="571"/>
      <point x="223" y="571"/>
      <point x="318" y="571" type="curve"/>
      <point x="318" y="664"/>
      <point x="318" y="571"/>
    </contour>
  </outline>
</glyph>
<glyph name="degree" format="1">
  <advance width="608"/>
  <unicode hex="00B0"/>
  <outline>
    <contour>
      <point x="543" y="482" type="curve"/>
      <point x="543" y="617"/>
      <point x="446" y="692"/>
      <point x="305" y="692" type="curve"/>
      <point x="163" y="692"/>
      <point x="64" y="619"/>
      <point x="64" y="484" type="curve"/>
      <point x="170" y="484"/>
      <point x="70" y="484"/>
      <point x="175" y="484" type="curve"/>
      <point x="175" y="556"/>
      <point x="224" y="603"/>
      <point x="302" y="603" type="curve"/>
      <point x="379" y="603"/>
      <point x="431" y="559"/>
      <point x="431" y="482" type="curve"/>
      <point x="431" y="404"/>
      <point x="383" y="355"/>
      <point x="304" y="355" type="curve"/>
      <point x="225" y="355"/>
      <point x="175" y="405"/>
      <point x="175" y="484" type="curve"/>
      <point x="70" y="484"/>
      <point x="170" y="484"/>
      <point x="64" y="484" type="curve"/>
      <point x="64" y="345"/>
      <point x="159" y="266"/>
      <point x="301" y="266" type="curve"/>
      <point x="445" y="266"/>
      <point x="543" y="343"/>
    </contour>
  </outline>
</glyph>
<glyph name="plusminus" format="1">
  <advance width="765"/>
  <unicode hex="00B1"/>
  <outline>
    <contour>
      <point x="69" y="21" type="line"/>
      <point x="696" y="21" type="line"/>
      <point x="696" y="123" type="line"/>
      <point x="69" y="123" type="line"/>
    </contour>
    <contour>
      <point x="69" y="261" type="curve"/>
      <point x="696" y="261" type="line"/>
      <point x="696" y="363"/>
      <point x="696" y="261"/>
      <point x="696" y="363" type="curve"/>
      <point x="69" y="363" type="line"/>
      <point x="69" y="261"/>
      <point x="69" y="363"/>
    </contour>
    <contour>
      <point x="443" y="21" type="curve"/>
      <point x="443" y="587" type="line"/>
      <point x="318" y="587"/>
      <point x="451" y="587"/>
      <point x="326" y="587" type="curve"/>
      <point x="326" y="21" type="line"/>
      <point x="451" y="21"/>
      <point x="318" y="21"/>
    </contour>
  </outline>
</glyph>
<glyph name="threesuperior" format="1">
  <advance width="534"/>
  <unicode hex="00B3"/>
  <outline>
    <contour>
      <point x="261" y="714" type="move" name="_top"/>
    </contour>
    <contour>
      <point x="247" y="263" type="move" name="_bottom"/>
    </contour>
    <contour>
      <point x="119" y="587" type="curve"/>
      <point x="158" y="615"/>
      <point x="200" y="625"/>
      <point x="233" y="625" type="curve"/>
      <point x="285" y="625"/>
      <point x="326" y="618"/>
      <point x="326" y="580" type="curve"/>
      <point x="326" y="534"/>
      <point x="249" y="533"/>
      <point x="181" y="531" type="curve"/>
      <point x="181" y="456"/>
      <point x="181" y="531"/>
      <point x="181" y="456" type="curve"/>
      <point x="322" y="457"/>
      <point x="450" y="468"/>
      <point x="450" y="586" type="curve"/>
      <point x="450" y="686"/>
      <point x="359" y="713"/>
      <point x="246" y="713" type="curve"/>
      <point x="179" y="713"/>
      <point x="116" y="692"/>
      <point x="67" y="652" type="curve"/>
      <point x="119" y="587"/>
      <point x="67" y="652"/>
    </contour>
    <contour>
      <point x="63" y="303" type="curve"/>
      <point x="115" y="280"/>
      <point x="166" y="264"/>
      <point x="223" y="264" type="curve"/>
      <point x="360" y="261"/>
      <point x="472" y="286"/>
      <point x="469" y="404" type="curve"/>
      <point x="469" y="532"/>
      <point x="328" y="520"/>
      <point x="181" y="522" type="curve"/>
      <point x="181" y="454"/>
      <point x="181" y="522"/>
      <point x="181" y="454" type="curve"/>
      <point x="264" y="453"/>
      <point x="345" y="454"/>
      <point x="345" y="403" type="curve"/>
      <point x="345" y="357"/>
      <point x="294" y="348"/>
      <point x="236" y="349" type="curve"/>
      <point x="197" y="349"/>
      <point x="160" y="357"/>
      <point x="112" y="374" type="curve"/>
      <point x="63" y="303"/>
      <point x="112" y="374"/>
    </contour>
  </outline>
</glyph>
<glyph name="periodcentered" format="1">
  <advance width="286"/>
  <unicode hex="00B7"/>
  <outline>
    <contour>
      <point x="218" y="440" type="curve"/>
      <point x="218" y="482"/>
      <point x="186" y="502"/>
      <point x="142" y="502" type="curve"/>
      <point x="99" y="502"/>
      <point x="69" y="480"/>
      <point x="69" y="440" type="curve"/>
      <point x="213" y="440"/>
      <point x="74" y="440"/>
      <point x="218" y="440" type="curve"/>
      <point x="218" y="397"/>
      <point x="186" y="379"/>
      <point x="141" y="379" type="curve"/>
      <point x="98" y="379"/>
      <point x="69" y="400"/>
      <point x="69" y="440" type="curve"/>
      <point x="213" y="440"/>
      <point x="74" y="440"/>
    </contour>
  </outline>
</glyph>
<glyph name="cedilla" format="1">
  <advance width="445"/>
  <unicode hex="00B8"/>
  <outline>
    <contour>
      <point x="266" y="77" type="move" name="_bottom"/>
    </contour>
    <contour>
      <point x="189" y="141" type="curve"/>
      <point x="173" y="119"/>
      <point x="107" y="32"/>
      <point x="91" y="10" type="curve"/>
      <point x="176" y="-65"/>
      <point x="91" y="10"/>
      <point x="176" y="-65" type="curve"/>
      <point x="197" y="-38"/>
      <point x="267" y="51"/>
      <point x="286" y="77" type="curve"/>
      <point x="189" y="141"/>
      <point x="286" y="77"/>
    </contour>
    <contour>
      <point x="176" y="-65" type="curve"/>
      <point x="184" y="-60"/>
      <point x="191" y="-58"/>
      <point x="201" y="-58" type="curve"/>
      <point x="217" y="-58"/>
      <point x="230" y="-64"/>
      <point x="230" y="-79" type="curve"/>
      <point x="230" y="-98"/>
      <point x="210" y="-104"/>
      <point x="188" y="-104" type="curve"/>
      <point x="160" y="-104"/>
      <point x="136" y="-97"/>
      <point x="101" y="-83" type="curve"/>
      <point x="66" y="-154"/>
      <point x="101" y="-83"/>
      <point x="66" y="-154" type="curve"/>
      <point x="106" y="-172"/>
      <point x="138" y="-181"/>
      <point x="182" y="-181" type="curve"/>
      <point x="273" y="-181"/>
      <point x="345" y="-156"/>
      <point x="345" y="-75" type="curve"/>
      <point x="345" y="-2"/>
      <point x="286" y="32"/>
      <point x="208" y="32" type="curve"/>
      <point x="164" y="32"/>
      <point x="133" y="24"/>
      <point x="91" y="9" type="curve"/>
      <point x="176" y="-65"/>
      <point x="91" y="9"/>
    </contour>
  </outline>
</glyph>
<glyph name="onesuperior" format="1">
  <advance width="449"/>
  <unicode hex="00B9"/>
  <outline>
    <contour>
      <point x="250" y="705" type="move" name="_top"/>
    </contour>
    <contour>
      <point x="261" y="272" type="move" name="_bottom"/>
    </contour>
    <contour>
      <point x="196" y="272" type="curve"/>
      <point x="259" y="272"/>
      <point x="322" y="272"/>
      <point x="385" y="272" type="curve"/>
      <point x="385" y="363"/>
      <point x="385" y="265"/>
      <point x="385" y="356" type="curve"/>
      <point x="364" y="356"/>
      <point x="341" y="356"/>
      <point x="320" y="356" type="curve"/>
      <point x="196" y="265"/>
      <point x="320" y="363"/>
    </contour>
    <contour>
      <point x="320" y="356" type="curve"/>
      <point x="255" y="356"/>
      <point x="191" y="356"/>
      <point x="126" y="356" type="curve"/>
      <point x="126" y="265"/>
      <point x="126" y="363"/>
      <point x="126" y="272" type="curve"/>
      <point x="149" y="272"/>
      <point x="173" y="272"/>
      <point x="196" y="272" type="curve"/>
      <point x="320" y="363"/>
      <point x="196" y="265"/>
    </contour>
    <contour>
      <point x="106" y="531" type="line"/>
      <point x="320" y="704" type="line"/>
      <point x="196" y="706" type="line"/>
      <point x="52" y="597" type="line"/>
    </contour>
    <contour>
      <point x="320" y="356" type="curve"/>
      <point x="320" y="706" type="line"/>
      <point x="196" y="706" type="line"/>
      <point x="196" y="272" type="line"/>
      <point x="320" y="363"/>
      <point x="196" y="265"/>
    </contour>
  </outline>
</glyph>
<glyph name="ordmasculine" format="1">
  <advance width="551"/>
  <unicode hex="00BA"/>
  <outline>
    <contour>
      <point x="142" y="605" type="curve"/>
      <point x="142" y="678"/>
      <point x="193" y="719"/>
      <point x="272" y="719" type="curve"/>
      <point x="354" y="719"/>
      <point x="408" y="678"/>
      <point x="408" y="603" type="curve"/>
      <point x="408" y="526"/>
      <point x="355" y="485"/>
      <point x="279" y="485" type="curve"/>
      <point x="197" y="485"/>
      <point x="142" y="525"/>
      <point x="142" y="605" type="curve"/>
      <point x="65" y="605"/>
      <point x="132" y="605"/>
      <point x="55" y="605" type="curve"/>
      <point x="55" y="480"/>
      <point x="146" y="420"/>
      <point x="275" y="420" type="curve"/>
      <point x="404" y="420"/>
      <point x="496" y="478"/>
      <point x="496" y="603" type="curve"/>
      <point x="496" y="722"/>
      <point x="406" y="785"/>
      <point x="276" y="785" type="curve"/>
      <point x="144" y="785"/>
      <point x="55" y="722"/>
      <point x="55" y="605" type="curve"/>
      <point x="132" y="605"/>
      <point x="65" y="605"/>
    </contour>
  </outline>
</glyph>
<glyph name="guillemotright" format="1">
  <advance width="703"/>
  <unicode hex="00BB"/>
  <outline>
    <contour>
      <point x="378" y="462" type="curve"/>
      <point x="432" y="436"/>
      <point x="592" y="363"/>
      <point x="645" y="337" type="curve"/>
      <point x="645" y="234"/>
      <point x="645" y="336"/>
      <point x="645" y="232" type="curve"/>
      <point x="592" y="259"/>
      <point x="432" y="332"/>
      <point x="378" y="359" type="curve"/>
      <point x="378" y="461"/>
      <point x="378" y="360"/>
    </contour>
    <contour>
      <point x="378" y="213" type="curve"/>
      <point x="432" y="239"/>
      <point x="592" y="311"/>
      <point x="645" y="337" type="curve"/>
      <point x="645" y="234"/>
      <point x="645" y="336"/>
      <point x="645" y="232" type="curve"/>
      <point x="592" y="207"/>
      <point x="432" y="136"/>
      <point x="378" y="109" type="curve"/>
      <point x="378" y="212"/>
      <point x="378" y="110"/>
    </contour>
    <contour>
      <point x="84" y="462" type="curve"/>
      <point x="138" y="436"/>
      <point x="298" y="363"/>
      <point x="351" y="337" type="curve"/>
      <point x="351" y="234"/>
      <point x="351" y="336"/>
      <point x="351" y="232" type="curve"/>
      <point x="298" y="259"/>
      <point x="138" y="332"/>
      <point x="84" y="359" type="curve"/>
      <point x="84" y="461"/>
      <point x="84" y="360"/>
    </contour>
    <contour>
      <point x="84" y="213" type="curve"/>
      <point x="138" y="239"/>
      <point x="298" y="311"/>
      <point x="351" y="337" type="curve"/>
      <point x="351" y="234"/>
      <point x="351" y="336"/>
      <point x="351" y="232" type="curve"/>
      <point x="298" y="207"/>
      <point x="138" y="136"/>
      <point x="84" y="109" type="curve"/>
      <point x="84" y="212"/>
      <point x="84" y="110"/>
    </contour>
  </outline>
</glyph>
<glyph name="onequarter" format="1">
  <advance width="1182"/>
  <unicode hex="00BC"/>
  <outline>
    <contour>
      <point x="390" y="-46" type="line"/>
      <point x="925" y="716" type="line"/>
      <point x="809" y="716" type="line"/>
      <point x="275" y="-46" type="line"/>
    </contour>
    <contour>
      <point x="182" y="284" type="curve"/>
      <point x="246" y="284"/>
      <point x="309" y="284"/>
      <point x="372" y="284" type="curve"/>
      <point x="372" y="376"/>
      <point x="372" y="277"/>
      <point x="372" y="369" type="curve"/>
      <point x="350" y="369"/>
      <point x="328" y="369"/>
      <point x="307" y="369" type="curve"/>
      <point x="182" y="277"/>
      <point x="307" y="376"/>
    </contour>
    <contour>
      <point x="307" y="369" type="curve"/>
      <point x="242" y="369"/>
      <point x="178" y="369"/>
      <point x="112" y="369" type="curve"/>
      <point x="112" y="277"/>
      <point x="112" y="376"/>
      <point x="112" y="284" type="curve"/>
      <point x="136" y="284"/>
      <point x="159" y="284"/>
      <point x="183" y="284" type="curve"/>
      <point x="307" y="376"/>
      <point x="183" y="277"/>
    </contour>
    <contour>
      <point x="93" y="543" type="line"/>
      <point x="307" y="716" type="line"/>
      <point x="183" y="718" type="line"/>
      <point x="39" y="610" type="line"/>
    </contour>
    <contour>
      <point x="307" y="369" type="curve"/>
      <point x="307" y="718" type="line"/>
      <point x="183" y="718" type="line"/>
      <point x="183" y="284" type="line"/>
      <point x="307" y="376"/>
      <point x="183" y="277"/>
    </contour>
    <contour>
      <point x="1139" y="168" type="line"/>
      <point x="678" y="168" type="line"/>
      <point x="678" y="81" type="line"/>
      <point x="1139" y="81" type="line"/>
    </contour>
    <contour>
      <point x="705" y="92" type="line"/>
      <point x="1015" y="389" type="line"/>
      <point x="918" y="403" type="line"/>
      <point x="678" y="168" type="line"/>
    </contour>
    <contour>
      <point x="1042" y="-52" type="line"/>
      <point x="1042" y="403" type="line"/>
      <point x="918" y="403" type="line"/>
      <point x="918" y="-52" type="line"/>
    </contour>
    <contour>
      <point x="980" y="31" type="line"/>
      <point x="847" y="31" type="line"/>
      <point x="847" y="-52" type="line"/>
      <point x="980" y="-52" type="line"/>
    </contour>
    <contour>
      <point x="980" y="-52" type="line"/>
      <point x="1111" y="-52" type="line"/>
      <point x="1111" y="31" type="line"/>
      <point x="980" y="31" type="line"/>
    </contour>
  </outline>
</glyph>
<glyph name="onehalf" format="1">
  <advance width="1237"/>
  <unicode hex="00BD"/>
  <outline>
    <contour>
      <point x="393" y="-46" type="line"/>
      <point x="928" y="716" type="line"/>
      <point x="812" y="716" type="line"/>
      <point x="277" y="-46" type="line"/>
    </contour>
    <contour>
      <point x="182" y="284" type="curve"/>
      <point x="245" y="284"/>
      <point x="308" y="284"/>
      <point x="371" y="284" type="curve"/>
      <point x="371" y="376"/>
      <point x="371" y="277"/>
      <point x="371" y="369" type="curve"/>
      <point x="350" y="369"/>
      <point x="327" y="369"/>
      <point x="306" y="369" type="curve"/>
      <point x="182" y="277"/>
      <point x="306" y="376"/>
    </contour>
    <contour>
      <point x="306" y="369" type="curve"/>
      <point x="241" y="369"/>
      <point x="177" y="369"/>
      <point x="112" y="369" type="curve"/>
      <point x="112" y="277"/>
      <point x="112" y="376"/>
      <point x="112" y="284" type="curve"/>
      <point x="135" y="284"/>
      <point x="159" y="284"/>
      <point x="182" y="284" type="curve"/>
      <point x="306" y="376"/>
      <point x="182" y="277"/>
    </contour>
    <contour>
      <point x="92" y="543" type="line"/>
      <point x="306" y="716" type="line"/>
      <point x="182" y="718" type="line"/>
      <point x="38" y="610" type="line"/>
    </contour>
    <contour>
      <point x="306" y="369" type="curve"/>
      <point x="306" y="718" type="line"/>
      <point x="182" y="718" type="line"/>
      <point x="182" y="284" type="line"/>
      <point x="306" y="376"/>
      <point x="182" y="277"/>
    </contour>
    <contour>
      <point x="1197" y="-52" type="curve"/>
      <point x="1197" y="-6"/>
      <point x="1197" y="40"/>
      <point x="1197" y="87" type="curve"/>
      <point x="1106" y="87"/>
      <point x="1199" y="87"/>
      <point x="1108" y="87" type="curve"/>
      <point x="1108" y="71"/>
      <point x="1108" y="55"/>
      <point x="1108" y="40" type="curve"/>
      <point x="1207" y="-42"/>
      <point x="1097" y="29"/>
    </contour>
    <contour>
      <point x="737" y="-52" type="curve"/>
      <point x="925" y="-52"/>
      <point x="1062" y="-52"/>
      <point x="1197" y="-52" type="curve"/>
      <point x="1097" y="29"/>
      <point x="1207" y="-42"/>
      <point x="1108" y="40" type="curve"/>
      <point x="985" y="40"/>
      <point x="860" y="40"/>
      <point x="737" y="40" type="curve"/>
      <point x="737" y="-52"/>
      <point x="737" y="40"/>
    </contour>
    <contour>
      <point x="832" y="247" type="curve"/>
      <point x="869" y="284"/>
      <point x="903" y="301"/>
      <point x="951" y="301" type="curve"/>
      <point x="1002" y="301"/>
      <point x="1043" y="287"/>
      <point x="1043" y="249" type="curve"/>
      <point x="1043" y="209"/>
      <point x="1008" y="192"/>
      <point x="974" y="169" type="curve"/>
      <point x="895" y="125"/>
      <point x="816" y="83"/>
      <point x="737" y="40" type="curve"/>
      <point x="739" y="-49"/>
      <point x="741" y="40"/>
      <point x="743" y="-49" type="curve"/>
      <point x="861" y="12"/>
      <point x="955" y="53"/>
      <point x="1037" y="100" type="curve"/>
      <point x="1107" y="144"/>
      <point x="1167" y="175"/>
      <point x="1167" y="252" type="curve"/>
      <point x="1167" y="354"/>
      <point x="1077" y="392"/>
      <point x="965" y="392" type="curve"/>
      <point x="872" y="392"/>
      <point x="799" y="367"/>
      <point x="750" y="301" type="curve"/>
      <point x="832" y="247"/>
      <point x="750" y="301"/>
    </contour>
  </outline>
</glyph>
<glyph name="threequarters" format="1">
  <advance width="1175"/>
  <unicode hex="00BE"/>
  <outline>
    <contour>
      <point x="400" y="-46" type="line"/>
      <point x="936" y="716" type="line"/>
      <point x="819" y="716" type="line"/>
      <point x="285" y="-46" type="line"/>
    </contour>
    <contour>
      <point x="102" y="590" type="curve"/>
      <point x="140" y="618"/>
      <point x="183" y="628"/>
      <point x="216" y="628" type="curve"/>
      <point x="268" y="628"/>
      <point x="308" y="621"/>
      <point x="308" y="582" type="curve"/>
      <point x="308" y="537"/>
      <point x="232" y="536"/>
      <point x="163" y="534" type="curve"/>
      <point x="163" y="459"/>
      <point x="163" y="534"/>
      <point x="163" y="459" type="curve"/>
      <point x="305" y="460"/>
      <point x="433" y="470"/>
      <point x="433" y="589" type="curve"/>
      <point x="433" y="689"/>
      <point x="342" y="716"/>
      <point x="229" y="716" type="curve"/>
      <point x="162" y="716"/>
      <point x="98" y="694"/>
      <point x="49" y="655" type="curve"/>
      <point x="102" y="590"/>
      <point x="49" y="655"/>
    </contour>
    <contour>
      <point x="46" y="306" type="curve"/>
      <point x="99" y="283"/>
      <point x="149" y="267"/>
      <point x="205" y="267" type="curve"/>
      <point x="342" y="264"/>
      <point x="456" y="289"/>
      <point x="452" y="406" type="curve"/>
      <point x="452" y="535"/>
      <point x="311" y="522"/>
      <point x="163" y="525" type="curve"/>
      <point x="163" y="457"/>
      <point x="163" y="525"/>
      <point x="163" y="457" type="curve"/>
      <point x="247" y="455"/>
      <point x="328" y="457"/>
      <point x="328" y="406" type="curve"/>
      <point x="328" y="360"/>
      <point x="276" y="351"/>
      <point x="218" y="352" type="curve"/>
      <point x="179" y="352"/>
      <point x="143" y="360"/>
      <point x="94" y="377" type="curve"/>
      <point x="46" y="306"/>
      <point x="94" y="377"/>
    </contour>
    <contour>
      <point x="1136" y="168" type="line"/>
      <point x="675" y="168" type="line"/>
      <point x="675" y="81" type="line"/>
      <point x="1136" y="81" type="line"/>
    </contour>
    <contour>
      <point x="703" y="92" type="line"/>
      <point x="1013" y="389" type="line"/>
      <point x="916" y="403" type="line"/>
      <point x="675" y="168" type="line"/>
    </contour>
    <contour>
      <point x="1039" y="-52" type="line"/>
      <point x="1039" y="403" type="line"/>
      <point x="916" y="403" type="line"/>
      <point x="916" y="-52" type="line"/>
    </contour>
    <contour>
      <point x="977" y="31" type="line"/>
      <point x="845" y="31" type="line"/>
      <point x="845" y="-52" type="line"/>
      <point x="977" y="-52" type="line"/>
    </contour>
    <contour>
      <point x="977" y="-52" type="line"/>
      <point x="1108" y="-52" type="line"/>
      <point x="1108" y="31" type="line"/>
      <point x="977" y="31" type="line"/>
    </contour>
  </outline>
</glyph>
<glyph name="questiondown" format="1">
  <advance width="633"/>
  <unicode hex="00BF"/>
  <outline>
    <contour>
      <point x="418" y="333" type="curve"/>
      <point x="418" y="370"/>
      <point x="418" y="447"/>
      <point x="418" y="484" type="curve"/>
      <point x="293" y="484"/>
      <point x="418" y="484"/>
      <point x="293" y="484" type="curve"/>
      <point x="293" y="447"/>
      <point x="293" y="370"/>
      <point x="293" y="333" type="curve"/>
      <point x="418" y="333"/>
      <point x="293" y="333"/>
    </contour>
    <contour>
      <point x="525" y="127" type="line"/>
      <point x="484" y="89"/>
      <point x="420" y="56"/>
      <point x="348" y="56" type="curve"/>
      <point x="251" y="56"/>
      <point x="174" y="95"/>
      <point x="174" y="186" type="curve"/>
      <point x="174" y="288"/>
      <point x="276" y="333"/>
      <point x="405" y="333" type="curve"/>
      <point x="405" y="368"/>
      <point x="405" y="392"/>
      <point x="405" y="426" type="curve"/>
      <point x="207" y="426"/>
      <point x="54" y="348"/>
      <point x="54" y="186" type="curve"/>
      <point x="54" y="34"/>
      <point x="179" y="-41"/>
      <point x="341" y="-41" type="curve"/>
      <point x="442" y="-41"/>
      <point x="520" y="-8"/>
      <point x="589" y="55" type="curve"/>
    </contour>
    <contour>
      <point x="281" y="685" type="curve"/>
      <point x="281" y="644"/>
      <point x="312" y="625"/>
      <point x="355" y="625" type="curve"/>
      <point x="398" y="625"/>
      <point x="428" y="647"/>
      <point x="428" y="685" type="curve"/>
      <point x="281" y="685"/>
      <point x="428" y="685"/>
      <point x="281" y="685" type="curve"/>
      <point x="281" y="727"/>
      <point x="312" y="745"/>
      <point x="356" y="745" type="curve"/>
      <point x="399" y="745"/>
      <point x="428" y="725"/>
      <point x="428" y="685" type="curve"/>
      <point x="281" y="685"/>
      <point x="428" y="685"/>
    </contour>
  </outline>
</glyph>
<glyph name="Aacute" format="1">
  <advance width="969"/>
  <unicode hex="00C1"/>
  <outline>
    <contour>
      <point x="130" y="93" type="curve"/>
      <point x="-10" y="93"/>
      <point x="131" y="93"/>
      <point x="-9" y="93" type="curve"/>
      <point x="-9" y="0"/>
      <point x="-9" y="93"/>
      <point x="-9" y="0" type="curve"/>
      <point x="38" y="0"/>
      <point x="83" y="0"/>
      <point x="129" y="0" type="curve"/>
      <point x="130" y="93"/>
      <point x="129" y="0"/>
    </contour>
    <contour>
      <point x="130" y="0" type="curve"/>
      <point x="193" y="0"/>
      <point x="130" y="0"/>
      <point x="318" y="0" type="curve"/>
      <point x="318" y="93"/>
      <point x="318" y="0"/>
      <point x="318" y="93" type="curve"/>
      <point x="130" y="93"/>
      <point x="318" y="93"/>
      <point x="130" y="93" type="curve"/>
      <point x="130" y="0"/>
      <point x="130" y="93"/>
    </contour>
    <contour>
      <point x="816" y="0" type="curve"/>
      <point x="862" y="0"/>
      <point x="909" y="0"/>
      <point x="954" y="0" type="curve"/>
      <point x="954" y="93"/>
      <point x="954" y="0"/>
      <point x="954" y="93" type="curve"/>
      <point x="814" y="93"/>
      <point x="956" y="93"/>
      <point x="816" y="93" type="curve"/>
      <point x="816" y="0"/>
      <point x="816" y="93"/>
    </contour>
    <contour>
      <point x="816" y="93" type="curve"/>
      <point x="627" y="93"/>
      <point x="816" y="93"/>
      <point x="628" y="93" type="curve"/>
      <point x="628" y="0"/>
      <point x="628" y="93"/>
      <point x="628" y="0" type="curve"/>
      <point x="691" y="0"/>
      <point x="753" y="0"/>
      <point x="816" y="0" type="curve"/>
      <point x="816" y="93"/>
      <point x="816" y="0"/>
    </contour>
    <contour>
      <point x="687" y="306" type="curve"/>
      <point x="553" y="306"/>
      <point x="418" y="306"/>
      <point x="283" y="306" type="curve"/>
      <point x="231" y="207"/>
      <point x="283" y="306"/>
      <point x="231" y="207" type="curve"/>
      <point x="396" y="207"/>
      <point x="562" y="207"/>
      <point x="728" y="207" type="curve"/>
      <point x="687" y="306"/>
      <point x="728" y="207"/>
    </contour>
    <contour>
      <point x="897" y="0" type="curve"/>
      <point x="784" y="242"/>
      <point x="665" y="480"/>
      <point x="551" y="722" type="curve"/>
      <point x="436" y="722"/>
      <point x="551" y="722"/>
      <point x="436" y="722" type="curve"/>
      <point x="547" y="483"/>
      <point x="654" y="239"/>
      <point x="765" y="0" type="curve"/>
      <point x="897" y="0"/>
      <point x="765" y="0"/>
    </contour>
    <contour>
      <point x="183" y="0" type="curve"/>
      <point x="308" y="239"/>
      <point x="424" y="483"/>
      <point x="549" y="722" type="curve"/>
      <point x="434" y="722"/>
      <point x="549" y="722"/>
      <point x="434" y="722" type="curve"/>
      <point x="307" y="480"/>
      <point x="173" y="242"/>
      <point x="46" y="0" type="curve"/>
      <point x="183" y="0"/>
      <point x="46" y="0"/>
    </contour>
    <contour>
      <point x="543" y="790" type="line"/>
      <point x="730" y="956" type="line"/>
      <point x="565" y="956" type="line"/>
      <point x="418" y="790" type="line"/>
    </contour>
  </outline>
</glyph>
<glyph name="Acircumflex" format="1">
  <advance width="969"/>
  <unicode hex="00C2"/>
  <outline>
    <contour>
      <point x="130" y="93" type="curve"/>
      <point x="-10" y="93"/>
      <point x="131" y="93"/>
      <point x="-9" y="93" type="curve"/>
      <point x="-9" y="0"/>
      <point x="-9" y="93"/>
      <point x="-9" y="0" type="curve"/>
      <point x="38" y="0"/>
      <point x="83" y="0"/>
      <point x="129" y="0" type="curve"/>
      <point x="130" y="93"/>
      <point x="129" y="0"/>
    </contour>
    <contour>
      <point x="130" y="0" type="curve"/>
      <point x="193" y="0"/>
      <point x="130" y="0"/>
      <point x="318" y="0" type="curve"/>
      <point x="318" y="93"/>
      <point x="318" y="0"/>
      <point x="318" y="93" type="curve"/>
      <point x="130" y="93"/>
      <point x="318" y="93"/>
      <point x="130" y="93" type="curve"/>
      <point x="130" y="0"/>
      <point x="130" y="93"/>
    </contour>
    <contour>
      <point x="816" y="0" type="curve"/>
      <point x="862" y="0"/>
      <point x="909" y="0"/>
      <point x="954" y="0" type="curve"/>
      <point x="954" y="93"/>
      <point x="954" y="0"/>
      <point x="954" y="93" type="curve"/>
      <point x="814" y="93"/>
      <point x="956" y="93"/>
      <point x="816" y="93" type="curve"/>
      <point x="816" y="0"/>
      <point x="816" y="93"/>
    </contour>
    <contour>
      <point x="816" y="93" type="curve"/>
      <point x="627" y="93"/>
      <point x="816" y="93"/>
      <point x="628" y="93" type="curve"/>
      <point x="628" y="0"/>
      <point x="628" y="93"/>
      <point x="628" y="0" type="curve"/>
      <point x="691" y="0"/>
      <point x="753" y="0"/>
      <point x="816" y="0" type="curve"/>
      <point x="816" y="93"/>
      <point x="816" y="0"/>
    </contour>
    <contour>
      <point x="687" y="306" type="curve"/>
      <point x="553" y="306"/>
      <point x="418" y="306"/>
      <point x="283" y="306" type="curve"/>
      <point x="231" y="207"/>
      <point x="283" y="306"/>
      <point x="231" y="207" type="curve"/>
      <point x="396" y="207"/>
      <point x="562" y="207"/>
      <point x="728" y="207" type="curve"/>
      <point x="687" y="306"/>
      <point x="728" y="207"/>
    </contour>
    <contour>
      <point x="897" y="0" type="curve"/>
      <point x="784" y="242"/>
      <point x="665" y="480"/>
      <point x="551" y="722" type="curve"/>
      <point x="436" y="722"/>
      <point x="551" y="722"/>
      <point x="436" y="722" type="curve"/>
      <point x="547" y="483"/>
      <point x="654" y="239"/>
      <point x="765" y="0" type="curve"/>
      <point x="897" y="0"/>
      <point x="765" y="0"/>
    </contour>
    <contour>
      <point x="183" y="0" type="curve"/>
      <point x="308" y="239"/>
      <point x="424" y="483"/>
      <point x="549" y="722" type="curve"/>
      <point x="434" y="722"/>
      <point x="549" y="722"/>
      <point x="434" y="722" type="curve"/>
      <point x="307" y="480"/>
      <point x="173" y="242"/>
      <point x="46" y="0" type="curve"/>
      <point x="183" y="0"/>
      <point x="46" y="0"/>
    </contour>
    <contour>
      <point x="366" y="792" type="line"/>
      <point x="553" y="958" type="line"/>
      <point x="388" y="958" type="line"/>
      <point x="241" y="792" type="line"/>
    </contour>
    <contour>
      <point x="743" y="792" type="line"/>
      <point x="593" y="958" type="line"/>
      <point x="428" y="958" type="line"/>
      <point x="615" y="792" type="line"/>
    </contour>
  </outline>
</glyph>
<glyph name="Atilde" format="1">
  <advance width="969"/>
  <unicode hex="00C3"/>
  <outline>
    <contour>
      <point x="130" y="93" type="curve"/>
      <point x="-10" y="93"/>
      <point x="131" y="93"/>
      <point x="-9" y="93" type="curve"/>
      <point x="-9" y="0"/>
      <point x="-9" y="93"/>
      <point x="-9" y="0" type="curve"/>
      <point x="38" y="0"/>
      <point x="83" y="0"/>
      <point x="129" y="0" type="curve"/>
      <point x="130" y="93"/>
      <point x="129" y="0"/>
    </contour>
    <contour>
      <point x="130" y="0" type="curve"/>
      <point x="193" y="0"/>
      <point x="130" y="0"/>
      <point x="318" y="0" type="curve"/>
      <point x="318" y="93"/>
      <point x="318" y="0"/>
      <point x="318" y="93" type="curve"/>
      <point x="130" y="93"/>
      <point x="318" y="93"/>
      <point x="130" y="93" type="curve"/>
      <point x="130" y="0"/>
      <point x="130" y="93"/>
    </contour>
    <contour>
      <point x="816" y="0" type="curve"/>
      <point x="862" y="0"/>
      <point x="909" y="0"/>
      <point x="954" y="0" type="curve"/>
      <point x="954" y="93"/>
      <point x="954" y="0"/>
      <point x="954" y="93" type="curve"/>
      <point x="814" y="93"/>
      <point x="956" y="93"/>
      <point x="816" y="93" type="curve"/>
      <point x="816" y="0"/>
      <point x="816" y="93"/>
    </contour>
    <contour>
      <point x="816" y="93" type="curve"/>
      <point x="627" y="93"/>
      <point x="816" y="93"/>
      <point x="628" y="93" type="curve"/>
      <point x="628" y="0"/>
      <point x="628" y="93"/>
      <point x="628" y="0" type="curve"/>
      <point x="691" y="0"/>
      <point x="753" y="0"/>
      <point x="816" y="0" type="curve"/>
      <point x="816" y="93"/>
      <point x="816" y="0"/>
    </contour>
    <contour>
      <point x="687" y="306" type="curve"/>
      <point x="553" y="306"/>
      <point x="418" y="306"/>
      <point x="283" y="306" type="curve"/>
      <point x="231" y="207"/>
      <point x="283" y="306"/>
      <point x="231" y="207" type="curve"/>
      <point x="396" y="207"/>
      <point x="562" y="207"/>
      <point x="728" y="207" type="curve"/>
      <point x="687" y="306"/>
      <point x="728" y="207"/>
    </contour>
    <contour>
      <point x="897" y="0" type="curve"/>
      <point x="784" y="242"/>
      <point x="665" y="480"/>
      <point x="551" y="722" type="curve"/>
      <point x="436" y="722"/>
      <point x="551" y="722"/>
      <point x="436" y="722" type="curve"/>
      <point x="547" y="483"/>
      <point x="654" y="239"/>
      <point x="765" y="0" type="curve"/>
      <point x="897" y="0"/>
      <point x="765" y="0"/>
    </contour>
    <contour>
      <point x="183" y="0" type="curve"/>
      <point x="308" y="239"/>
      <point x="424" y="483"/>
      <point x="549" y="722" type="curve"/>
      <point x="434" y="722"/>
      <point x="549" y="722"/>
      <point x="434" y="722" type="curve"/>
      <point x="307" y="480"/>
      <point x="173" y="242"/>
      <point x="46" y="0" type="curve"/>
      <point x="183" y="0"/>
      <point x="46" y="0"/>
    </contour>
    <contour>
      <point x="670" y="957" type="curve"/>
      <point x="658" y="916"/>
      <point x="637" y="880"/>
      <point x="601" y="880" type="curve"/>
      <point x="562" y="880"/>
      <point x="539" y="891"/>
      <point x="510" y="915" type="curve"/>
      <point x="467" y="949"/>
      <point x="434" y="964"/>
      <point x="381" y="964" type="curve"/>
      <point x="296" y="964"/>
      <point x="246" y="916"/>
      <point x="214" y="830" type="curve"/>
      <point x="307" y="785"/>
      <point x="214" y="829"/>
      <point x="307" y="785" type="curve"/>
      <point x="325" y="835"/>
      <point x="349" y="864"/>
      <point x="385" y="864" type="curve"/>
      <point x="421" y="864"/>
      <point x="441" y="850"/>
      <point x="468" y="829" type="curve"/>
      <point x="515" y="793"/>
      <point x="548" y="780"/>
      <point x="605" y="780" type="curve"/>
      <point x="692" y="780"/>
      <point x="739" y="832"/>
      <point x="769" y="915" type="curve"/>
      <point x="671" y="956"/>
      <point x="768" y="915"/>
    </contour>
  </outline>
</glyph>
<glyph name="Adieresis" format="1">
  <advance width="969"/>
  <unicode hex="00C4"/>
  <outline>
    <contour>
      <point x="130" y="93" type="curve"/>
      <point x="-10" y="93"/>
      <point x="131" y="93"/>
      <point x="-9" y="93" type="curve"/>
      <point x="-9" y="0"/>
      <point x="-9" y="93"/>
      <point x="-9" y="0" type="curve"/>
      <point x="38" y="0"/>
      <point x="83" y="0"/>
      <point x="129" y="0" type="curve"/>
      <point x="130" y="93"/>
      <point x="129" y="0"/>
    </contour>
    <contour>
      <point x="130" y="0" type="curve"/>
      <point x="193" y="0"/>
      <point x="130" y="0"/>
      <point x="318" y="0" type="curve"/>
      <point x="318" y="93"/>
      <point x="318" y="0"/>
      <point x="318" y="93" type="curve"/>
      <point x="130" y="93"/>
      <point x="318" y="93"/>
      <point x="130" y="93" type="curve"/>
      <point x="130" y="0"/>
      <point x="130" y="93"/>
    </contour>
    <contour>
      <point x="816" y="0" type="curve"/>
      <point x="862" y="0"/>
      <point x="909" y="0"/>
      <point x="954" y="0" type="curve"/>
      <point x="954" y="93"/>
      <point x="954" y="0"/>
      <point x="954" y="93" type="curve"/>
      <point x="814" y="93"/>
      <point x="956" y="93"/>
      <point x="816" y="93" type="curve"/>
      <point x="816" y="0"/>
      <point x="816" y="93"/>
    </contour>
    <contour>
      <point x="816" y="93" type="curve"/>
      <point x="627" y="93"/>
      <point x="816" y="93"/>
      <point x="628" y="93" type="curve"/>
      <point x="628" y="0"/>
      <point x="628" y="93"/>
      <point x="628" y="0" type="curve"/>
      <point x="691" y="0"/>
      <point x="753" y="0"/>
      <point x="816" y="0" type="curve"/>
      <point x="816" y="93"/>
      <point x="816" y="0"/>
    </contour>
    <contour>
      <point x="687" y="306" type="curve"/>
      <point x="553" y="306"/>
      <point x="418" y="306"/>
      <point x="283" y="306" type="curve"/>
      <point x="231" y="207"/>
      <point x="283" y="306"/>
      <point x="231" y="207" type="curve"/>
      <point x="396" y="207"/>
      <point x="562" y="207"/>
      <point x="728" y="207" type="curve"/>
      <point x="687" y="306"/>
      <point x="728" y="207"/>
    </contour>
    <contour>
      <point x="897" y="0" type="curve"/>
      <point x="784" y="242"/>
      <point x="665" y="480"/>
      <point x="551" y="722" type="curve"/>
      <point x="436" y="722"/>
      <point x="551" y="722"/>
      <point x="436" y="722" type="curve"/>
      <point x="547" y="483"/>
      <point x="654" y="239"/>
      <point x="765" y="0" type="curve"/>
      <point x="897" y="0"/>
      <point x="765" y="0"/>
    </contour>
    <contour>
      <point x="183" y="0" type="curve"/>
      <point x="308" y="239"/>
      <point x="424" y="483"/>
      <point x="549" y="722" type="curve"/>
      <point x="434" y="722"/>
      <point x="549" y="722"/>
      <point x="434" y="722" type="curve"/>
      <point x="307" y="480"/>
      <point x="173" y="242"/>
      <point x="46" y="0" type="curve"/>
      <point x="183" y="0"/>
      <point x="46" y="0"/>
    </contour>
    <contour>
      <point x="457" y="849" type="curve"/>
      <point x="457" y="891"/>
      <point x="425" y="911"/>
      <point x="382" y="911" type="curve"/>
      <point x="338" y="911"/>
      <point x="309" y="889"/>
      <point x="309" y="849" type="curve"/>
      <point x="452" y="849"/>
      <point x="314" y="849"/>
      <point x="457" y="849" type="curve"/>
      <point x="457" y="807"/>
      <point x="425" y="789"/>
      <point x="381" y="789" type="curve"/>
      <point x="338" y="789"/>
      <point x="309" y="809"/>
      <point x="309" y="849" type="curve"/>
      <point x="452" y="849"/>
      <point x="314" y="849"/>
    </contour>
    <contour>
      <point x="674" y="849" type="curve"/>
      <point x="674" y="891"/>
      <point x="642" y="911"/>
      <point x="598" y="911" type="curve"/>
      <point x="555" y="911"/>
      <point x="525" y="889"/>
      <point x="525" y="849" type="curve"/>
      <point x="669" y="849"/>
      <point x="530" y="849"/>
      <point x="674" y="849" type="curve"/>
      <point x="674" y="807"/>
      <point x="642" y="789"/>
      <point x="598" y="789" type="curve"/>
      <point x="554" y="789"/>
      <point x="525" y="809"/>
      <point x="525" y="849" type="curve"/>
      <point x="669" y="849"/>
      <point x="530" y="849"/>
    </contour>
  </outline>
</glyph>
<glyph name="Aring" format="1">
  <advance width="969"/>
  <unicode hex="00C5"/>
  <outline>
    <contour>
      <point x="130" y="93" type="curve"/>
      <point x="-10" y="93"/>
      <point x="131" y="93"/>
      <point x="-9" y="93" type="curve"/>
      <point x="-9" y="0"/>
      <point x="-9" y="93"/>
      <point x="-9" y="0" type="curve"/>
      <point x="38" y="0"/>
      <point x="83" y="0"/>
      <point x="129" y="0" type="curve"/>
      <point x="130" y="93"/>
      <point x="129" y="0"/>
    </contour>
    <contour>
      <point x="130" y="0" type="curve"/>
      <point x="193" y="0"/>
      <point x="130" y="0"/>
      <point x="318" y="0" type="curve"/>
      <point x="318" y="93"/>
      <point x="318" y="0"/>
      <point x="318" y="93" type="curve"/>
      <point x="130" y="93"/>
      <point x="318" y="93"/>
      <point x="130" y="93" type="curve"/>
      <point x="130" y="0"/>
      <point x="130" y="93"/>
    </contour>
    <contour>
      <point x="816" y="0" type="curve"/>
      <point x="862" y="0"/>
      <point x="909" y="0"/>
      <point x="954" y="0" type="curve"/>
      <point x="954" y="93"/>
      <point x="954" y="0"/>
      <point x="954" y="93" type="curve"/>
      <point x="814" y="93"/>
      <point x="956" y="93"/>
      <point x="816" y="93" type="curve"/>
      <point x="816" y="0"/>
      <point x="816" y="93"/>
    </contour>
    <contour>
      <point x="816" y="93" type="curve"/>
      <point x="627" y="93"/>
      <point x="816" y="93"/>
      <point x="628" y="93" type="curve"/>
      <point x="628" y="0"/>
      <point x="628" y="93"/>
      <point x="628" y="0" type="curve"/>
      <point x="691" y="0"/>
      <point x="753" y="0"/>
      <point x="816" y="0" type="curve"/>
      <point x="816" y="93"/>
      <point x="816" y="0"/>
    </contour>
    <contour>
      <point x="687" y="306" type="curve"/>
      <point x="553" y="306"/>
      <point x="418" y="306"/>
      <point x="283" y="306" type="curve"/>
      <point x="231" y="207"/>
      <point x="283" y="306"/>
      <point x="231" y="207" type="curve"/>
      <point x="396" y="207"/>
      <point x="562" y="207"/>
      <point x="728" y="207" type="curve"/>
      <point x="687" y="306"/>
      <point x="728" y="207"/>
    </contour>
    <contour>
      <point x="897" y="0" type="curve"/>
      <point x="784" y="242"/>
      <point x="665" y="480"/>
      <point x="551" y="722" type="curve"/>
      <point x="436" y="722"/>
      <point x="551" y="722"/>
      <point x="436" y="722" type="curve"/>
      <point x="547" y="483"/>
      <point x="654" y="239"/>
      <point x="765" y="0" type="curve"/>
      <point x="897" y="0"/>
      <point x="765" y="0"/>
    </contour>
    <contour>
      <point x="183" y="0" type="curve"/>
      <point x="308" y="239"/>
      <point x="424" y="483"/>
      <point x="549" y="722" type="curve"/>
      <point x="434" y="722"/>
      <point x="549" y="722"/>
      <point x="434" y="722" type="curve"/>
      <point x="307" y="480"/>
      <point x="173" y="242"/>
      <point x="46" y="0" type="curve"/>
      <point x="183" y="0"/>
      <point x="46" y="0"/>
    </contour>
    <contour>
      <point x="305" y="929" type="curve"/>
      <point x="305" y="832"/>
      <point x="386" y="788"/>
      <point x="493" y="788" type="curve"/>
      <point x="602" y="788"/>
      <point x="684" y="831"/>
      <point x="684" y="929" type="curve"/>
      <point x="684" y="1029"/>
      <point x="601" y="1071"/>
      <point x="490" y="1071" type="curve"/>
      <point x="384" y="1071"/>
      <point x="305" y="1027"/>
      <point x="305" y="929" type="curve"/>
      <point x="411" y="929"/>
      <point x="304" y="929"/>
      <point x="410" y="929" type="curve"/>
      <point x="410" y="975"/>
      <point x="445" y="992"/>
      <point x="490" y="992" type="curve"/>
      <point x="539" y="992"/>
      <point x="579" y="980"/>
      <point x="579" y="929" type="curve"/>
      <point x="579" y="883"/>
      <point x="540" y="867"/>
      <point x="493" y="867" type="curve"/>
      <point x="446" y="867"/>
      <point x="410" y="883"/>
      <point x="410" y="929" type="curve"/>
      <point x="304" y="929"/>
      <point x="411" y="929"/>
    </contour>
  </outline>
</glyph>
<glyph name="AE" format="1">
  <advance width="1186"/>
  <unicode hex="00C6"/>
  <outline>
    <contour>
      <point x="122" y="93" type="curve"/>
      <point x="-4" y="93"/>
      <point x="122" y="93"/>
      <point x="-3" y="93" type="curve"/>
      <point x="-3" y="0"/>
      <point x="-3" y="93"/>
      <point x="-3" y="0" type="curve"/>
      <point x="39" y="0"/>
      <point x="80" y="0"/>
      <point x="122" y="0" type="curve"/>
      <point x="122" y="93"/>
      <point x="122" y="0"/>
    </contour>
    <contour>
      <point x="122" y="0" type="curve"/>
      <point x="194" y="0"/>
      <point x="121" y="0"/>
      <point x="339" y="0" type="curve"/>
      <point x="339" y="93"/>
      <point x="339" y="0"/>
      <point x="339" y="93" type="curve"/>
      <point x="121" y="93"/>
      <point x="339" y="93"/>
      <point x="122" y="93" type="curve"/>
      <point x="122" y="0"/>
      <point x="122" y="93"/>
    </contour>
    <contour>
      <point x="594" y="282" type="curve"/>
      <point x="459" y="282"/>
      <point x="411" y="282"/>
      <point x="276" y="282" type="curve"/>
      <point x="224" y="184"/>
      <point x="276" y="282"/>
      <point x="224" y="184" type="curve"/>
      <point x="389" y="184"/>
      <point x="469" y="184"/>
      <point x="634" y="184" type="curve"/>
      <point x="594" y="282"/>
      <point x="634" y="184"/>
    </contour>
    <contour>
      <point x="176" y="0" type="curve"/>
      <point x="690" y="722" type="line"/>
      <point x="575" y="722"/>
      <point x="688" y="722"/>
      <point x="573" y="722" type="curve"/>
      <point x="38" y="0" type="line"/>
      <point x="175" y="0"/>
      <point x="38" y="0"/>
    </contour>
    <contour>
      <point x="1140" y="47" type="curve"/>
      <point x="1140" y="167"/>
      <point x="1140" y="46"/>
      <point x="1140" y="166" type="curve"/>
      <point x="1042" y="166"/>
      <point x="1140" y="166"/>
      <point x="1042" y="166" type="curve"/>
      <point x="1042" y="46"/>
      <point x="1042" y="167"/>
      <point x="1042" y="47" type="curve"/>
      <point x="1140" y="47"/>
      <point x="1042" y="47"/>
    </contour>
    <contour>
      <point x="1000" y="675" type="curve"/>
      <point x="1000" y="555"/>
      <point x="1000" y="676"/>
      <point x="1000" y="556" type="curve"/>
      <point x="1097" y="556"/>
      <point x="1000" y="556"/>
      <point x="1097" y="556" type="curve"/>
      <point x="1097" y="676"/>
      <point x="1097" y="555"/>
      <point x="1097" y="675" type="curve"/>
      <point x="1000" y="675"/>
      <point x="1097" y="675"/>
    </contour>
    <contour>
      <point x="603" y="93" type="curve"/>
      <point x="441" y="93"/>
      <point x="604" y="93"/>
      <point x="442" y="93" type="curve"/>
      <point x="442" y="0"/>
      <point x="442" y="93"/>
      <point x="442" y="0" type="curve"/>
      <point x="495" y="0"/>
      <point x="549" y="0"/>
      <point x="603" y="0" type="curve"/>
      <point x="603" y="93"/>
      <point x="603" y="0"/>
    </contour>
    <contour>
      <point x="603" y="722" type="curve"/>
      <point x="549" y="722"/>
      <point x="495" y="722"/>
      <point x="442" y="722" type="curve"/>
      <point x="442" y="629"/>
      <point x="442" y="722"/>
      <point x="442" y="629" type="curve"/>
      <point x="604" y="629"/>
      <point x="441" y="629"/>
      <point x="603" y="629" type="curve"/>
      <point x="603" y="722"/>
      <point x="603" y="629"/>
    </contour>
    <contour>
      <point x="607" y="326" type="curve"/>
      <point x="744" y="326"/>
      <point x="881" y="326"/>
      <point x="1019" y="326" type="curve"/>
      <point x="1019" y="420"/>
      <point x="1019" y="326"/>
      <point x="1019" y="420" type="curve"/>
      <point x="881" y="420"/>
      <point x="744" y="420"/>
      <point x="607" y="420" type="curve"/>
      <point x="607" y="326"/>
      <point x="607" y="420"/>
    </contour>
    <contour>
      <point x="588" y="629" type="curve"/>
      <point x="757" y="629"/>
      <point x="928" y="629"/>
      <point x="1097" y="629" type="curve"/>
      <point x="1097" y="722"/>
      <point x="1097" y="629"/>
      <point x="1097" y="722" type="curve"/>
      <point x="928" y="722"/>
      <point x="757" y="722"/>
      <point x="588" y="722" type="curve"/>
      <point x="588" y="629"/>
      <point x="588" y="722"/>
    </contour>
    <contour>
      <point x="665" y="0" type="curve"/>
      <point x="665" y="722" type="line"/>
      <point x="539" y="722"/>
      <point x="665" y="722"/>
      <point x="539" y="722" type="curve"/>
      <point x="539" y="481"/>
      <point x="539" y="241"/>
      <point x="539" y="0" type="curve"/>
      <point x="665" y="0"/>
      <point x="539" y="0"/>
    </contour>
    <contour>
      <point x="588" y="0" type="curve"/>
      <point x="772" y="0"/>
      <point x="955" y="0"/>
      <point x="1140" y="0" type="curve"/>
      <point x="1140" y="93"/>
      <point x="1140" y="0"/>
      <point x="1140" y="93" type="curve"/>
      <point x="955" y="93"/>
      <point x="772" y="93"/>
      <point x="588" y="93" type="curve"/>
      <point x="588" y="0"/>
      <point x="588" y="93"/>
    </contour>
  </outline>
</glyph>
<glyph name="Ccedilla" format="1">
  <advance width="881"/>
  <unicode hex="00C7"/>
  <outline>
    <contour>
      <point x="724" y="654" type="curve"/>
      <point x="724" y="534"/>
      <point x="724" y="620"/>
      <point x="724" y="500" type="curve"/>
      <point x="822" y="500"/>
      <point x="724" y="500"/>
      <point x="822" y="500" type="curve"/>
      <point x="822" y="620"/>
      <point x="822" y="534"/>
      <point x="822" y="654" type="curve"/>
      <point x="724" y="654"/>
      <point x="822" y="654"/>
    </contour>
    <contour>
      <point x="822" y="654" type="curve"/>
      <point x="728" y="696"/>
      <point x="627" y="727"/>
      <point x="515" y="727" type="curve"/>
      <point x="246" y="727"/>
      <point x="61" y="601"/>
      <point x="61" y="344" type="curve"/>
      <point x="61" y="107"/>
      <point x="233" y="-5"/>
      <point x="484" y="-5" type="curve"/>
      <point x="631" y="-5"/>
      <point x="722" y="24"/>
      <point x="829" y="90" type="curve"/>
      <point x="779" y="170"/>
      <point x="828" y="90"/>
      <point x="778" y="170" type="curve"/>
      <point x="677" y="113"/>
      <point x="599" y="94"/>
      <point x="489" y="94" type="curve"/>
      <point x="309" y="94"/>
      <point x="187" y="178"/>
      <point x="187" y="349" type="curve"/>
      <point x="187" y="534"/>
      <point x="316" y="630"/>
      <point x="509" y="630" type="curve"/>
      <point x="598" y="630"/>
      <point x="679" y="614"/>
      <point x="753" y="581" type="curve"/>
      <point x="822" y="654"/>
      <point x="753" y="581"/>
    </contour>
    <contour>
      <point x="437" y="71" type="curve"/>
      <point x="419" y="49"/>
      <point x="355" y="-38"/>
      <point x="338" y="-61" type="curve"/>
      <point x="423" y="-135"/>
      <point x="338" y="-61"/>
      <point x="423" y="-135" type="curve"/>
      <point x="443" y="-109"/>
      <point x="513" y="-20"/>
      <point x="533" y="7" type="curve"/>
      <point x="437" y="71"/>
      <point x="533" y="7"/>
    </contour>
    <contour>
      <point x="423" y="-135" type="curve"/>
      <point x="432" y="-131"/>
      <point x="439" y="-129"/>
      <point x="448" y="-129" type="curve"/>
      <point x="465" y="-129"/>
      <point x="476" y="-134"/>
      <point x="476" y="-149" type="curve"/>
      <point x="476" y="-169"/>
      <point x="457" y="-174"/>
      <point x="434" y="-174" type="curve"/>
      <point x="406" y="-174"/>
      <point x="384" y="-167"/>
      <point x="348" y="-153" type="curve"/>
      <point x="312" y="-225"/>
      <point x="348" y="-153"/>
      <point x="312" y="-225" type="curve"/>
      <point x="353" y="-241"/>
      <point x="385" y="-251"/>
      <point x="429" y="-251" type="curve"/>
      <point x="520" y="-251"/>
      <point x="592" y="-227"/>
      <point x="592" y="-145" type="curve"/>
      <point x="592" y="-73"/>
      <point x="533" y="-39"/>
      <point x="455" y="-39" type="curve"/>
      <point x="411" y="-39"/>
      <point x="380" y="-46"/>
      <point x="338" y="-61" type="curve"/>
      <point x="423" y="-135"/>
      <point x="338" y="-61"/>
    </contour>
  </outline>
</glyph>
